<?xml version="1.0" standalone="no"?>
<!DOCTYPE svg PUBLIC "-//W3C//DTD SVG 1.1//EN" "http://www.w3.org/Graphics/SVG/1.1/DTD/svg11.dtd" >
<svg>
<metadata>
Created by FontForge 20090622 at Tue Apr 23 09:39:54 2019
 By deploy user
Copyright (c) 2015 by Seniors Studio. All rights reserved.
</metadata>
<defs>
<font id="iCielAuther-Regular" horiz-adv-x="257" >
  <font-face 
    font-family="Auther Typeface"
    font-weight="400"
    font-stretch="normal"
    units-per-em="1000"
    panose-1="2 0 5 3 0 0 0 2 0 2"
    ascent="800"
    descent="-200"
    x-height="419"
    cap-height="592"
    bbox="-467 -422 1134 962"
    underline-thickness="50"
    underline-position="-50"
    unicode-range="U+001D-U+FB02"
  />
<missing-glyph horiz-adv-x="100" 
 />
    <glyph glyph-name="T_h" unicode="Th" horiz-adv-x="728" 
d="M710 -64l18 -10l6 -20l-10 -18l-20 -6l-22 5l-17 8l-12 13l-9 16l-6 20l-2 23v26v19v19v19v19v20v19v19v19v19v19l1 23l1 22v23v23v22l-2 21l-2 18l-3 14l-9 17l-1 1l-10 4l-18 -6l-18 -18l-9 -13l-9 -15l-6 -17l-5 -19v-20v-20v-19v-20v-20v-20v-19v-20v-20v-20v-19v-20
v-20l-8 -19l-19 -8l-19 8l-8 19v20v20v20v20v20v20v19v20v20v20v20v20v20v20v20v20v20v20v19v20v20v20v20v20v20l7 17l-18 2l-19 3l-20 4l-21 5l-22 5l-23 6v-19v-19v-20v-19v-19v-19v-20v-19v-19v-19v-20v-19v-19v-21v-20v-21v-20v-21v-20v-21v-20v-21v-20v-21l-1 -18
l-2 -16l-4 -15l-9 -16l-13 -13l-17 -8l-22 -5l-20 6l-10 18l6 20l18 10l16 8l3 12l1 17v21v20v21v20v21v20v21v20v21v20v21h-1v20v21v20v20v21v20v20v20v21v20v20v21v20l-21 5l-21 5l-21 4l-21 3l-21 2l-21 2h-23h-2l-23 -2l-20 -4l-18 -7l-15 -9l-12 -11l-12 -15l-9 -17
l-5 -18l-2 -19v-1l2 -18l5 -18l8 -16l11 -14l16 -13l21 -9l26 -3l23 2l18 7l13 10l9 13l5 28l-8 25l-17 12h-26l-21 4l-11 17l3 20l17 12l22 3l19 -1l18 -4l15 -8l14 -11l11 -13l9 -16l6 -17l3 -19v-18l-4 -19l-6 -18l-9 -15l-11 -14l-13 -12l-16 -9l-19 -8l-21 -4l-24 -1
l-21 1l-19 4l-18 6l-16 9l-14 10l-13 11l-12 15l-11 16l-8 17l-5 18l-4 19l-1 19v1l1 19l4 19l6 18l8 18l11 17l13 16l13 12l15 10l16 9l18 8l20 5l22 4l23 1h2h2h19l19 -1l19 -1l19 -3l19 -3l19 -4l19 -4l19 -4l23 -4l16 -6l21 -6l24 -6l22 -6l22 -5l20 -3l18 -3l17 -1h1
l20 4l18 10l11 15l5 21v2l8 19l19 9l19 -8l8 -19v-2v-1l-3 -23l-7 -21l-11 -18l-14 -15l-15 -10l-15 -8l-16 -5l9 -21v-21v-22v-21v-21v-22v-21l15 12l16 9l17 6l16 2l17 -2l15 -5l17 -12l13 -18l11 -24l4 -15l2 -17l2 -20l1 -21v-21v-22v-22l-1 -21l-1 -22v-19v-19v-19v-19
v-19v-20v-19v-19v-19v-19v-29l4 -20z" />
    <glyph glyph-name="W_h" unicode="Wh" horiz-adv-x="1127" 
d="M1111 -64l17 -10l6 -20l-10 -18l-20 -6l-22 5l-17 8l-12 13l-9 16l-6 20l-2 23v26v19v19v19v19l1 20v19v19v19v19v19v23l1 22v23v23v22l-1 21l-2 18l-3 14l-10 17l-1 1l-10 4l-18 -6l-18 -18l-9 -13l-8 -15l-7 -17l-4 -19v-20v-20v-19v-20v-20v-20v-19v-20v-20v-20v-19
v-20v-20l-8 -19l-20 -8l-19 8l-8 19v20v19v20v20v19v20v19v20v20v19v20v20v19v20v20v19v20v20v19v20v19v20v20v19v20v23l-2 18l-11 17l-4 -2l-5 -4l-5 -7l-5 -10l-5 -12l-5 -14l-6 -16l-5 -18l-6 -19l-6 -21l-6 -22l-6 -23l-6 -24l-6 -25l-6 -25l-5 -25l-6 -26l-6 -25
l-5 -26l-5 -25l-5 -24l-5 -23l-5 -23l-4 -21l-4 -21l-4 -18l-3 -17l-5 -22l-3 -17l-3 -12l-12 -17l-20 -4l-14 8l-7 14l-4 18l-4 18l-4 18l-4 19l-4 19l-4 20l-4 20l-4 20l-4 20l-5 21l-4 20l-4 21l-3 19l-4 18l-4 18l-4 -19l-4 -20l-5 -19l-4 -19l-4 -19l-4 -20l-4 -19
l-5 -19l-4 -19l-4 -20l-4 -19l-4 -19l-5 -19l-4 -20l-4 -19l-7 -14l-14 -8l-20 4l-12 17l-3 16l-3 17l-4 18l-4 18l-4 20l-4 20l-4 20l-4 21l-4 21l-4 21l-5 21l-5 22l-5 22l-6 21l-5 22l-7 21l-6 21l-7 20l-8 21l-8 19l-8 19l-9 19l-9 17l-10 17l-11 16l-11 15l-11 14
l-13 13l-13 11l-14 11l-14 9l-15 7l-16 6l-17 4l-18 3l-18 1h-2l-22 -1l-22 -4l-20 -6l-18 -8l-16 -10l-13 -12l-11 -13l-8 -16l-5 -18l-2 -19l2 -18l5 -18l8 -16l11 -14l16 -13l21 -9l26 -4l23 2l18 7l13 11l9 13l5 28l-8 25l-17 12h-26l-21 4l-11 16l3 21l17 12l22 3
l19 -1l18 -5l15 -8l14 -10l11 -13l9 -16l6 -17l3 -19v-18l-4 -19l-6 -18l-9 -15l-11 -14l-13 -12l-16 -10l-19 -7l-21 -5l-24 -1l-21 2l-19 4l-18 6l-16 8l-14 10l-13 12l-12 14l-11 16l-8 17l-5 18l-4 19l-1 19v1l1 22l4 20l7 19l9 17l11 16l13 14l15 13l16 10l17 9l18 8
l19 5l20 5l20 2l21 1h2l20 -1l19 -2l19 -4l17 -5l17 -6l16 -8l16 -9l14 -10l14 -11l13 -12l13 -13l12 -14l11 -15l11 -16l10 -17l10 -17l9 -17l9 -19l8 -19l8 -19l7 -20l7 -20l6 -20l6 -20l6 -21l6 -21l5 -21l5 -20l4 -21l5 -21l4 -20l4 -20l4 -20l4 20l5 20l4 21l5 20l4 20
l5 20l4 20l4 21l5 20l4 20l5 20l4 21l5 20l4 20l-4 21l-4 19l-4 19l-4 18l-3 17l-3 16l4 20l17 12l20 -4l12 -18l4 -17l3 -19l4 -18l4 -20l4 -20l4 -22l4 -20l4 -19l4 -20l4 -21l4 -20l4 -20l4 -20l4 -20l4 -20l5 -21l4 -21l5 -22l4 -21l4 -21l4 22l5 22l5 23l5 24l6 24
l5 25l6 25l6 24l6 25l6 24l7 24l7 24l6 23l8 22l7 21l7 20l7 18l8 18l8 15l8 15l8 12l8 10l8 9l8 6l9 4l8 1l19 -2l16 -6l12 -11l10 -16l5 -14l4 -18l2 -20l1 -24v-20v-20v-21v-20v-20v-20l15 12l15 9l17 6l16 2l17 -2l15 -5l17 -12l14 -18l10 -24l4 -15l2 -17l2 -20l1 -21
v-21v-22v-22l-1 -21l-1 -22v-19v-19v-19v-19v-19v-20v-19v-19v-19v-19v-29l4 -20z" />
    <glyph glyph-name="r_r" unicode="rr" horiz-adv-x="566" 
d="M436 -63l20 1l16 -13l1 -21l-8 -21l-10 -18l-12 -15l-13 -13l-16 -11l-18 -8l-20 -4l-20 -2l-20 1l-19 5l-16 7l-14 10l-13 13l-11 14l-9 17l-8 18l-8 20l-6 21l-6 22l-5 22l-5 23l-5 24l-5 25l-6 24l-5 23l-7 23l-7 21l-8 18l-10 17l-10 14l-13 11l-14 7l-16 3l-12 3
v-19v-19v-19v-19v-20v-19v-19v-19v-19v-19l-8 -19l-19 -8l-19 8l-8 19v20v19v20v20v20v19v20v20v20v19v20v20v20v19v20v20l-1 30l-3 19l-16 9l-18 10l-6 19l9 17l18 7l26 1h19h19l20 -1l19 -1l19 -3l18 -5l17 -6l15 -9l13 -11l11 -14l8 -17l4 -21l2 -24l-2 -26l-5 -22
l-7 -19l-9 -16l-11 -13l-14 -12l11 -12l10 -14l9 -15l7 -17l7 -18l7 -18l5 -20l5 -20l5 -20l5 -21l4 -21l5 -24l5 -23l5 -23l6 -21l7 -20l7 -17l9 -16l9 -12l12 -9l12 -6l15 -2l21 3l19 10l10 10l9 14l7 18zM158 280l1 1l12 12l8 20l4 30l-3 21l-10 16l-15 10l-18 6l-21 4
l-22 1l3 -17l1 -19v-22v-20v-19v-20v-19l13 4l24 2zM711 -63l20 1l16 -13l1 -21l-8 -21l-10 -18l-12 -15l-13 -13l-17 -11l-18 -8l-19 -4l-20 -2l-20 1l-18 5l-16 6l-15 10l-12 11l-11 14l-10 15l-8 17l-8 19l-6 19l-6 21l-5 21l-5 21l-5 22l-5 23l-6 22l-5 22l-7 21l-7 19
l-8 18l-10 15l-10 13l-13 10l-14 7l-16 3l-12 3v-20v-21v-20v-21v-20v-20v-21v-20l-8 -19l-19 -8l-19 8l-8 19v21v20v21v20v21v20v21v21v20v21v20v21v20v21v21l-1 17l-3 12l-16 8l-18 10l-6 20l9 16l18 7v1h26h19h19h20l19 -2l19 -3l18 -4l17 -7l15 -8l13 -11l10 -15l8 -17
l5 -21l1 -24l-2 -26l-4 -22l-7 -19l-9 -16l-11 -13l-12 -10l-1 -1l12 -13l10 -14l9 -17l9 -17l7 -18l6 -20l6 -20l5 -21l4 -21l5 -21l5 -24l6 -24l6 -22l7 -22l8 -19l9 -16l10 -14l12 -11l14 -6l16 -2l21 3l19 10l10 10l9 14l7 18zM434 253h1l11 12l8 20l4 30l-3 21l-10 16
l-15 10l-18 6l-21 4l-22 1l3 -17l1 -19v-22v-20v-19v-20v-19l13 4l17 1l16 3z" />
    <glyph glyph-name="c_c" unicode="cc" horiz-adv-x="538" 
d="M217 149l20 7l18 -10l6 -20l-3 -21l-5 -20l-8 -18l-9 -16l-11 -14l-14 -14l-15 -10l-17 -8l-18 -4l-18 -1l-18 3l-17 5l-15 9l-15 11l-12 14l-12 16l-9 18l-9 20l-7 21l-6 22l-3 18l-3 18l-1 19l-1 18v19l1 19l2 19l2 18l3 18l4 18l7 22l8 20l9 19l11 17l12 15l13 13
l15 10l17 8l18 4l19 2l22 -3l19 -8l17 -12l13 -17l8 -19l2 -21l-3 -23l-9 -23l-16 -13l-21 3l-13 16l3 20l6 20l-4 13l-9 9l-15 4l-18 -3l-15 -9l-14 -14l-12 -18l-10 -22l-8 -24l-4 -19l-3 -19l-2 -20l-1 -21v-20l1 -20l3 -20l3 -20l7 -25l9 -23l10 -20l13 -14l14 -10
l17 -4l20 5l19 14l11 16l7 19l5 23zM479 149l20 7l18 -10l7 -20l-3 -21l-6 -20l-7 -18l-10 -16l-11 -14l-14 -14l-15 -10l-17 -8l-17 -4l-18 -1l-20 3l-19 6l-16 9l-15 12l-14 15l-11 16l-10 19l-8 20l-6 22l-4 19l-3 20l-2 21v20l1 21l3 21l3 20l5 19l8 21l9 20l11 18
l12 17l15 13l16 12l18 8l20 5l21 2l22 -3l19 -7l17 -13l13 -16l8 -19l3 -22l-3 -22l-10 -23l-16 -13l-20 2l-13 16l2 21l6 19l-4 14l-9 8l-15 4l-18 -3l-17 -7l-14 -12l-12 -15l-9 -19l-8 -21l-5 -22l-3 -22l-2 -23l1 -23l2 -22l4 -22l6 -21l9 -19l10 -16l13 -13l15 -8
l16 -3l21 5l18 14l11 16l8 19l4 23z" />
    <glyph glyph-name="e_e" unicode="ee" horiz-adv-x="545" 
d="M484 151l20 7l18 -9l7 -20l-3 -22l-6 -20l-8 -18l-11 -17l-12 -14l-15 -14l-17 -10l-18 -8l-19 -5l-19 -1l-21 3l-19 6l-16 9l-15 12l-13 15l-10 18l-9 20l-8 21l-5 23l-3 21l-2 21l-1 23v22l1 22l3 23l3 22l5 21l6 22l7 21l9 20l9 19l11 17l11 15l13 12l13 10l15 7l16 5
l16 1l19 -2l17 -6l15 -10l13 -13l10 -15l7 -22l2 -22l-2 -16l-5 -16l-8 -15l-8 -11l-10 -11l-12 -10l-14 -9l-17 -9l-18 -8l-21 -6l-24 -5l-26 -4l-2 -29v-19l1 -19l1 -19l3 -18l6 -22l7 -20l10 -17l11 -12l14 -9l16 -3l17 2l17 7l15 13l12 15l8 19l4 23zM432 392l-16 5
l-13 -2l-12 -8l-11 -11l-11 -16l-9 -19l-8 -21l-7 -23l29 6l24 8l18 9l14 11l10 12l6 20l-3 17zM214 151l20 7l18 -9l7 -20l-3 -22l-6 -20l-8 -18l-11 -17l-12 -14l-15 -14l-17 -10l-18 -8l-19 -5l-20 -1l-17 2l-17 5l-16 7l-15 11l-14 14l-12 18l-7 14l-6 15l-5 16l-4 18
l-3 20l-2 22v23l1 15l1 21l2 19l4 20l4 20l6 19l8 19l9 18l11 17l13 15l15 13l18 9l20 6l23 3l23 -3l21 -9l17 -14l12 -18l7 -20l2 -23l-4 -22l-10 -23l-8 -11l-9 -11l-12 -10l-14 -10l-17 -9l-18 -8l-21 -6l-24 -6l-26 -13v-25l3 -23l4 -19l5 -17l7 -14l14 -17l16 -11
l17 -3l17 2l17 7l15 13l12 15l8 19l4 23zM107 327l-14 -18l-9 -19l-7 -21l-5 -22l25 5l22 7l18 8l14 9l10 9l8 10l7 20l-4 15l-24 15l-23 -5z" />
    <glyph glyph-name="t_t" unicode="tt" horiz-adv-x="449" 
d="M423 124l9 -24l3 -23l-4 -21l-8 -19l-13 -16l-17 -12l-20 -7l-22 -2l-24 3l-19 6l-17 11l-13 13l-11 16l-8 19l-5 17l-4 18l-2 18l-1 19v19v19v14v15v17v19v20v21v21v22v23v17v17v17h-20h-21h-20h-21h-20h-21h-20v-20v-21v-21v-20v-25v-24v-22v-20v-19v-17v-14v-19l1 -20
l1 -19l3 -18l4 -16l9 -16l14 -11l20 -5l15 3l9 9l4 13l-5 20l-2 20l13 16l21 2l16 -13l9 -24l2 -23l-3 -21l-9 -19l-13 -16l-17 -12l-19 -7l-22 -2l-24 3l-19 6l-17 11l-13 13l-11 16l-8 19l-5 17l-4 18l-2 18l-1 19l-1 19v19v14v17v19v21v22v24v24v20v21l1 21v20h-17h-16
h-17l-19 8l-8 20l8 19l19 8h17h16h17v25v23l-1 23v20v18l8 19l19 8l19 -8l8 -19v-18v-20v-23v-23v-25h20h21h20h21h20h21h20v22v21v20v18l8 19l19 8l19 -8l8 -19v-18v-20v-21v-22h12h22l17 1l13 2l8 16l11 18l20 5l17 -10l6 -20l-5 -22l-9 -17l-12 -12l-17 -8l-15 -4l-17 -3
l-18 -1h-21h-12v-17v-17v-17v-23v-22v-22v-21v-19v-19v-17l-1 -15v-14v-19l1 -20l2 -19l3 -18l4 -16l9 -16l14 -11l20 -5l15 3l9 9l4 13l-5 20l-2 20l13 16l20 2z" />
    <glyph glyph-name="o_o" unicode="oo" horiz-adv-x="518" 
d="M468 375l10 -17l8 -16l6 -18l5 -19l4 -20l3 -20l2 -21l1 -21v-3l-1 -20l-1 -21l-3 -20l-4 -21l-4 -20l-6 -19l-7 -18l-9 -19l-10 -18l-12 -15l-14 -12l-15 -9l-17 -6l-21 -2l-18 3l-16 7l-15 10l-13 13l-11 15l-10 18l-8 19l-6 18l-5 19l-4 21l-3 20l-2 21v21v30l2 20
l3 21l4 19l5 19l5 18l7 16l8 15l14 19l15 16l17 12l20 7l21 2l18 -2l17 -6l15 -9l13 -12zM453 220v3l-1 20l-2 20l-3 19l-5 19l-5 17l-7 15l-11 17l-13 11l-14 4l-14 -3l-13 -10l-12 -16l-8 -17l-7 -20l-6 -21l-3 -23l-3 -31v-21l1 -21l2 -20l3 -20l5 -20l6 -18l11 -25
l14 -17l17 -8h1h1l17 7l15 16l12 25l7 18l5 19l5 20l3 20l1 21zM111 397l21 2l22 -3l19 -7l17 -11l15 -15l13 -18l8 -16l7 -19l6 -19l4 -21l2 -23l1 -24v-3v-20l-2 -21l-2 -20l-4 -21l-5 -20l-5 -19l-7 -18l-9 -19l-11 -18l-12 -15l-13 -12l-15 -9l-17 -6l-18 -2h-4l-18 3
l-16 7l-15 10l-12 13l-12 15l-10 18l-8 19l-6 18l-5 19l-3 21l-3 20l-2 21l-1 21v20l1 10l2 23l3 22l5 20l6 18l8 18l9 15l14 17l15 13l17 10zM192 220v3l-1 23l-2 21l-4 19l-6 17l-7 15l-11 14l-14 9l-16 4l-23 -6l-18 -18l-8 -14l-6 -16l-5 -18l-3 -20l-3 -29v-21l1 -21
l2 -20l4 -20l4 -20l6 -18l12 -25l14 -17l17 -8h1l17 7l15 16l13 25l6 18l6 19l4 20l3 20l1 21z" />
    <glyph glyph-name="f_t" unicode="ft" horiz-adv-x="529" 
d="M287 450l-16 -14l-20 2l-14 16l2 21l6 19l-4 14l-1 1l-8 7l-16 4l-22 -4l-17 -9l-13 -13l-10 -17l-6 -18l-5 -19l-3 -21l-1 -21h21h20h21h20l21 -1h20h21h20h21v22v21v20v20v18v18l8 19l19 8l19 -8l8 -19v-18v-18v-20v-20v-21v-22l27 1l18 3l9 16l10 17l20 6l18 -10
l5 -20l-5 -22l-9 -17l-12 -12l-17 -8l-18 -5l-22 -2l-24 -1v-4v-23v-24v-22v-21v-21v-19v-17v-15v-19l1 -20l1 -19l3 -17l4 -16l9 -17l14 -11l20 -5l15 3l9 9l4 13l-5 20l-2 21l13 16l21 1l16 -13l9 -23l2 -23l-3 -22l-9 -18l-13 -16l-17 -12l-19 -8l-22 -2l-24 3l-19 7
l-17 10l-13 13l-11 17l-8 18l-5 17l-4 18l-2 18l-1 19l-1 19v19v15v17v19v21v21v22v24v23v4h-21h-20h-21h-21l-21 1h-20h-21h-21h-21v-20v-19v-20v-19v-20v-19v-20v-19v-20l1 -19v-20v-19v-20v-19v-20v-19v-20v-19v-21l-1 -18l-2 -16l-5 -15l-9 -16l-12 -13l-17 -8l-22 -5
l-20 6l-10 18l6 20l18 10l16 8l3 12l1 17v21v19v20v19v20v19v20v19v20v19v20v20v19v19v20v19v20v19v20l-18 -2l-12 -2l-8 -16l-11 -18l-20 -5l-18 10l-5 20l5 22l9 17l12 12l17 9l23 5l26 2l2 21l3 21l4 21l5 19l7 18l9 18l11 16l13 14l15 12l18 8l21 6l23 2l22 -3l20 -7
l15 -11l13 -15l10 -21l4 -22l-3 -22z" />
    <glyph glyph-name="R_y" unicode="Ry" horiz-adv-x="809" 
d="M463 74l6 -21l5 -18l6 -20l7 -21l7 -22l7 -21l6 -18l6 -15l-2 -23l-15 -14h-19l-15 18l-5 15l-7 19l-7 23l-8 23l-7 22l-6 20l-5 16l-7 23l-7 22l-7 22l-7 22l-8 21l-8 20l-9 19l-10 17l-10 15l-11 14l-11 11l-13 9l-14 6v-21v-21v-21v-20v-21v-21v-21v-21l-1 -18l-3 -16
l-4 -15l-9 -16l-13 -13l-17 -8l-22 -5l-20 6l-10 18l6 20l18 10l17 8l2 12l2 17v21v20v20v19v20v20v20v19v20v20v20v19v20v20v20v20v19v20v20v20v19v20v20l8 19l19 8l19 -8l8 -19v-19v-20v-19v-20v-19v-20v-19v-19v-20v-19v-20v-19l25 3l23 5l21 8l18 10l17 12l14 13l12 15
l9 16l7 19l4 19l2 19l-1 20l-5 18l-7 18l-8 15l-11 13l-13 12l-15 11l-17 10l-20 7l-21 6l-25 3l-26 1l-25 -1l-23 -3l-21 -4l-20 -6l-19 -7l-17 -7l-15 -9l-14 -10l-17 -15l-14 -16l-12 -17l-9 -17l-7 -17l-4 -17l-2 -17v-4l2 -21l5 -18l9 -16l12 -11l14 -8l18 -3h2l26 7
l9 19l-12 16l-10 19l5 19l18 10l20 -5l15 -14l10 -15l6 -15l3 -23l-6 -22l-11 -18l-16 -15l-17 -10l-20 -5l-21 -2h-3h-1l-21 3l-19 6l-17 9l-14 11l-13 14l-10 15l-8 17l-5 18l-3 19l-1 25l2 18l4 18l5 19l8 18l9 18l11 18l14 17l15 16l18 15l14 10l14 9l16 8l17 8l18 6
l19 6l21 4l21 4l23 2l24 1l26 -1l24 -2l23 -5l21 -6l19 -7l18 -9l16 -11l15 -11l13 -13l11 -13l10 -15l8 -15l8 -19l6 -20l4 -20l1 -21l-2 -20l-3 -21l-6 -20l-8 -19l-8 -16l-11 -16l-11 -14l-14 -13l-15 -13l-16 -11l-18 -9l-20 -8l12 -13l11 -15l10 -16l9 -17l9 -18l8 -19
l8 -19l7 -20l7 -21l6 -20zM789 7v-19v-19l-1 -19l-1 -19l-2 -18l-4 -18l-5 -17l-8 -19l-11 -16l-13 -13l-17 -11l-19 -6l-24 -3l-23 2l-19 7l-17 12l-13 16l-8 19l-4 21l3 23l9 24l16 13l20 -2l13 -16l-1 -20l-6 -20l4 -14l9 -8l15 -3l20 4l14 12l9 16l4 16l3 18l2 19l1 19
v20l-1 23l-23 -9l-19 -2l-22 1l-20 4l-17 7l-14 11l-11 13l-10 16l-6 14l-4 15l-4 17l-2 19l-2 20l-1 23v24v19v20v19v20v19v20v19v20v21l-1 17l-2 12l-17 8l-18 10l-6 20l10 18l20 6l22 -5l17 -9l13 -12l9 -16l4 -15l3 -16l1 -19v-20h-1v-20v-19v-20v-19v-20v-19v-20v-19
v-29l2 -25l2 -22l4 -18l6 -14l9 -12l15 -8l21 -2l13 3l14 9l9 12l6 18v20v21v21v21v21v20v21v20v20v20v19v18v17v16l8 19l19 8l19 -8l8 -19v-16v-17v-18v-19v-20v-20v-20v-21v-20v-21v-21v-21v-21v-24v-23v-21v-21z" />
    <glyph glyph-name="K_y" unicode="Ky" horiz-adv-x="782" 
d="M473 96l7 -22l7 -22l6 -21l7 -21l7 -20l7 -19l8 -19l7 -17l9 -15l8 -14l5 -22l-6 -16l-13 -7l-16 2l-15 13l-9 15l-8 15l-8 17l-8 18l-7 18l-7 19l-7 20l-6 19l-7 21l-6 20l-8 24l-7 24l-8 24l-8 23l-9 22l-9 20l-9 19l-10 18l-10 15l-11 13l-11 10l-13 7l-15 4v-21v-21
v-21v-22v-21v-21v-21v-21v-21l-1 -18l-3 -16l-4 -15l-9 -16l-13 -13l-17 -8l-22 -5l-20 6l-10 18l6 20l18 10l17 8l2 12l2 17v21v20v19v20v20v19v20v20v19v20v20v19v20v20v19v20v20v19v20v20v19v20v20v19v20l-22 -4l-20 -5l-19 -6l-17 -7l-16 -8l-14 -9l-13 -10l-16 -14
l-13 -16l-11 -15l-9 -17l-6 -16l-4 -17l-2 -16v-4l2 -21l5 -18l9 -16l12 -11l14 -8l18 -3h2l26 7l9 19l-12 16l-10 19l5 19l18 10l20 -5l15 -14l10 -15l6 -15l3 -23l-6 -22l-11 -18l-16 -15l-17 -10l-20 -5l-21 -2h-3h-1l-21 3l-19 6l-17 9l-14 11l-13 14l-10 15l-8 17
l-5 18l-3 19l-1 25l2 17l3 18l6 18l7 18l8 17l11 17l13 16l14 16l17 15l13 10l14 9l15 8l17 8l17 7l19 6l19 5l21 4l22 3l23 2l20 -7l9 -18v-2v-20v-21v-20v-20v-21v-20v-20v-20v-21v-20v-20v-21v-20l10 17l10 16l11 17l10 16l10 17l10 16l10 17l11 17l10 16l10 17l10 16
l11 17l10 16l12 20l4 6l13 18l14 14l18 12l24 6l20 -5l10 -18l-5 -20l-18 -10l-18 -10l-14 -18l-4 -6l-10 -17l-10 -16l-11 -17l-10 -16l-10 -17l-10 -16l-11 -17l-10 -17l-10 -16l-10 -17l-10 -16l-11 -17l-10 -16l-10 -17l14 -9l13 -11l12 -13l11 -14l11 -16l9 -17l10 -18
l9 -20l8 -20l8 -21l7 -22l8 -22zM762 7v-19v-19l-1 -19l-1 -19l-2 -18l-4 -18l-5 -17l-8 -19l-11 -16l-13 -13l-17 -11l-19 -6l-24 -3l-22 2l-20 7l-17 12l-13 16l-8 19l-4 21l3 23l9 24l16 13l20 -2l13 -16l-1 -20l-6 -20l4 -14l9 -8l15 -3l20 4l15 12l8 16l4 16l3 18l2 19
l1 19v20l-1 23l-23 -9l-19 -2l-22 1l-20 4l-17 7l-14 11l-11 13l-10 16l-6 14l-4 15l-4 17l-2 19l-2 20l-1 23v24v19v20v19v20v19v20v19v20v21l-1 17l-2 12l-17 8l-18 10l-6 20l10 18l20 6l22 -5l17 -9l13 -12l9 -16l4 -15l3 -16l1 -19v-20h-1v-20v-19v-20v-19v-20v-19v-20
v-19h1v-29l1 -25l3 -22l3 -18l6 -14l9 -12l15 -8l21 -2l13 3l14 9l9 12l6 18v20v21v21v21v21v20v21v20v20v20v19v18v17v16l8 19l19 8l19 -8l8 -19v-16v-17v-18v-19v-20v-20v-20v-21v-20v-21v-21v-21v-21v-24v-23v-21v-21z" />
    <glyph glyph-name="r_y" unicode="ry" horiz-adv-x="530" 
d="M512 7v-19v-19l-1 -19l-1 -19l-2 -18l-4 -18l-5 -17l-8 -19l-11 -16l-13 -13l-17 -11l-19 -6l-24 -3l-22 2l-20 7l-17 12l-13 16l-8 19l-4 21l3 23l9 24l16 13l20 -2l13 -16l-1 -20l-6 -20l4 -14l9 -8l15 -3l20 4l15 12l8 16l4 16l3 18l2 19l1 19v20l-1 23l-23 -9l-19 -2
l-22 1l-20 4l-17 7l-14 11l-11 13l-10 16l-6 14l-4 15l-4 17l-2 19l-2 20l-1 23v24v19v20v19v20l1 19v20v19v20h-1v21l-1 17l-2 12l-17 8l-18 10l-6 20l10 18l20 6l22 -5l17 -9l13 -12l9 -16l4 -15l3 -16l1 -19v-20h-1v-20v-19v-20v-19v-20v-19v-20v-19h1v-29l1 -25l3 -22
l3 -18l6 -14l9 -12l15 -8l21 -2l13 3l14 9l9 12l6 18v20v21v21v21v21v20v21v20v20v20v19v18v17v16l8 19l19 8l19 -8l8 -19v-16v-17v-18v-19v-20v-20v-20v-21v-20v-21v-21v-21v-21v-24v-23v-21v-21zM256 60l4 -21l4 -19l4 -19l4 -18l4 -18l5 -17v-22l-10 -12l-16 -4l-15 5
l-11 15l-4 18l-5 20l-5 22l-4 20l-4 19l-5 25l-6 24l-5 23l-7 23l-7 21l-8 18l-10 17l-10 14l-13 11l-14 7l-16 3l-12 3v-19v-19v-19v-19v-20v-19v-19v-19v-19v-19l-8 -19l-19 -8l-19 8l-8 19v20v19v20v20v20v19v20v20v20v19v20v20v20v19v20v20l-1 30l-3 19l-16 8l-18 10
l-6 20l9 17l18 7l26 1h19h19l20 -1l19 -1l19 -3l18 -5l17 -6l15 -9l13 -11l11 -14l8 -17l4 -21l2 -24l-2 -26l-5 -22l-7 -19l-9 -16l-11 -13l-12 -10l-2 -2l11 -12l10 -14l9 -15l7 -17l7 -18l7 -18l5 -20l5 -20l5 -20zM155 281h1l11 12l8 20l4 30l-3 21l-10 16l-15 10l-18 6
l-21 4l-22 1l3 -17l1 -19v-22v-20v-19v-20v-19l13 4l17 1l16 3z" />
    <glyph glyph-name="r_g" unicode="rg" horiz-adv-x="535" 
d="M521 405l14 -22l2 -20l-13 -16l-21 -2l-16 13l-11 18l-12 12l-14 8l-15 5l-15 1l-19 -3l-15 -9l-13 -13l-10 -16l-8 -20l-6 -22l-4 -23l-3 -24l-2 -23l-1 -22v-20v-18v-5l1 -27l2 -24l4 -20l5 -17l7 -15l18 -20l21 -7l14 3l13 9l10 14l7 20l-1 21v21v21v21v21v20v21v20
v19v18v18v17l8 19l19 8l19 -8l8 -19v-17v-18v-18v-19v-20v-21v-20v-21v-21v-21v-21l1 -25v-23v-23v-21v-21v-20v-19l-1 -19l-1 -19l-2 -18l-4 -18l-5 -17l-8 -19l-11 -16l-13 -13l-17 -11l-19 -6l-24 -3l-22 2l-19 7l-17 12l-13 16l-9 19l-3 21l2 23l9 24l16 13l21 -2
l13 -16l-2 -20l-5 -20l4 -14l9 -8l15 -3l20 4l14 12l9 16l4 16l3 18l1 19l1 19v20v24l-22 -9l-22 -3l-20 2l-20 6l-17 11l-16 16l-14 20l-6 14l-6 15l-4 16l-4 19l-3 20l-1 21l-1 24v5v15v17l1 19l1 20l1 20l3 21l3 21l5 20l6 20l7 19l10 17l10 16l13 14l15 12l18 8l20 6
l22 2l16 -1l17 -3l23 -8l15 -9l16 -13zM256 60l4 -21l4 -19l4 -19l4 -18l4 -18l5 -17v-22l-10 -12l-16 -4l-15 5l-11 15l-4 18l-5 20l-5 22l-4 20l-4 19l-5 25l-6 24l-5 23l-7 23l-7 21l-8 18l-10 17l-10 14l-13 11l-14 7l-16 3l-12 3v-19v-19v-19v-19v-20v-19v-19v-19v-19
v-19l-8 -19l-19 -8l-19 8l-8 19v20v19v20v20v20v19v20v20v20v19v20v20v20v19v20v20l-1 30l-3 19l-16 8l-18 10l-6 20l9 17l18 7l26 1h19h19l20 -1l19 -1l19 -3l18 -5l17 -6l15 -9l13 -11l11 -14l8 -17l4 -21l2 -24l-2 -26l-5 -22l-7 -19l-9 -16l-11 -13l-12 -10l-2 -2
l11 -12l10 -14l9 -15l7 -17l7 -18l7 -18l5 -20l5 -20l5 -20zM155 281h1l11 12l8 20l4 30l-3 21l-10 16l-15 10l-18 6l-21 4l-22 1l3 -17l1 -19v-22v-20v-19v-20v-19l13 4l17 1l16 3z" />
    <glyph glyph-name="l_y" unicode="ly" horiz-adv-x="487" 
d="M174 56h42l23 -15l-1 -25l-22 -14h-36l-26 -1h-19h-16h-19h-25h-36l-19 8l-8 20l8 19l19 8l13 6l3 20l1 29v26v25v26v26v26v25v26v26h-1v26v26v25v26v26v26v25v26v26l8 19l20 8l19 -8l8 -19v-26v-26v-25v-26v-26v-26v-25v-26v-26h-1v-26v-26v-25v-26l1 -26v-26v-25v-26
v-30l-3 -25h20h20h27zM458 12v-24v-28l-2 -29l-3 -27l-7 -26l-10 -22l-14 -18l-18 -15l-23 -9l-28 -4l-22 2l-19 7l-17 12l-13 16l-9 19l-3 21l2 23l9 24l16 13l21 -2l13 -16l-2 -20l-5 -21l13 -21l15 -3l27 9l16 23l5 20l3 23l1 24v24v24l-23 -9l-20 -2l-26 2l-22 6l-18 10
l-15 15l-12 19l-8 19l-5 23l-4 26l-1 30l-1 34v26v26v26v26v26v26l-1 30l-3 20l-16 8l-18 10l-6 20l10 18l20 6l28 -7l20 -14l12 -21l6 -20l2 -23v-27v-26v-26v-26v-26v-26v-26l1 -36l2 -30l4 -24l6 -18l16 -17l29 -5l28 12l15 30v23v24v24v23v24v24v23v30v29v26v25l8 19
l19 8l19 -8l8 -19v-25v-26v-29v-30v-23v-24v-24v-23v-24v-24v-27v-28v-27v-25z" />
    <glyph glyph-name="l_g" unicode="lg" horiz-adv-x="500" 
d="M470 411l19 -28l1 -21l-13 -16l-20 -1l-16 13l-18 24l-19 14l-30 6l-22 -4l-18 -12l-13 -18l-11 -23l-7 -26l-5 -28l-3 -28l-1 -28l-1 -25v-22v-4l1 -33l4 -28l6 -23l8 -19l18 -21l21 -6l27 12l9 14l7 20v21v21v21v27v27v26v25v25v23v22l8 19l19 8l19 -8l8 -19v-22v-23
v-25v-25v-26v-27v-27v-21v-21v-25v-29v-28l1 -27v-24v-28l-2 -29l-4 -27l-7 -26l-10 -22l-14 -18l-18 -15l-22 -9l-28 -4l-22 2l-19 7l-17 12l-14 16l-8 19l-3 21l2 23l9 24l16 13l20 -2l14 -16l-2 -20l-5 -21l13 -21l15 -3l27 9l15 23l5 20l3 23l2 24v24v24l-23 -9l-21 -2
l-25 3l-24 10l-20 17l-18 25l-9 19l-7 23l-5 26l-3 29l-1 32v4v20v24l2 25l2 27l4 27l5 27l8 27l10 24l13 22l17 18l20 14l24 9l29 4l25 -2l31 -10l21 -13zM171 56h42l23 -15l-1 -25l-22 -14h-36l-26 -1h-19h-16h-19h-25h-36l-19 8l-8 20l8 19l19 8l13 6l3 20l1 29v24v25v24
v24v25v24v24v25l-1 24v24v25v24v24v25v24v24v25v24l8 19l20 8l19 -8l8 -19v-24v-25v-24v-24v-25v-24v-24v-25v-24v-24v-25v-24v-24v-25v-24v-24v-25v-24v-30l-3 -25h20h20h27z" />
    <glyph glyph-name="k_y" unicode="ky" horiz-adv-x="608" 
d="M257 56l8 -26l11 -31l10 -29l10 -24l10 -21l-2 -21l-17 -12l-21 1l-15 17l-10 25l-10 25l-9 27l-9 27l-9 28l-9 27l-10 26l-10 24l-12 22l-13 19l-14 16l-17 11l-18 6v-24v-23v-24v-24v-24v-23v-24l-8 -19l-19 -8l-19 8l-8 19v26v25v26v25v26v26v25v26v25v26v25v26v26v25
v26v25v26l-1 30l-3 20l-16 8l-18 10l-6 20l10 18l20 5l29 -7l19 -13l13 -21l5 -20l2 -24v-26v-24v-25v-24v-25v-24v-24v-25v-24l14 21l13 22l14 21l14 22l13 21l15 24l5 7l13 18l14 14l18 12l24 6l19 -6l11 -17l-5 -20l-18 -11l-18 -9l-14 -19l-5 -7l-14 -22l-14 -22
l-14 -22l-13 -21l-14 -22l-14 -22l18 -11l16 -15l15 -17l13 -19l11 -21l11 -23l10 -23l9 -25zM574 12v-24v-28l-1 -29l-4 -27l-7 -26l-10 -22l-14 -18l-18 -15l-22 -9l-28 -4l-23 2l-19 7l-17 12l-13 16l-8 19l-4 21l3 23l9 24l16 13l20 -2l13 -16l-2 -20l-5 -21l13 -21
l15 -3l28 9l15 23l5 20l3 23l2 24v24l-1 24l-23 -9l-19 -2l-27 2l-22 6l-18 10l-15 15l-12 19l-8 19l-5 23l-4 26l-1 30l-1 34v26v26v26v26v26v26v30l-3 20l-17 8l-18 10l-6 20l10 18l20 6l29 -7l19 -14l13 -21l5 -20l2 -23v-27v-26v-26v-26v-26v-26v-26l1 -36l2 -30l4 -24
l6 -18l17 -17l29 -5l27 12l15 30v23v24v24v23v24v24v23v30v29v26v25l8 19l19 8l19 -8l8 -19v-25v-26v-29v-30v-23v-24v-24v-23v-24v-24v-27v-28v-27v-25z" />
    <glyph glyph-name="k_g" unicode="kg" horiz-adv-x="573" 
d="M251 56l8 -26l11 -31l10 -29l10 -24l10 -21l-2 -21l-17 -12l-21 1l-15 17l-10 25l-10 25l-9 27l-9 27l-9 28l-9 27l-10 26l-10 24l-12 22l-13 19l-14 16l-17 11l-18 6v-24v-23v-24v-24v-24v-23v-24l-8 -19l-19 -8l-19 8l-8 19v26v25v26v25v26v26v25v26v25v26v25v26v26v25
v26v25v26l-1 30l-3 20l-16 8l-18 10l-6 20l10 18l20 5l29 -7l19 -13l13 -21l5 -20l2 -24v-26v-24v-25v-24v-25v-24v-24v-25v-24l14 21l13 22l14 21l14 22l13 21l15 24l5 7l13 18l14 14l18 12l24 6l19 -6l11 -17l-5 -20l-18 -11l-18 -9l-14 -19l-5 -7l-14 -22l-14 -22
l-14 -22l-13 -21l-14 -22l-14 -22l18 -11l16 -15l15 -17l13 -19l11 -21l11 -23l10 -23l9 -25zM546 411l19 -28l1 -21l-13 -16l-20 -1l-16 13l-18 24l-19 14l-30 6l-22 -4l-18 -12l-14 -18l-10 -23l-7 -26l-5 -28l-3 -28l-1 -28l-1 -25v-22v-4l1 -33l4 -28l6 -23l7 -19
l18 -21l22 -6l27 12l9 14l7 20v21v21v21v27v27v26v25v25v23v22l8 19l19 8l19 -8l8 -19v-22v-23v-25v-25v-26v-27v-27v-21v-21v-25v-29v-28v-27l1 -24v-28l-2 -29l-4 -27l-7 -26l-10 -22l-14 -18l-18 -15l-22 -9l-28 -4l-22 2l-19 7l-17 12l-14 16l-8 19l-3 21l2 23l9 24
l16 13l20 -2l14 -16l-2 -20l-6 -21l14 -21l14 -3l28 9l15 23l5 20l3 23l2 24v24v24l-23 -9l-21 -2l-25 3l-24 10l-20 17l-18 25l-9 19l-7 23l-5 26l-3 29l-1 32v4v20v24l2 25l2 27l3 27l6 27l8 27l10 24l13 22l17 18l20 14l24 9l29 4l25 -2l31 -10l21 -13z" />
    <glyph glyph-name="uniFB00" unicode="ff" horiz-adv-x="504" 
d="M841 -114l2 -19l-2 -22l-5 -21l-9 -20l-9 -15l-12 -13l-13 -12l-16 -11l-15 -7l-16 -6l-18 -5l-20 -4l-21 -2h-20l-20 1l-20 2l-19 3l-19 5l-19 5l-18 5l-18 7l-18 7l-18 8l-18 8l-18 9l-17 9l-18 10l-17 9l-18 10l-17 10l-18 10l-17 10l-5 -19l-6 -18l-7 -19l-7 -18
l-8 -17l-9 -16l-10 -16l-11 -14l-12 -14l-13 -13l-14 -12l-15 -11l-16 -10l-17 -8l-19 -8l-19 -6l-22 -5l-22 -3l-24 -2l-23 1l-22 2l-21 3l-19 6l-17 7l-17 8l-15 10l-13 11l-13 12l-11 13l-9 14l-11 19l-7 21l-5 22l-3 22v22l3 22l6 21l9 21l8 15l10 14l11 14l13 12l14 12
l16 10l18 10l19 7l20 7l23 4l24 3l29 1v19v20v19v20v19v20v19v20v19v19v20v19v20v19v20v19v20v19h-22l-15 -3l-8 -16l-11 -18l-19 -5l-18 10l-6 20l5 22l9 16l13 13l16 8l17 5l18 2l21 1l1 20l2 20l3 20l3 20l5 19l6 19l8 20l9 18l11 17l12 14l15 12l17 9l19 6l21 2l22 -2
l19 -8l16 -11l14 -17l8 -19l4 -21l-3 -23l-9 -23l-16 -13l-20 2l-13 15l1 21l6 20l-4 13l-1 1l-8 8l-16 3l-17 -3l-14 -9l-12 -13l-10 -17l-8 -19l-5 -19l-5 -20l-3 -20l-2 -21l-2 -21h19h18h19h19h19h18h19h19l2 21l2 21l4 21l5 19l7 18l9 18l11 16l13 14l16 11l18 8l21 6
l23 2l22 -2l19 -7l17 -13l13 -15l9 -19l3 -22l-3 -23l-8 -23l-16 -13l-21 2l-13 16l2 20l5 20l-4 13l-9 9l-15 3l-22 -3l-18 -9l-13 -13l-9 -18l-6 -17l-5 -19l-3 -21l-2 -21h21h22h21l19 -8l8 -19l-8 -20l-19 -8h-22h-21h-22v-21v-20v-21l1 -21v-21v-20v-21v-20v-21v-20
v-20v-21v-20v-21v-20v-20l-1 -21l-1 -20l-2 -21l-2 -20l-3 -21l18 -9l17 -10l17 -10l18 -10l19 -11l18 -10l19 -10l18 -9l19 -9l18 -8l19 -8l19 -7l19 -6l19 -5l19 -4l19 -2l20 -2h20l25 3l22 5l18 9l18 13l12 17l7 17l2 18l-3 15l-6 15l-3 20l13 17l20 2l17 -12l8 -18z
M257 -212l8 17l8 19l6 19l6 20l5 21l-19 9l-18 9l-19 8l-19 7l-19 7l-20 5l-19 5l-20 3l-20 2l-20 1l-26 -1l-23 -4l-22 -5l-19 -8l-17 -10l-15 -11l-12 -12l-11 -13l-8 -15l-7 -19l-4 -20l-1 -21l3 -20l6 -19l9 -19l9 -13l12 -12l13 -10l15 -9l17 -7l18 -6l21 -3l23 -1
l24 2l22 3l21 6l19 7l17 8l16 11l15 11l13 13l12 14l10 15zM305 18v19v20v20v21v20v20v20v20v21v20v20v21l-1 21v21v21v21h-21h-22h-21h-21h-21h-22h-21v-20v-19v-20v-19v-20v-19v-20v-19v-20v-20v-19v-20v-19v-20v-19v-20v-19v-23l19 -4l19 -4l18 -5l18 -6l18 -7l17 -7
l18 -8l17 -8l2 19l2 20l1 19z" />
    <glyph glyph-name="uniFB02" unicode="fl" horiz-adv-x="383" 
d="M311 42l-2 -4l16 -9l16 -10l15 -10l14 -11l14 -11l17 -13l15 -11l14 -9l13 -5l18 -2l16 1l25 15l19 8l19 -7l8 -19l-7 -19l-15 -13l-17 -10l-19 -7l-18 -3h-20l-21 3l-16 6l-16 8l-16 10l-16 12l-16 12l-16 13l-17 12l-18 12l-18 9l-18 7l-19 3l-19 9l-6 20l7 17l17 8
l17 8l2 12l1 17v21v20v21v20v21v20v21v20v21v20v21v18v17v18v18l8 19l19 8l19 -8l8 -19v-18v-18v-17v-18v-21v-20v-21v-20v-21v-20v-21v-20v-21v-20v-21l-1 -18l-2 -16zM630 -164l2 -19l-2 -21l-5 -21l-9 -21l-9 -14l-12 -14l-13 -12l-16 -11l-15 -7l-16 -6l-18 -5l-20 -3
l-21 -2h-20l-20 1l-20 2l-19 3l-19 4l-19 5l-18 6l-18 6l-18 7l-18 8l-18 8l-18 9l-17 9l-18 10l-17 9l-18 10l-17 10l-18 10l-17 11l-5 -19l-6 -19l-7 -19l-7 -18l-8 -17l-9 -16l-10 -16l-11 -14l-12 -14l-13 -13l-14 -12l-15 -11l-16 -10l-17 -8l-19 -8l-19 -6l-22 -5
l-22 -3l-24 -2l-23 1l-22 2l-21 3l-19 6l-17 7l-17 8l-15 10l-13 11l-13 12l-11 13l-9 14l-11 19l-7 21l-5 22l-3 22v22l3 22l6 21l9 21l8 15l10 14l11 14l13 12l14 12l16 10l18 10l19 7l20 7l23 4l24 3l25 1l20 -1l20 -1l19 -3l18 -3l19 -5l18 -5l18 -6l18 -7l17 -7l18 -8
l17 -8l2 20l2 19l1 20l1 19v19v18v18v19v20v20v21v21v21v22v21v22v21v20l-1 20v19v18v19v17l-18 -1l-13 -2l-8 -16l-11 -18l-19 -5l-18 10l-6 20l5 22l9 16l13 13l16 8l15 4l17 3h19l2 21l2 21l4 21l5 19l7 19l9 18l11 16l13 14l16 11l18 8l21 6l27 2l19 -2l18 -5l15 -9
l15 -14l9 -14l7 -18l5 -21l2 -31l-9 -19l-19 -7l-19 8l-7 25l-3 26l-8 17l-1 1l-25 9h-2l-22 -3l-18 -9l-13 -13l-9 -18l-6 -17l-5 -19l-3 -21l-2 -21h17h18h17h18l19 -8l8 -19l-8 -20l-19 -8h-18h-18h-17h-18v-17v-19v-18v-19l1 -20v-20v-21v-22v-21v-22v-21v-21v-21v-20
v-20v-19v-19v-18v-20l-1 -20l-1 -20l-2 -21l-2 -21l-3 -21l18 -9l17 -10l17 -10l18 -10l19 -11l18 -10l19 -10l18 -9l19 -9l18 -8l19 -8l19 -7l19 -6l19 -5l19 -4l19 -2l20 -2h20l25 3l22 6l18 8l18 14l12 16l7 17l2 18l-3 16l-6 14l-3 21l13 16l20 3l17 -13l8 -18zM46 -261
l8 17l8 18l6 19l6 20l5 21l-19 9l-18 9l-19 8l-19 8l-19 6l-20 6l-19 4l-20 3l-20 2l-20 1l-26 -1l-23 -4l-22 -5l-19 -8l-17 -9l-15 -11l-12 -12l-11 -14l-8 -14l-7 -20l-4 -20l-1 -21l3 -20l6 -19l9 -19l9 -13l12 -12l13 -10l15 -9l17 -7l18 -6l21 -3l23 -1l24 2l22 3
l21 6l19 7l17 8l16 11l15 11l13 13l12 14l10 16z" />
    <glyph glyph-name=".notdef" horiz-adv-x="100" 
 />
    <glyph glyph-name=".null" horiz-adv-x="0" 
 />
    <glyph glyph-name="nonmarkingreturn" horiz-adv-x="100" 
 />
    <glyph glyph-name="null" horiz-adv-x="0" 
 />
    <glyph glyph-name="null" horiz-adv-x="0" 
 />
    <glyph glyph-name="space" unicode=" " horiz-adv-x="120" 
 />
    <glyph glyph-name="exclam" unicode="!" horiz-adv-x="111" 
d="M77 122l-19 -8l-19 8l-8 19v20v19v20v19v20v20v19v20v20v19v20v19v20v20v19v20v20v19v20v19v20l8 19l19 8l19 -8l8 -19v-20v-19v-20v-19v-20v-20v-19v-20v-20v-19v-20v-19v-20v-20v-19v-20v-20v-19v-20v-19v-20zM87 74l7 -18l-3 -19l-13 -13l-18 -7l-19 4l-14 11l-7 18
l3 19l12 13l19 7l19 -3z" />
    <glyph glyph-name="quotedbl" unicode="&#x22;" horiz-adv-x="197" 
d="M57 554l16 -2l14 -14l6 -21l-1 -19l-2 -19l-5 -14l-9 -15l-12 -13l-14 -10l-16 -6l-2 -1h-3v2l-5 17l-5 18l-1 3h2l1 1h1l14 7l9 14l-10 22l-7 17l7 22zM146 554l16 -2l14 -14l6 -21l-1 -19l-2 -19l-5 -14l-9 -15l-12 -13l-14 -10l-16 -6l-2 -1h-3v2l-5 17l-5 18l-1 3h2
l1 1h1l14 7l9 14l-10 22l-7 17l7 22z" />
    <glyph glyph-name="numbersign" unicode="#" horiz-adv-x="479" 
d="M417 375h19l19 -8l8 -19l-8 -19l-19 -8h-22h-21h-22h-21h-22l-6 -20l-6 -21l-5 -20l-6 -20h17h18h17h18l19 -8l8 -19l-8 -19l-19 -8h-22h-21h-22h-21l-6 -20l-6 -21l-6 -20l-6 -21l-5 -20l-6 -20l-6 -21l-6 -20l-13 -17l-20 -2l-17 13l-2 21l5 18l6 19l5 18l5 19l6 18
l5 19l6 18l5 19h-21h-20l-6 -20l-6 -21l-6 -20l-6 -21l-5 -20l-6 -20l-6 -21l-6 -20l-13 -17l-20 -2l-16 13l-3 21l5 18l6 19l5 18l5 19l6 18l5 19l6 18l5 19h-18h-19h-18h-19h-18l-19 8l-8 19l8 19l19 8h22h21h22h21h22l6 20l5 20l6 21l6 20h-18h-18h-17h-18l-19 8l-8 19
l8 19l19 8h21h22h21h22l5 18l6 19l5 18l5 19l5 18l6 19l5 18l5 19l6 18l5 19l13 17l21 2l16 -13l2 -20l-5 -19l-6 -19l-5 -19l-6 -19l-5 -19l-6 -19l-5 -19l-6 -19l-5 -19h20h21l5 18l6 19l5 18l5 19l5 18l6 19l5 18l5 19l6 18l5 19l13 17l21 2l16 -13l2 -20l-5 -19l-6 -19
l-5 -19l-6 -19l-5 -19l-6 -19l-5 -19l-6 -19l-5 -19h19h18h19h18zM228 240h20l6 20l5 20l6 21l6 20h-20h-20l-6 -20l-6 -21l-5 -20l-6 -20h20z" />
    <glyph glyph-name="dollar" unicode="$" horiz-adv-x="357" 
d="M334 213l4 -24l1 -25l-2 -23l-4 -21l-6 -20l-8 -18l-9 -16l-11 -15l-15 -15l-16 -12l-17 -10l-23 -9l-23 -5v-29l-8 -20l-19 -8l-19 8l-8 20v15v15l-22 5l-20 8l-20 11l-18 14l-13 13l-12 15l-9 16l-8 16l-6 18l-4 18l-2 19v18l9 19l20 7l18 -10l7 -19v-17l3 -17l5 -16
l11 -21l16 -18l14 -10l15 -8l16 -5v19v20v19v20v19v20v19v20v19v20v19v20v19v20l-17 11l-17 12l-15 13l-13 14l-12 15l-9 18l-7 20l-4 22l-1 14l2 20l4 18l8 17l9 14l12 13l18 13l20 10l22 7v20v20l8 19l19 8l19 -8l8 -19v-20v-19l21 -4l19 -8l16 -10l14 -13l12 -14l9 -15
l8 -17l6 -18l5 -19l-4 -21l-17 -11l-21 4l-11 17l-6 22l-9 19l-11 16l-14 10l-17 7v-21v-21v-21v-21v-20v-21v-21v-21l17 -10l16 -11l16 -12l16 -12l15 -13l13 -14l12 -16l10 -18l8 -19zM115 493l-5 -33l5 -19l8 -17l13 -15l15 -14v19v18v19v18v19v18v19l-23 -14zM244 73
l14 14l10 14l8 17l5 20l3 22v25l-4 21l-7 20l-10 17l-12 15l-14 14l-15 12l-17 12v-20v-20v-20v-20v-20v-21v-20v-20v-20v-20v-20v-20l22 8z" />
    <glyph glyph-name="percent" unicode="%" horiz-adv-x="367" 
d="M300 578l21 -1l13 -15l-1 -21l-9 -18l-8 -18l-9 -18l-8 -18l-9 -18l-9 -18l-8 -18l-9 -18l-9 -18l-8 -18l-9 -18l-8 -18l-9 -18l-9 -18l-8 -18l-9 -18l-9 -18l-8 -18l-9 -18l-8 -18l-9 -18l-9 -18l-8 -18l-9 -18l-9 -18l-8 -18l-9 -18l-8 -18l-9 -18l-16 -14l-20 1
l-14 15l1 21l9 18l8 18l9 18l9 18l8 18l9 18l9 18l8 18l9 18l9 18l8 18l9 18l9 18l8 18l9 19l8 18l9 18l9 18l8 18l9 18l9 18l8 18l9 18l9 18l8 18l9 18l9 18l8 18l9 18zM112 287l-21 -2l-20 3l-16 8l-14 12l-12 16l-8 20l-6 21l-4 24l-1 25l1 25l5 24l7 22l9 19l12 16
l14 12l17 8l19 3l21 -3l18 -8l16 -12l12 -16l10 -19l7 -22l3 -16l2 -17v-17l-1 -18l-2 -17l-4 -16l-7 -21l-10 -19l-13 -15l-16 -12zM65 432l-1 -19l1 -19l2 -18l10 -26l15 -11l14 5l10 13l8 20l4 18l1 18l-1 19l-3 18l-7 20l-10 14l-14 5l-15 -11l-10 -27zM345 240l7 -22
l3 -16l2 -17v-17l-1 -17l-2 -17l-3 -16l-8 -21l-10 -19l-13 -16l-16 -12l-18 -8l-21 -2l-20 3l-16 8l-14 13l-12 16l-8 19l-6 21l-4 24l-1 25l1 17l2 17l3 16l7 22l9 19l12 16l15 12l17 8l19 3l21 -3l18 -8l15 -13l12 -16zM291 112l8 20l3 18l2 19l-1 18l-3 18l-7 20l-11 15
l-13 5l-16 -11l-10 -28l-4 -19l-1 -18l1 -19l3 -19l9 -26l15 -11l14 5z" />
    <glyph glyph-name="ampersand" unicode="&#x26;" horiz-adv-x="407" 
d="M355 264l14 -17l11 -19l7 -20l4 -20l1 -20l-2 -19l-5 -19l-7 -18l-10 -18l-12 -16l-14 -16l-16 -14l-15 -11l-17 -10l-18 -9l-20 -6l-21 -5l-22 -3h-23l-24 2l-22 4l-20 5l-19 8l-16 9l-15 11l-14 12l-11 14l-10 14l-9 19l-7 19l-5 20l-1 21l1 21l4 21l6 21l8 21l9 17
l11 17l13 15l15 15l17 14l18 13l21 11l-16 14l-14 16l-11 18l-8 18l-5 19l-2 19l1 20l3 19l7 18l8 15l10 14l13 13l15 11l18 9l20 6l22 5l34 1l19 -2l19 -4l18 -6l16 -9l15 -13l12 -16l7 -19l3 -26l-9 -19l-19 -7l-19 9l-7 19v2l-14 25l-20 9l-30 4l-25 -3l-20 -6l-16 -9
l-13 -11l-8 -14l-5 -16l-1 -17l3 -17l6 -16l10 -15l14 -13l17 -10l21 -6l24 -1l20 -7l9 -18l-7 -19l-16 -9l-23 -4l-22 -7l-20 -7l-18 -9l-16 -10l-15 -11l-13 -12l-11 -13l-9 -14l-8 -14l-7 -19l-5 -20l-1 -20l2 -19l4 -17l8 -17l10 -14l14 -13l16 -10l19 -8l22 -5l25 -3
l24 1l22 4l21 7l18 9l17 12l15 14l12 15l9 17l6 17l3 17l-2 20l-7 20l-13 17l-14 12l-16 10l-20 9l-24 8l-17 12l-3 21l10 14l16 6l24 4l20 7l16 8l12 10l9 11l5 14l-3 10l-14 10l-28 4l-19 8l-8 19l8 19l19 8l24 -1l21 -5l17 -8l14 -11l11 -13l9 -19l3 -22l-3 -21l-9 -20
l-12 -16l-16 -15l-20 -13l14 -11z" />
    <glyph glyph-name="quotesingle" unicode="'" horiz-adv-x="107" 
d="M57 554l16 -2l14 -14l6 -21l-1 -19l-2 -19l-5 -14l-9 -15l-12 -13l-14 -10l-16 -6l-2 -1h-3v2l-5 17l-5 18l-1 3h2l1 1h1l14 7l9 14l-10 22l-7 17l7 22z" />
    <glyph glyph-name="parenleft" unicode="(" horiz-adv-x="203" 
d="M174 29l14 -15l1 -20l-15 -15l-20 -1l-18 8l-16 10l-16 11l-14 13l-14 13l-12 15l-11 16l-10 17l-9 18l-8 18l-6 19l-6 19l-4 20l-4 20l-3 21l-2 21l-1 21v21l1 22l2 21l2 21l4 21l4 20l5 20l6 20l6 20l8 19l8 18l10 19l11 18l11 17l13 15l13 15l14 14l15 12l16 11l20 4
l17 -12l4 -20l-12 -17l-14 -10l-14 -12l-12 -13l-12 -15l-11 -15l-11 -17l-9 -18l-8 -18l-8 -19l-6 -19l-6 -20l-4 -21l-4 -21l-2 -21l-2 -21l-1 -21v-21l1 -20l2 -21l4 -19l4 -20l5 -18l6 -19l7 -17l9 -17l11 -17l11 -15l13 -13l15 -12l15 -10z" />
    <glyph glyph-name="parenright" unicode=")" horiz-adv-x="214" 
d="M34 554l-14 15l-1 20l15 15l20 1l18 -8l16 -10l16 -11l14 -13l14 -13l12 -15l11 -16l10 -17l9 -18l8 -18l6 -19l6 -19l4 -20l4 -20l3 -21l2 -21l1 -21v-21l-1 -22l-2 -21l-2 -21l-4 -21l-4 -20l-5 -20l-6 -20l-6 -20l-8 -19l-8 -18l-10 -19l-11 -18l-11 -17l-13 -16
l-13 -14l-14 -14l-15 -12l-16 -11l-20 -4l-17 12l-4 20l12 17l14 10l14 12l12 13l12 15l11 15l11 17l9 18l8 18l8 19l6 19l5 20l5 21l4 21l2 21l2 21l1 21v21l-1 20l-2 21l-4 19l-4 20l-5 18l-6 19l-7 17l-9 17l-11 17l-11 15l-13 13l-15 12l-15 10z" />
    <glyph glyph-name="asterisk" unicode="*" horiz-adv-x="248" 
d="M219 479l19 -19l-19 -18h-17h-16h-17l17 -17l18 -17v-26l-26 -1l-12 12l-12 12l-12 12v-17v-16v-17l-18 -18l-19 18v17v16v17l-12 -12l-12 -12l-12 -12l-26 1l1 26l17 17l17 17h-17h-16h-17l-18 18l18 19h17h16h17l-17 17l-17 17l-1 26h26l12 -12l12 -11l12 -12v24v25
l19 18l18 -18v-25v-24l12 12l12 11l12 12h26v-26l-18 -17l-17 -17h17h16h17z" />
    <glyph glyph-name="plus" unicode="+" horiz-adv-x="278" 
d="M240 300l19 -8l8 -19l-8 -19l-19 -8h-19h-18h-19h-18v-18v-18v-18v-18l-8 -19l-19 -8l-19 8l-8 19v18v18v18v18h-19h-19h-18h-19l-19 8l-8 19l8 19l19 8h19h18h19h19v18v18v18v18l8 19l19 8l19 -8l8 -19v-18v-18v-18v-18h18h19h18h19z" />
    <glyph glyph-name="comma" unicode="," horiz-adv-x="105" 
d="M88 47l-1 -19l-2 -19l-5 -14l-9 -15l-12 -13l-14 -10l-16 -6l-2 -1h-3v2l-5 18l-5 18l-1 2l2 1h1h1l14 8l13 25l-14 10l-7 17l7 23l22 10l16 -2l14 -14z" />
    <glyph glyph-name="hyphen" unicode="-" horiz-adv-x="251" 
d="M210 300l19 -8l8 -19l-8 -19l-19 -8h-19h-19h-19h-19h-19h-19h-19h-19h-19l-19 8l-8 19l8 19l19 8h19h19h19h19h19h19h19h19h19z" />
    <glyph glyph-name="period" unicode="." horiz-adv-x="95" 
d="M84 56l-3 -19l-13 -13l-18 -7l-19 4l-14 11l-7 18l3 19l12 13l19 7l19 -3l14 -12z" />
    <glyph glyph-name="slash" unicode="/" horiz-adv-x="234" 
d="M206 579l16 -14l2 -20l-6 -19l-6 -20l-6 -19l-6 -19l-6 -20l-6 -19l-6 -20l-6 -19l-6 -19l-6 -20l-6 -19l-6 -19l-6 -20l-5 -19l-6 -20l-6 -19l-6 -19l-6 -20l-6 -19l-6 -19l-6 -20l-6 -19l-6 -20l-6 -19l-6 -19l-6 -20l-6 -19l-14 -16l-20 -2l-16 14l-2 20l6 19l6 20
l6 19l6 19l6 20l6 19l6 20l6 19l6 19l6 20l6 19l6 19l6 20l6 19l6 20l6 19l6 19l6 20l6 19l6 19l6 20l6 19l6 20l6 19l6 19l6 20l6 19l13 16z" />
    <glyph glyph-name="zero" unicode="0" horiz-adv-x="398" 
d="M354 415l6 -21l4 -18l3 -19l3 -19l2 -19l1 -20v-19l-1 -19l-1 -19l-3 -19l-3 -19l-3 -19l-5 -18l-7 -21l-7 -20l-9 -19l-10 -18l-11 -17l-12 -15l-13 -13l-14 -12l-16 -10l-16 -7l-18 -6l-18 -3l-20 -1l-20 2l-18 5l-17 7l-15 10l-14 12l-13 14l-12 15l-10 18l-10 19
l-8 20l-6 21l-6 23l-4 18l-3 18l-2 18l-1 19l-1 20v19l1 19l1 19l2 19l3 19l3 18l4 18l6 23l8 22l9 21l10 19l11 17l12 16l13 14l15 12l16 9l17 7l18 5l19 1l20 -1l18 -4l18 -6l16 -8l15 -10l14 -13l13 -13l11 -16l11 -17l9 -18l8 -19zM318 261l1 20v20l-2 21l-2 20l-3 20
l-4 19l-6 23l-9 22l-9 19l-11 18l-13 15l-14 12l-16 9l-17 6l-19 2l-16 -2l-15 -6l-13 -9l-13 -12l-11 -15l-10 -17l-9 -20l-8 -21l-6 -23l-4 -19l-4 -20l-2 -20l-2 -21l-1 -20v-20l1 -21l2 -20l2 -20l4 -19l6 -25l9 -23l9 -20l12 -18l13 -15l15 -12l16 -7l18 -3l19 2l17 5
l17 9l14 12l13 15l12 17l10 19l9 21l7 23l5 19l4 19l2 20z" />
    <glyph glyph-name="one" unicode="1" horiz-adv-x="189" 
d="M124 561l19 -8l8 -19v-20v-20v-20v-21v-20v-20v-20v-20v-20v-21v-20v-20v-20v-20v-20v-21v-20v-20v-20v-20v-20v-21v-20v-20v-20l-8 -19l-19 -8l-19 8l-8 19v20v20v20v19v20v20v20v20v20v20v20v19v20v20v20v20v20v20v20v19v20v20v20v20l-17 -1l-13 -3l-8 -11l-8 -19
l-19 -7l-19 8l-8 19l4 23l8 18l14 12l19 9l16 3l17 2l19 1h20h2z" />
    <glyph glyph-name="two" unicode="2" horiz-adv-x="397" 
d="M348 51l19 -9l7 -20l-4 -27l-6 -18l-8 -18l-11 -16l-14 -15l-16 -12l-19 -10l-21 -5l-23 -1l-26 4l-16 5l-16 8l-16 10l-16 12l-16 12l-17 13l-18 13l-18 11l-18 10l-19 7l-19 3l-19 9l-6 19l11 20l11 9l12 9l12 11l13 12l14 12l13 14l14 14l15 15l14 16l14 16l14 17
l13 18l13 17l13 18l13 19l12 19l11 20l9 19l8 19l7 18l5 18l3 18l1 17l-3 27l-7 21l-11 17l-14 11l-15 7l-17 3l-18 -1l-17 -5l-19 -10l-15 -14l-12 -19l-7 -23l-11 -18l-20 -5l-17 11l-5 20l5 22l8 21l11 18l13 15l15 13l16 11l18 8l19 6l20 4h19l20 -3l19 -6l18 -9l15 -10
l13 -13l11 -15l9 -18l7 -20l5 -22l1 -25l-1 -17l-3 -17l-3 -18l-6 -18l-6 -18l-7 -18l-9 -18l-9 -18l-11 -18l-11 -18l-12 -18l-12 -17l-12 -17l-13 -17l-13 -16l-14 -16l-13 -15l-14 -15l-13 -14l-14 -13l-13 -13l-13 -13l-12 -11l18 -9l16 -10l16 -11l16 -11l15 -12
l17 -13l16 -11l15 -9l13 -5l15 -2l23 3l18 11l14 18l9 22l2 17l9 19z" />
    <glyph glyph-name="three" unicode="3" horiz-adv-x="346" 
d="M26 123l5 20l18 11l20 -5l11 -17l5 -19l10 -16l13 -13l19 -11l21 -7l23 -2l23 3l20 7l17 11l14 14l10 16l8 22l4 24l-2 24l-8 24l-8 16l-11 14l-14 14l-17 11l-19 9l-23 7l-25 4l-18 9l-6 20l9 18l18 7l22 2l20 7l18 10l15 13l12 15l10 17l6 18l3 19l-1 17l-5 15l-8 12
l-11 10l-16 8l-19 5l-24 1l-20 -3l-20 -7l-18 -11l-13 -14l-9 -17l-5 -20l-11 -18l-20 -5l-18 11l-5 20l5 21l7 18l10 17l11 15l13 13l16 12l18 9l19 7l20 4l19 2l24 -1l22 -3l19 -6l17 -8l15 -10l13 -11l10 -13l8 -14l7 -19l3 -19l1 -20l-2 -19l-5 -20l-7 -19l-10 -19
l-13 -18l-15 -16l-18 -14l17 -11l15 -12l13 -13l12 -15l9 -15l8 -16l6 -17l5 -18l2 -18v-18l-1 -18l-3 -17l-5 -17l-7 -16l-10 -17l-11 -15l-14 -14l-16 -12l-17 -10l-20 -7l-22 -4l-23 -2l-20 1l-21 4l-19 6l-19 9l-17 11l-14 12l-12 15l-10 16l-8 19z" />
    <glyph glyph-name="four" unicode="4" horiz-adv-x="329" 
d="M268 228h19l19 -8l8 -19l-8 -19l-19 -8h-19h-18v-21v-20v-21v-20v-21v-20v-21l-8 -19l-19 -8l-19 8l-8 19v21v20v21v20v21v20v21h-20h-20h-20h-21h-20h-20h-20l-28 1l-16 13l-2 21l2 7l4 10l5 13l6 15l7 17l7 18l9 19l9 21l10 21l10 22l10 21l11 21l11 21l11 20l14 24
l14 21l15 19l14 16l14 12l14 9l17 5l19 -8l8 -19v-20v-21v-20v-21v-20v-20v-21v-20v-21v-20v-20v-21v-20v-21v-20h18zM176 228h20v21v20v21v20v21v20v21v21v20v21v20v21l-8 -14l-10 -16l-10 -17l-10 -18l-10 -19l-10 -20l-10 -19l-9 -20l-9 -20l-9 -19l-8 -18l-7 -17l-6 -16
l-6 -14h20h21h20h20h21z" />
    <glyph glyph-name="five" unicode="5" horiz-adv-x="347" 
d="M22 123l5 20l18 11l20 -5l11 -17l5 -19l10 -16l13 -13l19 -11l21 -7l23 -2l21 2l19 7l16 9l15 13l11 16l9 17l5 16l3 16l1 17l-3 24l-9 24l-8 12l-9 12l-11 11l-14 9l-15 9l-18 7l-19 6l-23 4l-24 3h-27l-20 8l-8 19l3 28l2 20l1 19l2 21l2 20l2 19l2 19l2 18l3 19l2 20
l8 17l18 6v1h21h20h21h21h1h21l20 -2l18 -3l16 -5l19 -11l13 -14l8 -18l1 -24l-8 -19l-20 -7l-19 9l-7 20l-8 14l-14 4l-17 2h-21l-23 -1h-19h-20l-2 -18l-2 -17l-2 -18l-1 -18l-2 -19l-2 -20l-2 -18l-1 -17l26 -3l25 -4l22 -6l21 -7l18 -9l17 -9l15 -11l13 -12l12 -13
l10 -14l8 -14l8 -18l5 -18l4 -18l1 -18v-18l-3 -18l-4 -17l-6 -17l-9 -18l-10 -17l-13 -15l-14 -14l-16 -11l-17 -10l-19 -7l-21 -4l-22 -2l-20 1l-21 4l-19 6l-19 9l-17 11l-14 12l-12 15l-10 16l-8 19z" />
    <glyph glyph-name="six" unicode="6" horiz-adv-x="325" 
d="M258 554h20l18 -9l7 -20l-9 -19l-19 -6h-19l-17 -3l-18 -6l-16 -8l-16 -10l-14 -12l-14 -14l-13 -16l-12 -17l-11 -18l-10 -20l-9 -20l-8 -21l-6 -18l-5 -18l-5 -18l-3 -19l22 16l22 11l20 7l19 4l15 1h1l21 -1l19 -4l17 -7l15 -10l12 -13l11 -15l9 -16l6 -18l5 -19
l2 -20l-1 -20l-2 -20l-5 -20l-6 -17l-8 -17l-10 -15l-12 -15l-13 -12l-16 -11l-17 -8l-20 -7l-21 -3l-23 -1l-21 3l-20 7l-17 9l-14 13l-13 15l-11 18l-9 20l-7 20l-5 21l-3 22l-1 10l-1 24v25l2 19l2 19l3 19l4 20l5 19l6 19l6 19l8 21l9 20l9 20l11 19l12 18l12 17l13 16
l14 14l16 13l15 12l17 10l18 8l18 7l19 4zM148 241l-19 -9l-15 -10l-14 -15l-13 -19l-12 -24l4 -25l7 -23l9 -18l12 -15l14 -10l17 -6l21 -1l23 5l19 11l15 15l11 17l8 20l4 21l2 21l-3 19l-6 18l-12 18l-17 12l-22 4h-1l-15 -1z" />
    <glyph glyph-name="seven" unicode="7" horiz-adv-x="303" 
d="M280 547l14 -15v-21l-8 -19l-8 -18l-8 -19l-8 -18l-8 -19l-8 -19l-9 -18l-8 -19l-8 -19l-8 -18l-8 -19l-8 -18l-8 -19l-8 -19l-8 -18l-8 -19l-8 -18l-8 -19l-8 -19l-9 -18l-8 -19l-8 -19l-8 -18l-8 -19l-8 -18l-8 -19l-15 -14h-21l-14 15v21l8 19l8 18l8 19l8 18l8 19
l8 19l9 18l8 19l8 19l8 18l8 19l8 18l8 19l8 19l8 18l8 19l8 19l8 18l9 19l8 18l8 19l8 19l8 18l8 19h-20h-19l-20 1h-19l-22 1l-19 -1l-14 -3l-6 -11l-8 -19l-18 -8l-19 8l-8 19l3 24l8 18l13 12l18 9l16 3l17 2h19h21h20l19 -1h20h20l19 -1h20z" />
    <glyph glyph-name="eight" unicode="8" horiz-adv-x="334" 
d="M222 325l-14 -14l14 -14l14 -15l14 -15l13 -15l11 -15l10 -16l9 -17l6 -17l4 -17l2 -19l-1 -19l-5 -21l-7 -20l-11 -19l-13 -17l-16 -14l-17 -11l-18 -10l-21 -6l-22 -4l-23 -1l-16 2l-19 5l-20 9l-19 11l-19 14l-12 13l-11 14l-7 17l-5 18l-2 20l2 20l3 18l6 18l8 18
l10 16l11 16l12 16l13 15l14 14l15 15l15 14l-15 16l-13 15l-12 17l-10 16l-9 18l-5 18l-3 19v19l4 23l8 20l12 17l15 14l15 11l17 7l17 5l18 3l22 -1l18 -3l18 -7l16 -10l15 -12l12 -15l9 -18l5 -20l1 -22l-1 -5l-3 -18l-6 -17l-7 -16l-10 -16l-11 -15l-12 -15zM123 467
l-6 -21l1 -16l4 -16l8 -17l11 -16l13 -16l15 -16l15 16l14 15l12 16l10 15l7 16l4 16v2v1l-3 19l-9 15l-16 11l-21 5l-24 -3l-22 -11zM245 118l6 21v17l-4 17l-8 17l-10 17l-13 17l-15 17l-16 16l-16 17l-16 -15l-15 -15l-14 -16l-14 -15l-11 -16l-10 -16l-8 -16l-4 -17
l-2 -17l5 -23l15 -18l20 -14l20 -9l18 -4l19 1l17 4l16 6l14 9l15 16z" />
    <glyph glyph-name="nine" unicode="9" horiz-adv-x="325" 
d="M303 406l1 -10l2 -24l-1 -25l-1 -19l-3 -19l-3 -20l-4 -19l-4 -19l-6 -19l-6 -19l-8 -21l-9 -20l-10 -20l-11 -19l-11 -18l-13 -17l-13 -16l-14 -15l-15 -13l-16 -11l-17 -10l-18 -8l-18 -7l-19 -4l-20 -2h-20l-19 9l-6 20l9 18l20 7h19l17 3l17 6l17 8l15 10l15 12
l14 14l13 16l12 17l11 18l10 20l9 20l8 21l6 18l5 18l4 18l4 19l-23 -17l-22 -10l-20 -7l-19 -4l-16 -1l-21 1l-19 4l-17 7l-14 10l-13 12l-11 15l-8 17l-7 18l-4 19l-2 20v20l2 20l5 20l6 17l8 17l10 15l12 15l14 12l15 11l18 8l19 7l21 3l23 1l21 -3l20 -7l17 -9l15 -13
l13 -15l11 -18l9 -20l6 -20l5 -21zM176 325l20 9l14 10l14 15l14 19l12 24l-4 25l-7 22l-9 18l-12 15l-14 11l-18 6l-20 1l-23 -6l-19 -10l-15 -15l-12 -17l-8 -20l-4 -21l-1 -21l2 -19l6 -19l12 -18l17 -12l23 -3l14 1z" />
    <glyph glyph-name="colon" unicode=":" horiz-adv-x="102" 
d="M73 261l-18 -7l-19 4l-14 11l-7 18l3 19l12 13l19 7l19 -3l14 -12l7 -18l-3 -18zM30 197l19 7l19 -4l14 -11l7 -18l-3 -19l-13 -13l-18 -7l-19 3l-14 12l-7 18l3 19z" />
    <glyph glyph-name="semicolon" unicode=";" horiz-adv-x="98" 
d="M72 261l-18 -7l-19 4l-14 11l-7 18l3 19l12 13l19 7l19 -3l14 -12l7 -18l-3 -18zM65 206l14 -14l6 -22l-1 -19l-2 -18l-5 -14l-9 -15l-12 -13l-14 -10l-16 -6v-1h-2l-3 -1v3l-5 17l-5 18l-1 2l2 1h1l1 1l14 7l13 26l-14 9l-7 18l7 22l22 11z" />
    <glyph glyph-name="less" unicode="&#x3c;" horiz-adv-x="235" 
d="M208 177l7 -19l-7 -19l-19 -8l-19 7l-14 14l-14 13l-14 14l-14 14l-14 13l-14 14l-14 14l-14 14l-14 13l-14 14l-8 19l8 19l14 14l14 14l13 13l14 14l14 14l14 14l14 14l13 13l14 14l14 14l19 8l19 -8l8 -19l-8 -19l-15 -15l-15 -15l-15 -14l-15 -15l-14 -15l-15 -15
l-15 -14l-15 -15l15 -15l15 -15l15 -14l15 -15l16 -15l15 -15l15 -14z" />
    <glyph glyph-name="equal" unicode="=" horiz-adv-x="256" 
d="M63 251h-19l-19 8l-8 19l8 19l19 8h19h19h19h19h19h19h19h19h19l19 -8l8 -19l-8 -19l-19 -8h-19h-19h-19h-19h-19h-19h-19h-19zM196 220h19l19 -8l8 -19l-8 -19l-19 -8h-19h-19h-19h-19h-19h-19h-19h-19h-19l-19 8l-8 19l8 19l19 8h19h19h19h19h19h19h19h19z" />
    <glyph glyph-name="greater" unicode="&#x3e;" horiz-adv-x="229" 
d="M150 295l-15 15l-15 14l-15 15l-16 15l-15 15l-15 14l-15 15l-15 15l-8 19l8 19l19 8l19 -7l14 -14l14 -13l14 -14l14 -14l14 -14l14 -13l14 -14l14 -14l14 -13l14 -14l8 -19l-8 -19l-14 -14l-14 -14l-13 -13l-14 -14l-14 -14l-14 -14l-14 -14l-13 -13l-14 -14l-14 -14
l-19 -8l-19 8l-8 19l8 19l15 15l15 14l15 15l14 15l15 15l15 14l15 15z" />
    <glyph glyph-name="question" unicode="?" horiz-adv-x="317" 
d="M306 466v-5v-26l-3 -23l-5 -19l-8 -18l-9 -15l-10 -15l-12 -13l-12 -14l-10 -11l-10 -11l-10 -13l-9 -14l-9 -16l-8 -18l-6 -20l-5 -24l-4 -28l-1 -31l-8 -18l-20 -8l-18 8l-8 19l1 31l3 28l4 25l6 22l7 20l8 18l8 16l10 15l9 13l10 12l10 11l10 11l13 14l11 14l9 14
l7 17l5 20v24v3l-5 21l-11 17l-14 13l-19 9l-22 5l-28 1l-24 -5l-20 -8l-15 -11l-11 -14l-8 -15l-4 -28l5 -23l20 -17l14 5l4 10l8 18l19 8l19 -8l8 -19l-3 -18l-7 -16l-11 -14l-14 -10l-16 -7l-18 -3h-1l-19 2l-17 6l-15 11l-12 14l-9 17l-7 21l-2 22l2 23l5 24l7 16l9 15
l12 14l14 13l17 11l19 9l22 7l31 4h20l21 -2l19 -5l19 -7l17 -10l14 -10l13 -13l10 -14l9 -16l6 -18zM126 82l18 7l19 -3l14 -12l7 -18l-3 -19l-12 -13l-19 -7l-19 4l-14 11l-7 18l4 19z" />
    <glyph glyph-name="at" unicode="@" horiz-adv-x="414" 
d="M366 122l20 -4l11 -18l-4 -20l-14 -17l-17 -15l-18 -13l-20 -11l-17 -7l-18 -6l-18 -4l-19 -2l-18 -1l-25 1l-23 3l-22 6l-20 7l-19 9l-18 10l-15 12l-15 13l-13 15l-11 15l-10 17l-8 17l-6 17l-6 18l-3 18l-2 18l-1 19l1 18l2 18l3 18l5 18l6 17l7 16l9 16l9 15l12 14
l12 13l14 12l15 11l17 10l17 8l20 7l20 5l22 3l23 2l24 -1l22 -3l20 -6l18 -8l17 -11l14 -12l12 -13l11 -15l9 -17l7 -17l6 -18l4 -20l2 -19l1 -19l-1 -19l-3 -19l-3 -18l-5 -17l-9 -22l-11 -19l-13 -17l-15 -13l-17 -10l-19 -6l-20 -1l-16 4l-17 9l-12 14l-15 -13l-18 -9
l-20 -6l-20 1l-20 8l-16 14l-8 13l-6 15l-4 19l-1 21l2 24l5 27l7 25l9 21l10 18l10 16l12 12l12 9l12 7l21 6l21 -1l14 -6l12 -9l5 13l14 16h23l-18 10l-22 6l-26 2l-25 -2l-23 -5l-20 -7l-19 -10l-16 -12l-15 -13l-12 -15l-10 -16l-8 -18l-6 -17l-4 -17l-2 -17l-1 -18
l1 -17l3 -18l4 -17l6 -17l8 -17l11 -16l12 -14l15 -13l16 -11l19 -9l21 -6l22 -5l25 -1l22 2l23 5l22 8l18 10l16 13l14 15zM184 154l1 1l11 8l12 13l10 18l8 24l3 16l3 17l-2 28l-20 21l-11 -8l-11 -14l-10 -21l-9 -28l-5 -26l-1 -21l2 -15zM340 300l-6 18l-10 22l-16 20
l4 -26l-4 -12l-6 -16l-6 -19l-6 -22l-5 -24l-2 -16l-4 -17l-1 -13v-19l2 -15l6 -7l15 3l13 11l11 16l9 21l5 18l4 19l1 19l-1 20z" />
    <glyph glyph-name="A" unicode="A" horiz-adv-x="750" 
d="M736 604l-18 -9l-20 -4l-19 -5l-18 -8v-20v-19v-20v-19v-20v-20v-19l-1 -20v-19v-20v-20v-19v-20v-19v-20l16 2l17 3l21 -3l12 -17l-4 -21l-17 -11l-23 -5l-22 -2v-20v-20v-20v-20v-20v-20v-21l1 -17l3 -12l16 -8l18 -10l6 -20l-10 -18l-20 -6l-22 5l-17 8l-12 13l-9 16
l-5 15l-2 17l-1 18v20v20v20v20v20v20v20l-21 2l-21 4l-20 4l-20 5l-20 5l-20 5l-5 -19l-5 -18l-4 -19l-5 -18l-4 -19l-5 -19l-5 -20l-5 -19l-4 -18l-5 -18l-5 -18l-7 -22l-7 -21l-8 -20l-9 -19l-9 -17l-9 -17l-11 -15l-10 -14l-11 -13l-12 -12l-16 -15l-16 -13l-17 -11
l-17 -9l-18 -7l-17 -6l-18 -4l-18 -3l-17 -1h-13l-22 2l-21 5l-20 7l-19 9l-17 10l-16 13l-14 15l-12 17l-10 18l-8 19l-5 22l-2 22v12l2 20l5 19l7 19l9 17l12 16l13 14l15 12l16 9l18 8l19 4l20 -5l11 -17l-5 -20l-18 -11l-18 -5l-16 -10l-13 -13l-12 -18l-8 -20l-3 -30
l3 -22l6 -20l11 -17l14 -15l17 -13l19 -9l22 -7l32 -3l17 1l17 4l17 5l17 7l17 10l16 12l16 14l12 13l12 14l11 16l10 17l10 19l9 21l8 23l7 24l5 17l5 18l4 18l5 19l4 19l5 19l5 19l5 19l4 18l5 19l5 19l-20 5l-20 5l-19 4l-19 2l-18 1l-20 -2l-20 -5l-19 -7l-17 -11
l-15 -15l-11 -18l-4 -21l1 -18l5 -16l10 -16l14 -13l19 -11l23 -9l17 -13l2 -20l-12 -17l-21 -2l-21 7l-19 9l-16 10l-15 12l-12 13l-12 16l-8 17l-6 18l-3 18v19l4 22l7 21l11 18l13 17l16 14l16 11l17 9l18 7l19 5l19 4l20 1l18 -1l18 -2l18 -3l19 -4l18 -4l19 -5l6 21
l7 22l7 20l7 21l8 20l8 20l8 19l9 18l10 18l10 17l10 17l11 15l12 15l12 13l13 13l14 12l14 10l18 11l18 9l21 7l21 6l23 3l19 -6l10 -18zM589 287l18 -2v19v20v19v19v20v19v19v19v20v19v19v20v19l-11 -13l-11 -14l-9 -15l-10 -16l-9 -16l-9 -18l-8 -18l-8 -18l-7 -20
l-7 -19l-7 -21l-7 -20l-6 -21l18 -5l18 -4l18 -5l18 -3z" />
    <glyph glyph-name="B" unicode="B" horiz-adv-x="569" 
d="M529 235l8 -18l7 -20l4 -20l3 -20v-21l-1 -21l-3 -20l-4 -21l-7 -19l-8 -20l-10 -18l-10 -15l-11 -15l-12 -14l-13 -13l-15 -12l-15 -11l-17 -9l-17 -9l-19 -7l-20 -6l-21 -4l-22 -3l-23 -1h-10h-1l-19 1l-19 3l-19 5l-18 5l-17 7l-17 8l-15 10l-15 11l-14 13l-12 14
l-11 15l-10 17l-7 18l-5 19l-4 21l-1 32l2 22l5 21l7 21l10 19l12 18l13 15l16 13l17 11l19 8l21 5l20 -4l11 -18l-5 -20l-17 -11l-21 -6l-17 -11l-15 -15l-10 -15l-7 -17l-5 -19l-2 -26l1 -21l5 -19l6 -17l9 -16l11 -14l12 -12l15 -11l17 -8l17 -7l19 -6l19 -3l29 -2l23 1
l22 4l21 5l19 7l18 9l16 11l15 12l13 13l12 15l10 15l9 18l8 19l5 20l3 20l1 19l-2 20l-3 19l-6 18l-7 15l-9 15l-11 13l-13 13l-15 11l-16 10l-19 8l-20 7l-23 5l-16 8l-7 17l6 20l19 9l21 3l19 6l16 8l15 12l12 13l10 15l8 17l5 16l3 17v17l-2 17l-4 16l-7 16l-8 13
l-11 11l-13 11l-14 10l-18 8l-19 6l-22 4l-24 3h-27l-25 -2l-23 -3l-21 -5l-21 -6l-18 -6l-17 -8l-16 -9l-14 -10l-1 -1l-17 -14l-14 -16l-11 -16l-9 -17l-7 -17l-4 -16l-2 -17v-4l2 -21l5 -18l9 -16l12 -11l14 -8l18 -3h2l26 7l9 19l-12 16l-10 19l5 19l18 10l20 -5l15 -14
l10 -15l6 -15l3 -23l-6 -22l-11 -18l-16 -15l-17 -10l-20 -5l-21 -2h-3h-1l-21 2l-19 6l-17 9l-14 12l-13 14l-10 15l-8 17l-5 18l-3 19l-1 25v1l2 18l4 17l5 18l8 18l9 18l11 17l13 17l16 15l19 16l13 10l15 9l16 8l16 8l18 6l19 6l20 5l22 4l22 2l24 2h26l25 -2l22 -3
l21 -5l20 -7l17 -8l17 -9l14 -10l13 -11l12 -12l10 -13l8 -14l8 -17l6 -18l4 -18l2 -19v-19l-1 -18l-4 -18l-6 -18l-9 -19l-11 -18l-13 -16l-15 -15l-17 -13l19 -11l17 -13l16 -14l13 -15l12 -16zM304 5l-19 -8l-19 8l-8 19v20v20v19v20v20v20v19v20v20v20v19v20v20v20v20
v19v20v20v20v19v20v20v21l-2 17l-2 12l-17 8l-18 10l-6 20l10 17l20 6l22 -5l17 -9l13 -12l9 -16l5 -20l2 -23l1 -26v-20v-20v-19v-20v-20v-20v-19v-20v-20v-20v-20v-19v-20v-20v-20v-19v-20v-20v-20v-19v-20v-20z" />
    <glyph glyph-name="C" unicode="C" horiz-adv-x="544" 
d="M513 170l13 -15l-1 -21l-10 -19l-12 -18l-12 -16l-13 -15l-14 -14l-14 -12l-15 -11l-16 -10l-16 -8l-16 -7l-17 -6l-19 -5l-19 -4l-20 -1l-19 -1l-20 2l-19 3l-19 4l-19 6l-18 7l-18 9l-17 10l-17 12l-16 13l-15 14l-12 13l-12 14l-11 15l-10 16l-9 16l-8 18l-7 19l-7 19
l-5 20l-4 22l-2 22l-2 22v24l1 21l2 20l3 21l4 20l5 20l6 19l7 19l8 18l10 18l10 17l12 17l12 15l13 14l14 13l15 11l16 11l17 10l18 8l19 7l20 6l21 4l21 2l23 1l24 -1l23 -4l21 -5l18 -8l18 -9l15 -11l14 -12l12 -13l10 -15l9 -17l8 -20l5 -21l2 -22l-1 -21l-3 -20l-6 -20
l-8 -17l-11 -16l-12 -14l-15 -12l-17 -10l-19 -7l-21 -5l-23 -2l-24 1l-21 5l-19 7l-16 10l-13 12l-11 14l-9 15l-6 18l-4 18v19l3 18l6 17l9 16l11 13l14 11l15 8l18 4l19 1l22 -3l17 -12l3 -20l-12 -17l-20 -3l-26 -1l-17 -12l-8 -24l5 -29l9 -13l13 -10l18 -7l23 -2l22 2
l19 7l15 11l12 13l8 16l6 19l1 21l-3 20l-8 23l-9 14l-11 13l-13 12l-16 9l-19 8l-22 4l-24 2l-22 -1l-21 -3l-20 -5l-18 -6l-18 -8l-16 -9l-15 -11l-13 -13l-13 -13l-13 -15l-11 -17l-10 -17l-8 -19l-8 -19l-6 -19l-4 -21l-4 -20l-2 -21l-1 -21v-24l2 -22l3 -22l5 -21
l6 -19l7 -19l8 -17l9 -16l10 -15l11 -14l12 -13l14 -13l16 -12l15 -10l17 -9l17 -7l17 -6l21 -4l21 -2h22l21 2l21 5l18 7l17 8l17 11l16 12l15 15l14 17l13 18l12 21l16 13z" />
    <glyph glyph-name="D" unicode="D" horiz-adv-x="603" 
d="M550 466l7 -18l6 -17l5 -18l4 -19l3 -18l3 -19l2 -19l2 -20v-19v-19l-1 -19l-2 -20l-2 -19l-3 -19l-4 -18l-5 -19l-5 -18l-7 -20l-7 -20l-9 -19l-9 -18l-10 -18l-12 -17l-11 -17l-13 -15l-14 -15l-14 -13l-15 -13l-16 -11l-17 -10l-18 -9l-18 -7l-20 -7l-20 -4l-20 -3
l-22 -2h-16l-20 2l-20 3l-19 5l-18 7l-17 8l-16 10l-15 12l-13 13l-12 15l-11 17l-8 18l-7 19l-4 21l-2 22v15l1 19l4 18l5 18l7 17l9 15l11 15l14 15l16 12l18 11l20 8l22 5l20 -4l11 -18l-5 -20l-18 -11l-22 -7l-19 -10l-15 -15l-11 -15l-7 -17l-5 -19l-2 -19v-11l2 -21
l6 -19l8 -18l10 -15l13 -13l15 -12l17 -9l18 -7l20 -4l21 -2h13l20 2l20 3l19 6l18 7l17 8l16 11l15 11l14 13l14 14l12 15l12 17l11 17l9 18l9 19l8 19l7 20l5 19l5 19l3 19l3 19l2 20l2 19v20v20l-2 19l-2 19l-3 19l-4 18l-5 18l-6 18l-8 19l-8 18l-10 18l-12 16l-12 16
l-13 14l-15 12l-16 12l-17 10l-19 8l-20 7l-21 4l-22 3l-24 1l-21 -1l-20 -2l-20 -5l-20 -6l-18 -7l-18 -9l-17 -10l-16 -11l-15 -13l-13 -14l-11 -15l-9 -16l-7 -18l-5 -18l-2 -19v-4l2 -21l5 -18l9 -16l12 -11l14 -8l18 -3h2l26 7l9 19l-12 16l-10 19l5 19l18 10l20 -5
l15 -14l10 -15l6 -15l3 -23l-6 -22l-11 -18l-16 -15l-17 -10l-20 -5l-21 -2h-3h-1l-21 2l-19 6l-17 9l-14 12l-13 14l-10 15l-8 17l-5 18l-3 19l-1 20v5l2 21l4 19l6 19l8 19l9 17l12 16l12 15l14 14l15 13l15 11l17 11l17 9l18 8l19 7l19 6l19 5l20 3l20 2l20 1l23 -1
l22 -2l21 -3l20 -5l19 -7l18 -7l17 -9l16 -10l15 -11l15 -12l13 -13l13 -14l11 -15l11 -16l10 -16l9 -17zM305 8l-19 -8l-19 8l-8 19v20v20v19v20v20v20v19v20v20v20v19v20v20v20v20v19v20v20v20v19v20v20v21l-2 17l-2 12l-17 8l-18 10l-6 20l10 18l20 6l22 -5l17 -9l13 -12
l9 -16l4 -15l3 -16l1 -19v-20v-20v-20v-19v-20v-20v-20v-19v-20v-20v-20v-20v-19v-20v-20v-20v-19v-20v-20v-20v-19v-20v-20z" />
    <glyph glyph-name="E" unicode="E" horiz-adv-x="584" 
d="M527 91l20 6l18 -10l5 -20l-5 -22l-9 -17l-12 -12l-17 -9l-15 -4l-17 -2l-18 -1h-20h-20h-21h-20h-21h-20h-21h-20l-19 8l-8 19l7 18l18 9l16 8l2 12l1 17v21v19v20v19v19v19v20v19v19v20v29v2v20v21v20v21v20v21v20v21v20v21l8 19l19 8l19 -8l8 -19v-21v-20v-21v-20v-21
v-20v-21v-20v-21h12h20l19 -1l16 -2l15 -4l17 -9l12 -12l10 -17l5 -22l-6 -20l-18 -10l-20 6l-10 18l-9 15l-12 3l-18 1h-21h-12v-19v-19v-19v-19v-19v-19v-19v-19v-19v-22l-1 -19l-3 -17h19h19h19h19h21l18 1l12 3l9 15zM588 636v-2v-1l-3 -24l-7 -21l-11 -18l-14 -14
l-16 -11l-18 -9l-18 -5l-19 -2h-2h-1l-19 1l-20 3l-20 4l-20 5l-21 7l-22 7l-18 5l-18 6l-18 5l-19 5l-19 4l-19 3l-20 3l-20 2h-24h-2l-23 -2l-20 -4l-18 -7l-15 -9l-12 -11l-12 -15l-9 -17l-5 -19l-2 -19l2 -18l5 -18l8 -16l11 -14l16 -13l21 -9l26 -4l23 2l18 7l13 11
l9 13l5 28l-8 25l-17 12h-26l-20 4l-12 16l3 21l17 12l22 3l19 -1l18 -5l15 -8l14 -10l11 -13l9 -16l6 -17l3 -19v-18l-4 -19l-6 -18l-9 -15l-11 -14l-13 -12l-16 -10l-19 -7l-21 -5l-24 -1l-21 2l-19 4l-18 6l-16 8l-14 10l-13 12l-12 15l-11 16l-8 17l-5 18l-4 18l-1 19v1
l1 19l4 20l6 18l8 18l11 17l13 16l13 12l15 10l16 9l18 7l20 6l22 3l23 2h2h2h21l21 -1l20 -2l19 -4l19 -4l19 -4l18 -5l18 -5l17 -6l17 -5l24 -7l22 -7l21 -5l20 -4l19 -1h2l19 4l18 10l12 15l4 20v3l8 19l19 8l19 -7z" />
    <glyph glyph-name="F" unicode="F" horiz-adv-x="543" 
d="M452 338l15 -4l17 -9l12 -12l9 -17l5 -22l-5 -20l-18 -10l-20 6l-10 18l-9 15l-12 3l-18 1h-21h-12v-19v-20v-19v-20v-19v-20v-19v-20v-19v-21l-1 -18l-2 -16l-4 -15l-9 -16l-13 -13l-17 -8l-22 -5l-20 6l-10 18l6 20l18 10l17 8l2 12l1 17v21v19v20v19v20v19v20v19v20
v19h-16h-15l-19 8l-8 19l8 19l19 8h15h16v19v19v20v19v19v19v19v20v19v19l8 19l19 8l19 -8l8 -19v-19v-19v-20v-19v-19v-19v-19v-20v-19v-19h12h20l19 -1zM580 668l8 -19v-2v-1l-3 -23l-7 -21l-11 -18l-14 -15l-16 -11l-18 -9l-18 -5l-19 -2h-2h-1l-19 1l-20 3l-20 4l-20 6
l-21 6l-22 7l-18 5l-18 6l-18 5l-19 5l-19 4l-19 4l-20 2l-20 2h-24h-2l-23 -2l-20 -4l-18 -7l-15 -9l-12 -11l-12 -15l-9 -17l-5 -18l-2 -19v-1l2 -18l5 -18l8 -16l11 -14l16 -13l21 -9l26 -3l23 2l18 7l13 10l9 13l5 28l-8 25l-17 12l-26 1l-21 3l-11 17l3 20l17 12l22 3
l19 -1l18 -4l15 -8l14 -11l11 -13l9 -16l6 -17l3 -19v-18l-4 -19l-6 -18l-9 -15l-11 -14l-13 -12l-16 -9l-19 -8l-21 -4l-24 -1l-21 2l-19 4l-18 6l-16 8l-14 10l-13 11l-12 15l-11 16l-8 17l-5 18l-4 19l-1 19v1l1 19l4 19l6 18l8 18l11 17l13 16l13 12l14 10l17 9l18 8
l20 5l21 4l24 1h2h2h21l21 -1l20 -2l19 -4l19 -4l19 -4l18 -5l18 -5l17 -6l17 -5l24 -7l22 -7l21 -5l20 -4l19 -1h2l19 4l18 10l12 15l4 21v2l8 19l19 9z" />
    <glyph glyph-name="G" unicode="G" horiz-adv-x="531" 
d="M506 252v-1v-11v-17v-24v-27v-29v-23v-23v-22v-19v-18l-1 -14v-11l-8 -19l-19 -7l-19 8l-8 19l1 29l-18 -13l-18 -12l-19 -10l-19 -7l-20 -6l-20 -4l-21 -3h-21l-20 1l-21 3l-20 4l-20 6l-17 7l-17 7l-16 9l-16 11l-15 11l-14 13l-14 14l-13 15l-10 14l-10 15l-9 15
l-8 16l-8 17l-6 18l-6 19l-4 19l-4 20l-2 21l-2 22v22l1 21l2 20l3 21l4 20l5 20l6 19l7 19l8 18l10 18l10 17l12 17l12 15l13 14l14 13l15 11l16 11l17 10l18 8l19 7l20 6l21 4l21 2l23 1l24 -1l23 -4l21 -5l18 -8l18 -9l15 -11l14 -12l12 -13l10 -15l9 -17l8 -20l5 -21
l2 -22l-1 -21l-3 -20l-6 -20l-8 -17l-11 -16l-12 -14l-15 -12l-17 -10l-19 -7l-21 -5l-23 -2l-24 1l-21 5l-19 7l-16 10l-13 12l-11 14l-9 15l-6 18l-4 18v19l3 18l6 17l9 16l11 13l14 11l15 8l18 4l19 1l22 -3l17 -12l3 -20l-12 -17l-20 -3l-26 -1l-17 -12l-8 -24l5 -29
l9 -13l13 -10l18 -7l23 -2l22 3l19 7l15 10l12 13l8 16l6 19l1 21l-3 20l-8 23l-9 14l-11 13l-13 12l-16 9l-19 8l-22 4l-24 2l-22 -1l-21 -3l-20 -5l-18 -6l-18 -8l-16 -9l-15 -11l-13 -13l-13 -13l-13 -15l-11 -17l-10 -17l-8 -19l-8 -19l-6 -19l-4 -21l-4 -20l-2 -21
l-1 -21v-23l2 -22l3 -21l4 -20l6 -19l6 -18l8 -17l8 -15l10 -15l10 -14l14 -16l15 -14l16 -13l17 -11l18 -9l18 -7l18 -6l19 -3l19 -2h19l18 1l19 4l17 5l17 7l16 9l15 10l15 13l14 14l13 16v22v23v22v21v17h-19h-21l-23 -1l-21 -3l-19 -4l-16 -8l-11 -11l-4 -15l4 -12
l14 -5l18 -9l7 -20l-9 -19l-19 -6l-18 3l-17 7l-15 11l-10 14l-7 17l-2 20l3 22l6 19l11 15l14 12l16 9l18 8l20 5l20 3l21 2h21h20l27 -1h18l19 -8z" />
    <glyph glyph-name="H" unicode="H" horiz-adv-x="606" 
d="M607 600l-6 -20l-17 -10l-17 -8l-3 -12l-1 -17v-21v-20v-20v-20v-20v-20l1 -19v-20v-20v-20v-20v-15v-15v-21v-20v-21v-20v-21v-21l1 -20v-21v-21v-20v-21v-20v-21l-8 -19l-19 -8l-19 8l-8 19v20v20v20v21v20v20l-1 20v20v20v21v20v20v20l-24 3l-23 1h-22l-20 -1l-20 -2
l-19 -3l-15 -4l-14 -4v-21v-21v-21v-21l1 -20v-21v-21v-21v-21l-1 -18l-2 -16l-5 -15l-9 -16l-12 -13l-17 -8l-22 -5l-20 6l-10 18l5 20l18 10l17 8l3 12l1 17v21v20v21v20v21v20v21v20l-22 -13l-20 -4l-18 11l-4 21l12 17l16 10l17 10l18 9v21v20v21v20v21v21v20v21v21v20
v21v20v21h-18l-21 -1l-20 -2l-20 -5l-20 -6l-18 -7l-18 -9l-17 -10l-16 -11l-15 -13l-13 -14l-11 -15l-9 -16l-7 -17l-5 -19l-2 -19v-3l2 -21l5 -19l9 -16l12 -11l14 -8l18 -3h2l26 8l9 19l-12 16l-10 18l5 20l18 9l20 -5l15 -14l10 -15l6 -15l3 -23l-6 -21l-11 -18l-16 -15
l-17 -10l-20 -6l-21 -2h-3h-1l-21 3l-19 6l-17 9l-14 11l-13 14l-10 15l-8 17l-5 19l-3 19l-1 25l2 20l4 20l6 19l8 18l9 17l12 16l12 16l14 14l15 13l15 11l17 10l17 10l18 8l19 7l19 5l19 5l20 3l20 2l20 1h25l24 -3l17 -10l6 -19v-19v-20v-19v-19v-20v-19v-20v-19v-19
v-20v-19v-19v-20v-19l18 4l18 3l18 3l19 2l20 1l21 -1l21 -1l22 -3v20v20v20v20l-1 21v20v20v20v20v20l1 19l2 16l5 15l9 16l12 12l17 9l22 5l20 -6z" />
    <glyph glyph-name="I" unicode="I" horiz-adv-x="372" 
d="M144 335l-10 18l6 20l18 10l20 -6l15 -14l10 -14l6 -16l3 -23l-6 -21l-11 -18l-16 -15l-17 -10l-20 -6l-21 -2h-3h-1l-21 3l-19 6l-17 9l-14 11l-13 14l-10 15l-8 17l-5 19l-3 19l-1 20v6l2 20l4 20l6 19l8 17l9 17l12 16l12 16l14 14l15 13l15 11l17 10l17 10l18 8l19 7
l19 6l19 4l20 4l20 2l20 1l25 -1l24 -3l17 -10l6 -18v-20v-19v-20v-20v-19v-20v-20v-19v-20v-20v-19l1 -20v-19v-20v-20v-19v-20v-20v-19v-20v-20v-19v-20v-26l-2 -23l-6 -20l-9 -16l-12 -13l-17 -8l-22 -5l-20 5l-10 18l5 20l18 10l17 8l3 12l1 17v21v20v21v20v21v20v21v20
v20v21v20l-1 21v20v21v20v20v21v20v21v20v21v20l-18 1l-21 -1l-20 -3l-20 -4l-20 -6l-18 -7l-18 -9l-17 -10l-16 -11l-15 -13l-13 -14l-11 -16l-9 -16l-7 -17l-5 -19l-2 -19v-3l2 -21l5 -19l9 -16l12 -11l14 -8l18 -3h2l26 8l9 10z" />
    <glyph glyph-name="J" unicode="J" horiz-adv-x="380" 
d="M149 335l-10 18l5 20l18 10l20 -6l15 -14l10 -14l6 -16l3 -23l-6 -21l-11 -18l-16 -15l-17 -10l-20 -6l-21 -2h-3h-1l-21 3l-19 6l-17 9l-14 11l-13 14l-10 15l-8 17l-5 19l-3 19l-1 20v5v1l2 20l4 20l6 19l8 17l9 17l12 16l12 16l14 14l15 13l15 11l17 10l17 10l18 8
l18 7l19 6l20 4l20 4l20 2l20 1h9h20l20 -2l17 -10l6 -19v-20v-19v-20v-19v-20v-19v-20v-19v-20v-19v-20l1 -20v-19v-20v-19v-20v-19v-20v-19v-20v-19v-20v-20v-19v-17v-17v-19l-1 -19l-1 -19l-2 -18l-4 -18l-5 -17l-8 -19l-11 -16l-13 -13l-17 -11l-19 -6l-24 -3l-22 2
l-19 7l-17 12l-13 16l-9 19l-3 21l2 23l9 24l16 13l21 -2l13 -16l-2 -20l-5 -20l4 -13l9 -9l15 -3l20 5l14 11l9 16l4 16l3 18l1 19l1 19v20v17v17v19v20v20v21v20v20v21v20v20v21v20l-1 20v21v20v21v20v20v21v20v20v21v20h-8h-9h-1l-21 -1l-20 -3l-20 -4l-20 -6l-18 -7
l-18 -9l-17 -10l-16 -11l-15 -13l-13 -14l-11 -16l-9 -16l-7 -17l-5 -19l-2 -19v-3l2 -21l5 -19l9 -16l12 -11l14 -8l18 -3h2l26 8l9 10z" />
    <glyph glyph-name="K" unicode="K" horiz-adv-x="526" 
d="M700 -61l16 -13l2 -21l-8 -21l-11 -18l-12 -15l-13 -13l-16 -11l-18 -8l-19 -4l-20 -2l-17 1l-16 4l-15 6l-14 9l-12 11l-12 13l-11 14l-11 17l-9 18l-9 19l-9 20l-8 22l-8 22l-7 23l-8 23l-7 23l-8 24l-7 24l-8 24l-8 23l-9 22l-9 20l-9 19l-10 18l-10 15l-11 13l-11 10
l-13 7l-15 4v-21v-21v-21v-22v-21v-21v-21v-21v-21l-1 -18l-3 -16l-4 -15l-9 -16l-13 -13l-17 -8l-22 -5l-20 6l-10 18l6 20l18 10l17 8l2 12l1 17v21v20v19v20v20v19v20v20v19v20v20v19v20v20v19v20v20v19v20v20v19v20v20v19v20l-21 -4l-20 -5l-19 -6l-17 -7l-16 -8l-14 -9
l-13 -10l-16 -14l-13 -16l-11 -15l-9 -17l-6 -16l-4 -17l-2 -16v-4l2 -21l5 -18l9 -16l12 -11l14 -8l18 -3h2l26 7l9 19l-13 16l-10 19l6 19l18 10l20 -5l15 -14l10 -15l6 -15l3 -23l-6 -22l-11 -18l-16 -15l-17 -10l-20 -5l-21 -2h-3h-1l-21 3l-19 6l-17 9l-14 11l-13 14
l-10 15l-8 17l-5 18l-3 19l-1 25l2 17l3 18l6 18l7 18l8 17l11 17l13 16l14 16l17 15l13 10l14 9l15 8l17 8l17 7l19 6l19 5l21 4l22 3l23 2l20 -7l9 -18v-2v-20v-21v-20v-20v-21v-20v-20v-20v-21v-20v-20v-21v-20l10 17l10 16l11 17l10 16l10 17l10 16l10 17l11 17l10 16
l10 17l10 16l11 17l10 16l12 20l4 6l13 18l14 14l18 12l24 6l20 -5l10 -18l-5 -20l-18 -10l-18 -10l-14 -18l-4 -6l-10 -17l-10 -16l-11 -17l-10 -16l-10 -17l-10 -16l-11 -17l-10 -17l-10 -16l-10 -17l-10 -16l-11 -17l-10 -16l-10 -17l14 -9l13 -11l12 -13l11 -14l11 -16
l9 -17l10 -18l9 -20l8 -20l8 -21l7 -22l8 -22l7 -22l7 -22l8 -24l7 -24l8 -23l8 -22l8 -21l8 -20l9 -18l9 -16l10 -13l10 -11l11 -8l12 -5l12 -2l21 3l19 10l10 11l9 14l7 17l14 16z" />
    <glyph glyph-name="L" unicode="L" horiz-adv-x="583" 
d="M548 97l18 -10l5 -20l-5 -22l-9 -17l-12 -12l-17 -9l-15 -4l-17 -2l-18 -1h-20h-20h-21h-20h-21h-20h-21h-20l-18 7l-9 17l6 20l18 10l17 8l2 12l1 17v21v20v21v20v21v20v21v20v21v20v21v21v20v21v20v21v20v21v21v20v21v20v21l-20 6l-21 5l-21 5l-20 4l-21 3l-21 2h-25
h-2l-23 -2l-20 -4l-18 -7l-15 -9l-12 -11l-12 -15l-9 -17l-5 -18l-2 -19v-1l2 -18l5 -18l8 -16l11 -14l16 -13l21 -9l26 -4l23 2l18 7l13 11l9 13l5 28l-8 25l-17 12h-26l-20 4l-12 17l3 20l17 12l22 3l19 -1l18 -5l15 -8l14 -10l11 -13l9 -16l6 -17l3 -19v-18l-4 -19
l-6 -18l-9 -15l-11 -14l-13 -12l-16 -10l-19 -7l-21 -5l-24 -1l-21 2l-19 4l-18 6l-16 8l-14 10l-13 12l-12 15l-11 16l-8 17l-5 18l-4 18l-1 19v1v1l1 19l4 19l6 18l8 18l11 17l13 16l13 12l15 10l16 9l18 7l20 6l22 3l23 2h2h2h20l20 -1l19 -2l19 -3l18 -4l22 -5l22 -6
l21 -6l21 -7l14 -10l5 -16v-20v-21v-20v-21v-20v-21v-20v-21v-20v-21v-20v-21v-20v-21v-20v-21v-20v-21v-20v-21v-20v-21v-20v-22l-1 -19l-3 -17h19h19h19h19h21l18 1l12 3l9 15l10 18z" />
    <glyph glyph-name="M" unicode="M" horiz-adv-x="777" 
d="M744 54l18 -10l6 -20l-10 -18l-20 -6l-22 5l-18 8l-12 13l-9 16l-4 15l-3 16l-1 18v21h1v20v20v20v20v19v20v20v20v20v20v20v20v19v20v20v20v20l-7 -19l-8 -20l-7 -19l-8 -19l-7 -19l-7 -20l-8 -19l-7 -19l-7 -19l-8 -20l-7 -19l-8 -19l-7 -19l-7 -20l-8 -19l-7 -19
l-20 -18l-20 4l-12 17l-5 21l-4 21l-5 21l-5 21l-4 21l-5 20l-5 20l-6 20l-5 19l-6 19l-5 18l-6 18l-7 17l-6 17l-7 16l-7 16l-8 15l-13 23v-19v-19v-19v-19v-19v-19v-19v-19v-19v-21v-20v-21v-20v-21v-20v-21v-20v-21v-20v-21l-1 -18l-2 -16l-4 -15l-9 -16l-13 -13l-17 -8
l-22 -5l-20 6l-10 18l6 20l18 10l17 8l2 12l1 17v21v20v21v20v21v20v21v20v21v20v21v19v20v19v20v19v19v20v19v20v19v20v19l-15 11l-16 10l-17 8l-18 6l-20 4l-20 3l-22 1h-2l-22 -1l-22 -4l-20 -6l-18 -8l-16 -10l-13 -12l-11 -13l-8 -16l-5 -18l-2 -19l2 -18l5 -18l8 -16
l11 -14l16 -13l21 -9l26 -4l23 2l18 7l13 11l9 13l5 28l-8 25l-17 12h-26l-21 4l-11 17l3 20l17 12l22 3l19 -1l18 -5l15 -8l14 -10l11 -13l9 -16l6 -17l3 -19v-18l-4 -19l-6 -18l-9 -15l-11 -14l-13 -12l-16 -10l-19 -7l-21 -5l-24 -1l-21 2l-19 4l-18 6l-16 8l-14 10
l-13 12l-12 15l-11 16l-8 17l-5 18l-4 18l-1 19v1l1 22l4 20l7 19l9 17l11 16l13 14l15 13l16 10l17 9l18 8l19 5l20 5l20 2l21 1h2l23 -1l22 -2l21 -4l20 -6l19 -6l17 -9l17 -9l16 -11l15 -12l14 -13l13 -15l13 -15l11 -17l11 -17l11 -19l8 -16l8 -17l7 -17l7 -18l7 -19
l6 -18l6 -20l6 -19l6 -20l5 -20l6 -21l5 -21l5 -21l7 19l8 19l7 19l7 19l8 19l7 19l7 19l8 19l7 19l7 20l7 19l8 19l7 19l7 19l8 19l7 19l7 19l8 19l7 19l14 15l20 1l14 -11l4 -16v-20v-20v-20v-21v-20l-1 -20v-20v-20v-20v-20v-20v-21v-20v-20v-20v-20v-20l-1 -20v-20v-21
v-20v-20v-20v-20h1v-21l1 -17l2 -12z" />
    <glyph glyph-name="N" unicode="N" horiz-adv-x="631" 
d="M644 600l-6 -20l-18 -10l-16 -8l-3 -12l-1 -17v-21v-20v-20v-19v-20v-20v-20v-20v-19v-20v-20v-20v-20l1 -19v-20v-20v-20v-20v-19v-20v-20v-20v-20v-19v-20v-20l-5 -18l-16 -10l-21 3l-11 17l-3 14l-4 15l-4 18l-6 20l-5 21l-7 22l-7 23l-5 19l-6 20l-6 20l-7 21l-6 20
l-7 21l-6 21l-7 20l-4 13l-7 19l-6 20l-7 19l-8 19l-7 20l-8 19l-9 18l-9 18l-10 17v-21v-21v-21v-22v-21v-21v-21v-21v-21v-20v-21v-20v-21v-20v-21v-20v-21v-20v-21l-1 -18l-2 -16l-4 -15l-9 -16l-13 -13l-17 -8l-22 -5l-20 6l-10 18l6 20l18 10l17 8l2 12l1 17v21v20v21
v20v21v20v21v20v21v20v21v19v20v19v20v19v19v20v19v20v19v20v19l-15 11l-15 9l-17 8l-18 7l-20 4l-21 3l-22 1h-2l-22 -1l-22 -4l-20 -6l-18 -8l-16 -10l-13 -12l-11 -13l-8 -16l-5 -18l-2 -19l2 -18l5 -18l8 -16l11 -14l16 -13l21 -9l26 -4l23 2l18 7l13 11l9 13l5 28
l-8 25l-17 12h-26l-20 4l-12 16l3 21l17 12l22 3l19 -1l18 -5l15 -8l14 -10l11 -13l9 -16l6 -17l3 -19v-18l-4 -19l-6 -18l-9 -15l-11 -14l-13 -12l-16 -10l-19 -7l-21 -5l-24 -1l-21 2l-19 4l-18 6l-16 8l-14 10l-13 12l-12 15l-11 16l-8 17l-5 18l-4 18l-1 19v1l1 22l4 20
l7 19l9 17l11 16l13 14l15 13l16 10l17 9l18 8l19 5l20 5l20 2l21 1h2l24 -1l23 -2l21 -4l20 -6l19 -7l18 -8l16 -10l15 -11l15 -12l13 -12l13 -14l11 -15l11 -15l10 -16l10 -17l9 -17l8 -18l8 -18l7 -18l7 -18l7 -19l7 -18l6 -19l6 -18l4 -13l6 -17l6 -18l5 -17l6 -18
l5 -17l6 -18v20v19v20v20v20v19v20l-1 20v20v19v20v20v20v19v20v20l1 19l2 16l5 15l9 16l12 12l17 9l22 5l20 -6z" />
    <glyph glyph-name="O" unicode="O" horiz-adv-x="456" 
d="M276 613l18 -8l13 -8l12 -8l13 -10l11 -11l12 -12l11 -13l10 -14l10 -15l8 -17l9 -17l7 -19l7 -20l5 -22l5 -22l4 -24l2 -25l2 -27v-28l-1 -7l-1 -21l-1 -21l-3 -20l-3 -20l-4 -20l-5 -19l-6 -18l-6 -18l-8 -17l-8 -16l-11 -18l-12 -16l-13 -14l-14 -13l-16 -10l-17 -9
l-17 -6l-20 -4l-20 -1h-1h-1h-1l-20 2l-19 5l-17 7l-16 9l-14 11l-13 13l-12 15l-10 16l-9 18l-7 19l-7 21l-5 21l-4 18l-2 18l-2 18l-1 19v19v19l2 17l1 18l3 18l3 17l-20 12l-16 14l-12 15l-11 16l-8 17l-5 18l-4 19l-1 19l2 22l4 21l7 20l10 18l12 16l14 14l15 13l18 11
l19 9l20 7l21 4l22 2h22l18 -2l17 -3l18 -5zM381 288v6v29l-2 27l-3 25l-4 24l-5 21l-7 21l-7 19l-8 17l-9 16l-10 14l-11 13l-11 11l-11 10l-13 9l-12 8l-22 9l-21 6l-22 3h-22l-20 -3l-20 -6l-19 -9l-16 -12l-13 -15l-10 -17l-7 -20l-2 -21l2 -18l5 -18l8 -16l11 -14
l11 -10l8 22l9 20l10 19l11 18l12 16l14 14l14 13l16 10l16 9l18 5l18 4h20l18 -9l7 -20l-9 -18l-19 -7l-19 -2l-17 -5l-16 -10l-14 -14l-14 -16l-12 -19l-10 -22l-9 -24l21 2l17 6l13 9l10 12l16 12l21 -2l12 -16l-2 -21l-12 -16l-15 -15l-19 -12l-18 -7l-21 -4l-24 -2
l-13 1l-3 -19l-2 -19l-2 -20v-20v-19l2 -20l2 -19l4 -18l6 -23l7 -22l10 -19l11 -17l13 -14l15 -10l17 -7l19 -3h2l19 2l18 6l16 9l15 13l13 16l11 18l8 15l6 16l6 17l5 18l5 19l3 19l3 20l2 20z" />
    <glyph glyph-name="P" unicode="P" horiz-adv-x="506" 
d="M485 534l7 -19l5 -19l3 -20l1 -20l-2 -21l-4 -21l-6 -20l-8 -20l-9 -16l-10 -16l-12 -15l-13 -14l-15 -13l-16 -12l-18 -10l-19 -9l-20 -7l-22 -5l-23 -3v-20v-21v-20v-20v-20v-21v-20v-21l-1 -18l-3 -16l-4 -15l-9 -16l-13 -13l-17 -8l-22 -5l-20 6l-10 18l6 20l18 10
l17 8l2 12l1 17v21v20v20v19v20v20v20v19v20v20v20v19v20v20v20v20v19v20v20v20v19v20v20l8 19l20 8l19 -8l8 -19v-20v-20v-20v-20v-20v-20v-19v-20v-20v-20v-20v-20l23 4l21 7l19 9l18 11l15 13l13 14l11 15l9 16l7 20l5 20l2 20l-1 19l-4 18l-7 19l-8 14l-10 13l-11 12
l-15 10l-16 9l-19 7l-20 5l-24 3l-25 1l-25 -1l-23 -3l-21 -4l-20 -6l-19 -7l-17 -7l-15 -9l-14 -10l-17 -15l-14 -16l-12 -17l-9 -17l-7 -17l-4 -17l-2 -17v-4l2 -21l5 -18l9 -16l12 -11l14 -8l18 -3h2l26 7l9 19l-13 16l-10 19l6 19l18 10l20 -5l15 -14l10 -15l6 -15
l3 -23l-6 -22l-11 -18l-16 -15l-17 -10l-20 -5l-21 -2h-3h-1l-21 2l-19 6l-17 9l-14 12l-13 14l-10 15l-8 17l-5 18l-3 19l-1 25l2 18l4 18l5 18l8 19l9 18l11 18l14 17l15 16l18 15l14 10l14 9l16 8l17 8l18 6l19 6l21 4l21 4l23 2l24 1l25 -1l24 -2l22 -4l20 -6l19 -7
l17 -9l15 -10l14 -11l13 -12l11 -13l9 -14z" />
    <glyph glyph-name="Q" unicode="Q" horiz-adv-x="466" 
d="M435 8l20 2l16 -13l2 -21l-9 -22l-12 -18l-13 -14l-16 -10l-17 -6l-18 -2l-22 2l-20 7l-19 9l-17 12l-17 12l-21 15l-20 11l-19 4l-18 -16l13 -17l-3 -20l-16 -13l-21 3l-16 15l-10 19l-2 17l2 17l7 16l11 14l10 8l-16 9l-14 11l-13 13l-12 15l-11 17l-9 17l-7 20l-7 20
l-5 21l-4 18l-2 18l-2 18l-1 19v19v19l2 17l1 18l3 18l3 17l-20 12l-16 14l-12 15l-11 16l-8 17l-5 18l-4 19l-1 19l2 22l4 21l7 20l10 18l12 16l14 14l15 13l18 11l19 9l20 7l21 4l21 2h22l18 -2l18 -3l18 -5l17 -7l18 -8l13 -8l12 -8l13 -10l11 -11l12 -12l11 -13l10 -14
l10 -15l8 -17l9 -17l7 -19l7 -20l5 -22l5 -22l4 -24l2 -25l2 -27v-28l-1 -7l-1 -21l-1 -21l-3 -20l-3 -20l-4 -20l-5 -19l-6 -18l-6 -18l-8 -17l-8 -16l-10 -17l-12 -15l-12 -14l-14 -13l-15 -10l-15 -9l-17 -6l16 -11l16 -12l16 -12l15 -10l16 -6l15 -3l18 6l9 11l7 17z
M145 192l3 -18l6 -23l8 -22l10 -19l11 -17l13 -14l15 -10l17 -7l19 -3h2l19 2l18 6l16 9l15 13l13 16l11 18l8 15l6 16l6 17l5 18l5 19l3 19l3 20l2 20l1 21v6v29l-2 27l-3 25l-4 24l-5 21l-7 21l-7 19l-8 17l-9 16l-10 14l-11 13l-11 11l-11 10l-13 9l-12 8l-22 9l-21 6
l-22 3h-22l-20 -3l-20 -6l-19 -9l-16 -12l-13 -15l-10 -17l-7 -20l-2 -21l2 -18l5 -18l8 -16l11 -14l11 -10l8 22l9 20l10 19l11 18l12 16l14 14l14 13l16 10l16 9l17 5l19 4h19l19 -9l7 -20l-9 -18l-19 -7l-19 -2l-17 -5l-16 -10l-14 -14l-14 -16l-12 -19l-10 -22l-9 -24
l21 2l17 6l13 9l10 12l16 12l21 -2l12 -16l-2 -21l-12 -16l-15 -15l-19 -12l-18 -7l-21 -4l-24 -2l-13 1l-3 -19l-2 -19l-2 -20v-20v-19l2 -20z" />
    <glyph glyph-name="R" unicode="R" horiz-adv-x="519" 
d="M680 -61l16 -13l2 -21l-8 -21l-11 -18l-12 -15l-13 -13l-16 -11l-18 -8l-19 -4l-20 -2l-18 1l-16 4l-15 6l-14 9l-12 11l-12 14l-10 15l-10 16l-9 18l-8 20l-8 20l-7 22l-7 22l-7 23l-7 23l-7 23l-7 22l-7 22l-7 22l-8 21l-8 20l-9 19l-10 17l-10 15l-11 14l-11 11l-13 9
l-14 6v-21v-21v-21v-20v-21v-21v-21v-21l-1 -18l-3 -16l-4 -15l-9 -16l-13 -13l-17 -8l-22 -5l-20 6l-10 18l6 20l18 10l17 8l2 12l2 17v21v20v20v19v20v20v20v19v20v20v20v19v20v20v20v20v19v20v20v20v19v20v20l8 19l19 8l19 -8l8 -19v-19v-20v-19v-20v-19v-20v-19v-19v-20
v-19v-20v-19l25 3l23 5l21 8l18 10l17 12l14 13l12 15l9 16l7 19l4 19l2 19l-1 20l-5 18l-7 18l-8 15l-11 13l-13 12l-15 11l-17 10l-20 7l-21 6l-25 3l-26 1l-25 -1l-23 -3l-21 -4l-20 -6l-19 -7l-17 -7l-15 -9l-14 -10l-17 -15l-14 -16l-12 -17l-9 -17l-7 -17l-4 -17
l-2 -17v-4l2 -21l5 -18l9 -16l12 -11l14 -8l18 -3h2l26 7l9 19l-12 16l-10 19l5 19l18 10l20 -5l15 -14l10 -15l6 -15l3 -23l-6 -22l-11 -18l-16 -15l-17 -10l-20 -5l-21 -2h-3h-1l-21 2l-19 6l-17 9l-14 12l-13 14l-10 15l-8 17l-5 18l-3 19l-1 25l2 18l4 18l5 19l8 18
l9 18l11 18l14 17l15 16l18 15l14 10l14 9l16 8l17 8l18 6l19 6l21 4l21 4l23 2l24 1l26 -1l24 -2l23 -5l21 -6l19 -7l18 -9l16 -11l15 -11l13 -13l11 -13l10 -15l8 -15l8 -19l6 -20l4 -21l1 -20l-2 -20l-3 -21l-6 -20l-8 -19l-8 -16l-11 -16l-11 -14l-14 -13l-15 -13
l-16 -11l-18 -9l-20 -8l12 -13l11 -15l10 -16l9 -17l9 -18l8 -19l8 -19l7 -20l7 -21l6 -20l7 -21l6 -21l8 -26l7 -25l8 -25l8 -23l9 -21l9 -19l10 -16l11 -13l11 -10l12 -6l14 -2l22 3l19 10l14 17l11 25l14 16z" />
    <glyph glyph-name="S" unicode="S" horiz-adv-x="427" 
d="M410 164l1 -25l-2 -23l-3 -22l-5 -21l-7 -19l-9 -18l-10 -16l-11 -15l-13 -14l-15 -12l-15 -10l-17 -9l-17 -7l-17 -6l-18 -4l-19 -2l-20 -1l-19 1l-20 3l-19 5l-19 7l-18 9l-18 10l-16 13l-14 14l-12 15l-11 16l-8 17l-7 17l-6 19l-3 18l-2 23l1 23l4 22l6 21l10 20
l12 17l14 13l15 11l18 7l19 5l23 1l23 -3l20 -8l19 -12l12 -12l9 -14l7 -17l4 -20l2 -26l-9 -19l-19 -7l-19 9l-7 19l-1 17l-5 17l-10 12l-13 8l-15 2h-14l-18 -6l-14 -12l-10 -16l-7 -20l-3 -23l1 -25l4 -18l6 -18l9 -17l11 -15l14 -14l16 -12l17 -9l18 -7l19 -5l19 -2
l20 1l18 2l17 5l17 6l15 9l14 11l13 13l11 15l9 16l7 19l5 20l2 23l-1 25l-3 22l-6 20l-9 18l-10 17l-12 15l-14 14l-15 13l-16 12l-16 11l-17 11l-17 10l-18 11l-18 11l-17 12l-16 12l-16 13l-13 14l-13 15l-10 16l-8 18l-6 20l-4 22l-1 17l2 23l5 21l9 19l11 17l13 15
l15 12l17 9l18 8l18 6l20 3h19l23 -1l21 -4l19 -6l17 -9l15 -10l13 -12l11 -14l10 -15l8 -16l7 -17l5 -18l5 -19l-4 -20l-17 -12l-20 4l-11 17l-6 22l-7 19l-9 17l-11 14l-13 11l-16 8l-19 6l-22 2l-12 -1l-21 -4l-19 -8l-17 -12l-12 -15l-8 -18l-3 -22v-11l4 -18l6 -17
l10 -15l12 -14l14 -13l15 -13l17 -11l18 -12l18 -11l16 -10l16 -10l15 -10l16 -11l14 -11l15 -12l13 -13l12 -14l11 -15l10 -16l8 -18l7 -20l5 -21z" />
    <glyph glyph-name="T" unicode="T" horiz-adv-x="476" 
d="M629 649v-2v-1l-3 -23l-7 -21l-11 -18l-14 -15l-16 -11l-18 -9l-19 -5l-18 -2h-3l-16 1l-18 2l-18 3l-19 4l-20 4l-21 6l-21 5v-19v-19v-20v-19v-19v-19v-20v-19v-19v-19v-20v-19v-19v-21v-20v-21v-20v-21v-20v-21v-20v-21v-20v-21l-1 -18l-2 -16l-4 -15l-9 -16l-13 -13
l-17 -8l-22 -5l-20 6l-10 18l6 20l18 10l16 8l3 12l1 17v21v20v21v20v21v20v21v20v21v20v21h-1v20v21v20v20v21v20v20v20v21v20v20v21v20l-21 5l-21 5l-21 4l-21 3l-21 2l-21 2h-23h-1l-23 -2l-21 -4l-18 -7l-15 -9l-12 -11l-12 -15l-9 -17l-5 -18l-2 -19v-1l2 -18l5 -18
l8 -16l11 -14l16 -13l21 -9l26 -3l23 2l18 7l13 10l9 13l5 28l-8 25l-17 12l-26 1l-20 3l-12 17l3 20l17 12l22 3l19 -1l18 -4l15 -8l14 -11l11 -13l9 -16l6 -17l3 -19v-18l-4 -19l-6 -18l-9 -15l-11 -14l-13 -12l-16 -9l-19 -8l-21 -4l-24 -1l-21 1l-19 4l-18 6l-16 9
l-14 10l-13 11l-12 15l-11 16l-8 17l-5 18l-4 19l-1 19v1l1 19l4 19l6 18l8 18l11 17l13 16l13 12l15 10l16 9l18 8l20 5l22 4l23 1h1h1h2h19l20 -1l20 -2l19 -2l20 -4l20 -3l19 -5l19 -4l19 -5l19 -5l18 -5l24 -6l22 -6l22 -5l20 -3l18 -3l17 -1h1l20 4l18 10l11 15l5 21v2
l8 19l19 9l19 -8z" />
    <glyph glyph-name="U" unicode="U" horiz-adv-x="672" 
d="M671 649l-6 -19l-18 -10l-22 -12l-3 -14l-1 -19v-24v-27v-23v-21v-19v-17v-17v-20v-21v-21l1 -21v-21v-20v-21v-20v-20v-20v-19l-1 -19v-18v-17v-16l-2 -24l-3 -23l-6 -20l-7 -19l-8 -16l-10 -15l-11 -13l-13 -12l-13 -9l-14 -8l-20 -8l-20 -5l-21 -1l-21 3l-20 5l-20 9
l-15 9l-14 12l-13 14l-11 15l-10 18l-7 19l-6 22l-3 24v25v20v20v19v20l-1 20v20v20v19v20v20v20v21v20v21v20v21v20v21v20v21v20v21v20v21l-24 1l-21 -1l-21 -3l-20 -4l-20 -5l-20 -6l-18 -8l-18 -10l-17 -10l-16 -12l-15 -13l-13 -13l-12 -15l-10 -16l-8 -17l-7 -18
l-4 -19l-2 -23l2 -24l6 -22l11 -18l13 -13l17 -9l24 -4l17 2l15 7l10 12l1 13l-15 20l-10 18l5 20l18 9l20 -5l16 -15l11 -16l7 -17l3 -25l-6 -23l-12 -19l-17 -16l-19 -10l-22 -7l-27 -2l-23 3l-21 6l-18 10l-16 13l-14 15l-11 17l-8 18l-7 20l-3 21l-1 28l2 20l4 20l5 19
l7 19l9 17l10 17l12 16l13 15l14 14l15 13l15 11l17 11l17 9l18 9l19 7l19 7l19 5l20 4l20 3l21 2l20 1h28l26 -3l17 -10l6 -19v-21v-20v-21v-20v-21v-21v-20l1 -21v-20v-21v-21v-20v-21v-20v-21v-20v-20v-20v-20v-20l1 -19v-20v-20v-20v-21l1 -26l4 -23l8 -20l11 -17
l12 -13l15 -10l17 -7l19 -3l19 2l18 6l13 8l11 10l11 13l8 16l7 19l4 21l2 25v16v17v18l1 19v19v19v20v20v21v21v21v20v21v21v20v28l-1 27v23v21v15v10v23l1 20l2 18l5 16l10 17l14 14l18 9l24 5l20 -6z" />
    <glyph glyph-name="V" unicode="V" horiz-adv-x="770" 
d="M784 600l-6 -20l-18 -10l-20 -5l-15 -10l-1 -2l-8 -12l-7 -15l-6 -21l-5 -19l-5 -19l-6 -19l-5 -19l-5 -20l-5 -19l-5 -19l-6 -19l-5 -19l-5 -19l-5 -19l-5 -19l-6 -20l-5 -19l-5 -19l-5 -19l-5 -19l-5 -19l-6 -19l-5 -19l-5 -19l-5 -20l-5 -19l-6 -19l-5 -19l-5 -19
l-19 -19l-20 2l-13 16l-5 18l-5 20l-4 20l-5 20l-4 21l-5 22l-4 22l-4 21l-4 21l-5 22l-4 21l-5 22l-5 22l-6 22l-5 21l-7 21l-6 21l-7 21l-8 20l-8 19l-8 19l-9 18l-10 17l-11 17l-11 15l-12 15l-12 13l-14 12l-14 10l-16 10l-16 8l-17 6l-18 5l-20 3l-21 1h-3l-22 -1
l-21 -4l-20 -6l-18 -8l-17 -10l-15 -14l-12 -18l-8 -20l-3 -25v-1l2 -18l5 -18l8 -16l11 -14l16 -13l21 -9l26 -4l23 2l18 7l13 11l9 13l5 28l-8 25l-17 12h-26l-20 4l-12 17l3 20l17 12l22 3l19 -1l18 -5l15 -8l14 -10l11 -13l9 -16l6 -17l3 -19v-18l-4 -19l-6 -18l-9 -15
l-11 -14l-13 -12l-16 -10l-19 -7l-21 -5l-24 -1l-21 2l-19 4l-18 6l-16 8l-14 10l-13 12l-12 15l-11 16l-8 17l-5 18l-4 18l-1 19v1v4l2 21l4 20l7 18l9 17l11 15l12 14l15 12l15 10l17 9l18 8l19 5l20 5l20 2l21 1h6l22 -1l20 -3l20 -4l19 -5l18 -7l17 -8l15 -9l16 -11
l14 -11l13 -13l13 -13l12 -15l11 -15l11 -16l10 -17l9 -17l9 -18l8 -19l8 -19l7 -19l7 -20l6 -20l6 -21l6 -20l5 -21l5 -21l5 -21l4 -20l5 -21l4 -21l4 -20l4 -20l3 -18l4 -17l5 20l6 19l5 20l5 20l5 19l6 20l5 20l5 19l6 20l5 19l5 20l6 20l5 19l5 20l5 20l6 19l5 20l5 20
l6 19l5 20l6 21l8 19l9 17l13 16l14 12l16 9l18 7l20 4l20 -6z" />
    <glyph glyph-name="W" unicode="W" horiz-adv-x="884" 
d="M929 600l-6 -20l-18 -10l-19 -5l-15 -10l-2 -2l-12 -19l-8 -26l-1 -1l-4 -20l-5 -20l-4 -20l-4 -20l-5 -20l-4 -20l-4 -19l-5 -20l-4 -20l-4 -20l-5 -20l-4 -20l-4 -20l-4 -20l-5 -20l-4 -20l-4 -20l-5 -20l-4 -19l-4 -20l-5 -20l-4 -20l-4 -20l-5 -20l-4 -20l-7 -13
l-14 -7l-20 3l-12 17l-4 18l-3 18l-4 18l-4 19l-4 20l-4 19l-4 20l-4 21l-4 20l-5 21l-4 20l-4 21l-4 19l-4 18l-4 18l-4 -19l-4 -20l-5 -19l-4 -19l-4 -19l-4 -20l-4 -19l-5 -19l-4 -19l-4 -20l-4 -19l-4 -19l-5 -19l-4 -20l-4 -19l-7 -14l-14 -7l-20 3l-12 17l-3 16l-3 17
l-4 18l-3 18l-4 20l-4 20l-4 20l-4 21l-4 21l-5 21l-4 21l-5 22l-6 22l-5 21l-6 22l-6 21l-7 21l-7 20l-7 21l-8 19l-9 19l-9 19l-9 17l-10 17l-10 16l-12 15l-11 14l-13 13l-13 11l-14 11l-14 9l-15 7l-16 6l-17 4l-18 3l-18 1h-2l-22 -1l-22 -4l-20 -6l-18 -8l-16 -10
l-13 -12l-11 -13l-8 -16l-5 -18l-2 -19l2 -18l5 -18l8 -16l11 -14l16 -13l21 -9l26 -4l23 2l18 7l13 11l9 13l5 28l-8 25l-17 12h-26l-20 4l-12 17l3 20l17 12l22 3l19 -1l18 -5l15 -8l14 -10l11 -13l9 -16l6 -17l3 -19v-18l-4 -19l-6 -18l-9 -15l-11 -14l-13 -12l-16 -10
l-19 -7l-21 -5l-24 -1l-21 2l-19 4l-18 6l-16 8l-14 10l-13 12l-12 15l-11 16l-8 17l-5 18l-4 18l-1 19v1l1 22l4 20l7 19l9 17l11 16l13 14l15 13l16 10l17 9l18 8l19 5l20 5l20 2l21 1h2l20 -1l19 -2l19 -4l17 -5l17 -6l16 -8l16 -9l14 -10l14 -11l13 -12l13 -13l12 -14
l11 -15l11 -16l10 -17l10 -17l9 -17l9 -19l8 -19l8 -19l7 -20l7 -20l6 -20l6 -20l6 -21l6 -21l5 -21l5 -20l4 -21l5 -21l4 -20l4 -20l4 -20l4 20l5 20l4 21l5 20l4 20l5 20l4 20l4 21l5 20l4 20l5 20l4 21l5 20l4 20l-4 21l-4 19l-4 19l-4 18l-3 17l-3 16l4 20l17 12l20 -4
l12 -17l4 -18l3 -18l4 -19l4 -20l4 -20l4 -22l4 -20l4 -20l4 -20l4 -20l4 -20l4 -20l4 -20l4 -20l4 -20l4 -19l4 -18l4 -19l4 -18l3 -18l4 -19l4 20l5 19l4 20l4 20l5 19l4 20l4 20l5 19l4 20l4 20l4 20l5 19l4 20l4 20l5 19l4 20l4 20l5 19l4 20v1l6 21l7 19l10 17l13 16
l14 12l16 10l18 6l19 4l20 -6z" />
    <glyph glyph-name="X" unicode="X" horiz-adv-x="698" 
d="M711 624l17 -12l4 -20l-12 -17l-21 -4l-21 2l-18 -6l-13 -8l-12 -12l-11 -16l-9 -18l-9 -18l-9 -19l-8 -18l-9 -18l-9 -18l-8 -18l-9 -18l-8 -18l-9 -18l-8 -18l-10 -22l8 -18l8 -18l7 -17l8 -18l8 -18l8 -18l8 -18l7 -18l8 -17l8 -18l8 -18l8 -18l8 -18l7 -17l8 -18
l8 -18v-20l-14 -15l-21 -1l-15 15l-8 19l-8 18l-8 19l-9 18l-8 19l-8 19l-8 18l-8 19l-8 19l-9 18l-8 19l-8 18l-8 19l-9 -19l-9 -20l-9 -19l-9 -18l-8 -19l-9 -18l-10 -19l-10 -18l-11 -18l-11 -17l-12 -15l-13 -14l-16 -14l-16 -11l-18 -9l-18 -5l-19 -1l-21 3l-17 11
l-4 21l12 17l21 3h20l20 8l18 15l12 14l12 16l11 18l11 19l10 20l8 17l9 17l8 17l8 17l8 18l8 17l8 17l9 17l8 17l-8 18l-8 19l-9 18l-8 19l-8 18l-9 22l-9 21l-10 19l-11 19l-11 18l-12 17l-13 15l-14 14l-14 12l-15 10l-15 9l-17 7l-18 5l-19 4l-20 1h-1l-22 -1l-22 -3
l-21 -5l-18 -8l-17 -10l-13 -11l-11 -14l-8 -15l-6 -18l-2 -19v-1l1 -18l5 -17l7 -16l11 -15l16 -13l21 -10l25 -4l23 2l19 6l13 10l9 13l5 14l1 15l-8 24l-16 13l-26 1l-21 4l-11 17l4 20l17 12l22 2l20 -1l17 -5l15 -9l13 -11l11 -13l9 -16l5 -17l3 -19l-1 -18l-3 -18
l-7 -18l-9 -15l-11 -13l-14 -12l-16 -10l-19 -7l-22 -4l-24 -1l-21 2l-19 5l-17 6l-16 9l-14 10l-13 12l-12 15l-10 16l-7 17l-5 19l-3 19l-1 19v1l2 22l4 20l8 18l9 17l12 16l13 14l15 12l16 10l17 8l18 7l19 6l21 3l20 3h21h1l21 -1l19 -3l19 -4l18 -6l17 -7l16 -9l15 -10
l15 -11l14 -12l13 -13l12 -13l11 -14l11 -16l10 -16l10 -16l9 -18l9 -18l8 -18v-1l7 -17l8 -17l7 -17l8 -17l9 19l8 18l9 19l9 18l9 18l8 18l9 18l8 18l9 17l10 21l13 18l13 15l15 12l16 10l18 7l18 4l20 1z" />
    <glyph glyph-name="Y" unicode="Y" horiz-adv-x="646" 
d="M685 614l19 -7l8 -19l-8 -19l-19 -9l-21 -3l-16 -9l-10 -11l-9 -14l-9 -22l-8 -18l-8 -19l-8 -18l-8 -19l-8 -18l-8 -18l-9 -19l-8 -18l-8 -18l-8 -19l-8 -18l-8 -19l-8 -18v-19v-19v-18v-19v-19v-19v-18v-19h1v-21l-1 -18l-3 -16l-4 -15l-9 -16l-13 -13l-17 -8l-22 -5
l-20 6l-10 18l6 20l18 10l17 8l2 12l1 17v21h1v19v19v19l-1 19v19v19v19v19l-5 21l-5 21l-6 21l-6 20l-6 20l-7 20l-7 20l-8 18l-8 19l-9 17l-9 17l-10 16l-12 17l-13 16l-14 14l-16 13l-16 11l-17 10l-19 7l-20 6l-21 4l-25 1h-3l-22 -1l-21 -4l-20 -6l-18 -8l-17 -10
l-15 -14l-12 -18l-8 -20l-3 -25v-1l2 -18l5 -18l8 -16l11 -14l16 -13l21 -9l26 -4l23 2l18 7l13 11l9 13l5 28l-8 25l-17 12h-26l-21 4l-11 17l3 20l17 12l22 3l19 -1l18 -5l15 -8l14 -10l11 -13l9 -16l6 -17l3 -19v-18l-4 -19l-6 -18l-9 -15l-11 -14l-13 -12l-16 -10
l-19 -7l-21 -5l-24 -1l-21 2l-19 4l-18 6l-16 8l-14 10l-13 12l-12 15l-11 16l-8 17l-5 18l-4 18l-1 19v1v4l2 21l4 20l7 18l9 17l11 15l12 14l15 12l15 10l17 9l18 8l19 5l20 5l20 2l21 1h5l22 -1l22 -3l20 -4l19 -6l18 -7l17 -9l17 -10l15 -11l15 -12l13 -14l13 -14
l13 -16l11 -16l10 -15l9 -16l9 -17l8 -16l8 -18l7 -18l7 -18l6 -18l6 -19l6 -19l8 19l9 19l8 19l9 19l8 20l9 19l8 19l9 19l8 19l8 20l10 18l11 16l13 13l15 11l17 8l19 4z" />
    <glyph glyph-name="Z" unicode="Z" horiz-adv-x="397" 
d="M368 109l6 -20l3 -20l-1 -21l-4 -21l-7 -20l-11 -19l-11 -14l-13 -13l-16 -11l-17 -9l-19 -6l-21 -4h-23l-25 3l-19 5l-17 8l-16 10l-14 11l-13 12l-13 12l-13 13l-14 12l-15 10l-17 8l-18 3l-19 9l-6 20l3 11l8 18l9 18l8 17l9 18l8 18l8 18l9 18l8 18l9 17l8 18l8 18
l9 18l8 18l9 17l8 18l9 18l8 18l8 18l9 17l8 18l9 18l8 18l8 18l9 18l8 17l9 18l8 18h-19l-19 1h-19l-19 1l-22 1l-19 -1l-14 -3l-6 -11l-7 -19l-19 -8l-19 8l-9 19l3 23l8 18l14 12l18 9l16 4l17 2h19h21l19 -1h20l19 -1h20l19 -1h20l12 -2l14 -16l-1 -20l-9 -18l-8 -18
l-9 -18l-8 -18l-9 -19l-8 -18l-9 -18l-8 -18l-9 -18l-9 -18l-8 -18l-9 -18l-8 -18l-9 -19l-8 -18l-9 -18l-8 -18l-9 -18l-9 -18l-8 -18l-9 -18l-8 -18l-9 -19l-8 -18l-9 -18l-8 -18l-9 -18l17 -8l16 -10l14 -11l14 -12l13 -13l15 -15l15 -13l16 -10l18 -6l25 -2l21 3l18 7
l15 10l11 13l9 18l4 18l1 18l-5 16l-9 13l-14 9l-19 3l-17 -7l-7 -20l-9 -19l-20 -7l-19 10l-6 19l3 22l8 18l11 15l16 12l18 8l20 3h1l23 -2l19 -5l17 -9l14 -12l12 -14z" />
    <glyph glyph-name="bracketleft" unicode="[" horiz-adv-x="146" 
d="M106 3h-22h-21h-22l-19 8l-8 19v20v19v20v20v19v20v19v20v20v19v20v20v19v20v19v20v20v19v20v20v19v20v19v20v20v19v20l8 19l19 8h21h21h21l19 -8l8 -19l-8 -19l-19 -8h-18h-18v-20v-20v-20v-19v-20v-20v-20v-20v-20v-19v-20v-20v-20v-20v-20v-19v-20v-20v-20v-20v-20
v-19v-20v-20h19h19l19 -8l8 -19l-8 -19z" />
    <glyph glyph-name="backslash" unicode="\" horiz-adv-x="241" 
d="M226 38l-2 -20l-16 -14l-20 2l-13 16l-6 19l-6 20l-6 19l-6 19l-6 20l-6 19l-6 20l-6 19l-6 19l-6 20l-6 19l-6 19l-6 20l-6 19l-6 20l-6 19l-6 19l-6 20l-6 19l-6 19l-6 20l-6 19l-6 20l-6 19l-6 19l-6 20l-6 19l2 20l16 14l20 -2l14 -16l6 -19l6 -20l6 -19l6 -19l6 -20
l6 -19l6 -20l6 -19l6 -19l6 -20l6 -19l6 -19l6 -20l5 -19l6 -20l6 -19l6 -19l6 -20l6 -19l6 -19l6 -20l6 -19l6 -20l6 -19l6 -19l6 -20z" />
    <glyph glyph-name="bracketright" unicode="]" horiz-adv-x="149" 
d="M41 587h22h21h22l19 -8l8 -19v-20v-19v-20v-20v-19v-20v-19v-20v-20v-19v-20v-20v-19v-20v-19v-20v-20v-19v-20v-20v-19v-20v-19v-20v-20v-19v-20l-8 -19l-19 -8h-21h-21h-21l-19 8l-8 19l8 19l19 8h18h18v20v20v19v20v20v20v20v20v19v20v20v20v20v20v19v20v20v20v20v20
v19v20v20v20h-19h-19l-19 8l-8 19l8 19z" />
    <glyph glyph-name="asciicircum" unicode="^" horiz-adv-x="286" 
d="M272 335l1 -21l-13 -15l-21 -2l-15 14l-9 18l-9 18l-9 18l-9 18l-8 19l-9 18l-9 18l-9 18l-9 18l-9 -18l-9 -18l-9 -18l-9 -18l-8 -19l-9 -18l-9 -18l-9 -18l-9 -18l-15 -14l-21 2l-14 15l2 21l9 18l8 17l9 18l9 18l8 17l9 18l9 18l8 17l9 18l9 18l8 17l9 18l15 13l21 -1
l12 -12l9 -18l8 -17l9 -18l9 -18l8 -17l9 -18l9 -18l8 -17l9 -18l9 -18l8 -17z" />
    <glyph glyph-name="underscore" unicode="_" horiz-adv-x="338" 
d="M302 12l19 -8l8 -19l-8 -19l-19 -8h-20h-20h-21h-20h-20h-20h-21h-20h-20h-20h-21h-20h-20l-19 8l-8 19l8 19l19 8h20h20h21h20h20h20h21h20h20h20h21h20h20z" />
    <glyph glyph-name="grave" unicode="`" horiz-adv-x="156" 
d="M154 464l11 -18l-5 -20l-18 -11l-20 5l-17 12l-15 13l-17 12l-17 12l-17 12l-16 13l-17 12l-11 18l6 19l17 12l20 -5l17 -12l15 -13l17 -12l17 -12l17 -12l16 -13z" />
    <glyph glyph-name="a" unicode="a" horiz-adv-x="268" 
d="M220 62l17 -8l18 -10l6 -20l-10 -18l-20 -6l-21 4l-16 8l-12 11l-21 -14l-21 -7l-20 -2l-20 2l-20 6l-17 11l-16 16l-14 20l-6 14l-6 15l-4 16l-4 19l-3 20l-1 21l-1 24v18l1 18l3 20l3 20l4 20l6 19l7 19l9 18l11 17l14 15l15 12l18 10l21 6l23 2h17l18 -3l21 -8l16 -9
l15 -13l15 -17l13 -22l2 -21l-13 -16l-16 -3l-14 4v-20v-20v-19v-20v-20v-20v-19v-20v-20v-21l1 -17zM171 309l19 8l11 -2l-13 14l-13 9l-17 6l-15 1l-23 -5l-19 -13l-13 -18l-9 -19l-7 -21l-5 -21l-3 -22l-2 -22v-20l1 -27l2 -24l4 -20l5 -17l7 -15l18 -20l21 -7l14 2l14 9
l9 12l6 19v16v20v20v19v20v20v20v19v20v20z" />
    <glyph glyph-name="b" unicode="b" horiz-adv-x="286" 
d="M269 254l1 -24v-21l-2 -22l-2 -21l-4 -20l-4 -20l-6 -19l-6 -18l-8 -16l-12 -20l-13 -17l-16 -15l-17 -11l-18 -7l-21 -3l-17 1l-17 4l-16 7l-12 8l-12 -10l-16 -6l-19 -4l-20 6l-10 18l6 20l18 10l16 8l3 20l1 29v20v20v19v20v20v20v19v20v20v20v19v20v20v20v20v19v20
v20v20v19v20v20l8 19l19 8l19 -8l8 -19v-19v-20v-19v-19v-20v-19l17 5l18 2l22 -2l20 -5l18 -9l16 -12l14 -15l13 -19l8 -17l7 -18l6 -20l5 -21l3 -22zM176 75l14 22l7 16l6 17l4 19l4 19l3 20l1 20l1 21l-1 23l-2 23l-4 21l-4 19l-6 17l-9 18l-14 18l-18 11l-23 4l-22 -8
h-1l-12 -15v-21v-21v-20v-21v-21v-21v-20v-21v-21v-21v-20v-21v-20l-1 -18l17 -13l23 -6l20 6z" />
    <glyph glyph-name="c" unicode="c" horiz-adv-x="273" 
d="M233 156l18 -10l6 -20l-3 -21l-5 -20l-8 -18l-9 -16l-11 -14l-14 -14l-15 -10l-17 -8l-18 -4l-18 -1l-18 3l-17 5l-15 9l-15 11l-12 14l-12 16l-9 18l-9 20l-7 21l-6 22l-3 18l-3 18l-1 19l-1 18v19l1 19l2 19l2 18l3 18l4 18l7 22l8 20l9 19l11 17l12 15l13 13l15 10
l17 8l18 4l19 2l22 -3l19 -8l17 -12l13 -17l8 -19l2 -21l-3 -23l-9 -23l-16 -13l-21 3l-13 16l3 20l6 20l-4 13l-9 9l-15 4l-18 -3l-15 -9l-14 -14l-12 -18l-10 -22l-8 -24l-4 -19l-3 -19l-2 -20l-1 -21v-20l1 -20l3 -20l3 -20l7 -25l9 -23l10 -20l13 -14l14 -10l16 -4l21 5
l19 14l11 16l7 19l5 23l9 18z" />
    <glyph glyph-name="d" unicode="d" horiz-adv-x="269" 
d="M218 62l17 -8l17 -10l6 -20l-10 -18l-20 -6l-21 4l-16 8l-12 11l-21 -14l-21 -7l-20 -2l-20 2l-20 6l-17 11l-16 16l-13 20l-6 14l-6 15l-5 16l-4 19l-3 20l-1 21l-1 24v18l1 18l3 20l3 20l4 20l6 19l7 19l9 18l11 17l14 15l15 12l18 10l21 6l23 2l20 -1v19v19v19v18v19
v19v19v19l8 19l19 8l19 -8l8 -19v-20v-21v-20v-21v-20v-21v-20v-21v-27v-21v-20v-21v-20v-21v-20v-21v-20v-21v-20v-21v-20v-29zM96 61l21 -7l14 2l14 9l9 13l6 20v13v19v20v19v19v20v19v19v20v19v19v20l-3 19h-1l-16 2l-23 -5l-19 -13l-13 -18l-9 -19l-7 -21l-5 -21l-3 -22
l-2 -22v-20l1 -27l2 -24l4 -20l5 -17l7 -15z" />
    <glyph glyph-name="e" unicode="e" horiz-adv-x="275" 
d="M213 151l20 7l18 -9l7 -20l-3 -22l-6 -20l-8 -18l-11 -17l-12 -14l-15 -14l-17 -10l-18 -8l-19 -5l-20 -1l-17 2l-17 5l-16 7l-15 11l-14 14l-12 18l-7 14l-6 15l-5 16l-4 18l-3 20l-2 22v23l1 15l1 21l2 19l4 20l4 20l6 19l8 19l9 18l11 17l13 15l15 13l18 9l20 6l23 3
l23 -3l21 -9l17 -14l12 -18l7 -20l2 -23l-4 -22l-10 -23l-8 -11l-9 -11l-12 -10l-14 -10l-17 -9l-18 -8l-21 -6l-24 -6l-26 -13v-25l3 -23l4 -19l5 -17l7 -14l14 -17l16 -11l17 -3l17 2l17 7l15 13l12 15l8 19l4 23zM106 327l-14 -18l-9 -19l-7 -21l-5 -22l25 5l22 7l18 8
l14 9l10 9l8 10l7 20l-4 15l-24 15l-23 -5z" />
    <glyph glyph-name="f" unicode="f" horiz-adv-x="280" 
d="M295 496l-3 -23l-9 -23l-16 -13l-20 2l-13 16l1 20l6 20l-4 13l-1 2l-8 7l-16 3l-22 -3l-17 -9l-13 -13l-10 -18l-6 -17l-5 -19l-3 -21l-1 -21h20h20h21h20l19 -8l8 -19l-8 -20l-19 -8h-21h-20h-21h-20v-20v-19v-20v-19v-20v-19v-19v-20v-20v-19v-20v-19v-20v-19v-20v-19
v-20v-19v-26l-2 -23l-6 -20l-9 -16l-12 -13l-17 -8l-22 -5l-20 6l-10 18l6 20l18 10l16 8l3 20l1 29v19v20v19v20v19v20v19v20v19v20v19v20v19v20v19v20v19v20l-20 -3l-8 -16l-10 -18l-20 -5l-18 10l-6 20l5 22l9 16l13 13l16 8l19 5l20 2l2 21l3 21l4 21l5 19l7 19l9 18
l11 16l13 14l16 11l18 8l21 6l23 2l22 -2l19 -7l16 -11l14 -17l8 -19z" />
    <glyph glyph-name="g" unicode="g" horiz-adv-x="266" 
d="M261 383l2 -20l-13 -16l-21 -2l-16 13l-11 18l-12 12l-14 8l-15 5l-15 1l-17 -3l-15 -7l-12 -11l-10 -15l-8 -17l-6 -20l-5 -21l-3 -21l-3 -22l-1 -22l-1 -20v-19v-16v-4l1 -27l2 -24l4 -20l5 -17l7 -15l18 -20l21 -7l14 3l13 9l10 14l7 21l-1 20v21v21v21v21v20v21v20
v19v18v18v17l8 19l19 8l19 -8l8 -19v-17v-18v-18v-19v-20v-21v-20v-21v-21v-21v-21l1 -25v-23v-23v-21v-21v-20v-19l-1 -19l-1 -19l-2 -18l-4 -18l-5 -17l-8 -19l-11 -16l-13 -13l-17 -11l-19 -6l-24 -3l-22 2l-19 7l-17 12l-13 16l-9 19l-3 21l2 23l9 24l16 13l21 -2
l13 -16l-2 -20l-5 -20l4 -14l9 -8l15 -3l20 4l14 12l9 16l4 16l3 18l1 18l1 20v19v25l-22 -9l-22 -3l-20 2l-20 6l-17 11l-16 16l-14 20l-6 14l-6 15l-4 16l-4 19l-3 20l-1 21l-1 24v4v15v18l1 18l1 20l1 21l3 20l3 21l5 21l6 20l7 19l10 17l10 16l13 14l15 11l18 9l20 6
l22 2l16 -1l17 -3l23 -8l15 -9l16 -13l14 -17z" />
    <glyph glyph-name="h" unicode="h" horiz-adv-x="273" 
d="M254 -64l18 -10l6 -20l-10 -18l-20 -6l-22 5l-17 8l-12 13l-9 16l-6 20l-2 23v26v19v19v19v19v20v19v19v19v19v19l1 23v22l1 23v23l-1 22l-1 21l-2 18l-3 14l-9 17l-1 1l-10 4l-18 -6l-18 -18l-9 -13l-9 -15l-6 -17l-5 -19v-20v-20v-19v-20v-20v-20v-19v-20v-20v-20v-19
v-20v-20l-8 -19l-19 -8l-19 8l-8 19v20v20v19v20v20v20v19v20v20v20v19v20v20v20v20v19v20v20v20v19v20v20v21l-1 17l-3 12l-16 8l-18 10l-6 20l10 18l20 6l22 -5l17 -9l13 -12l9 -16l4 -15l2 -16l1 -19v-20v-22v-21v-22l15 12l16 9l17 6l16 2l17 -2l15 -5l16 -12l14 -18
l11 -24l4 -15l2 -17l2 -20v-21l1 -21v-22l-1 -22v-21l-1 -22v-19v-19v-19v-19v-19v-20v-19v-19v-19v-19v-29l4 -20z" />
    <glyph glyph-name="i" unicode="i" horiz-adv-x="124" 
d="M79 62l16 -8l18 -10l6 -20l-10 -18l-20 -5l-22 5l-18 8l-12 13l-9 16l-5 20l-2 23v26v20v20v20v20v20v20v19v20v20v20v20v20v20l8 20l19 8l19 -8l8 -20v-20v-20v-20v-20v-20v-20v-19v-20v-20v-20v-20v-20v-20v-21l1 -17zM64 426l-17 -5l-17 5l-12 11l-5 17l5 17l12 11
l17 5l17 -5l12 -11l5 -17l-5 -17z" />
    <glyph glyph-name="j" unicode="j" horiz-adv-x="110" 
d="M90 280v-20v-20v-21v-20v-21v-21v-20v-21v-20v-20v-19v-18v-18v-17v-16v-19l-1 -19l-1 -19l-2 -18l-3 -18l-5 -17l-9 -19l-10 -16l-14 -13l-17 -11l-19 -6l-24 -3l-22 2l-19 7l-17 12l-13 16l-9 19l-3 21l2 23l9 24l16 13l21 -2l13 -16l-2 -20l-5 -20l4 -14l9 -8l15 -3
l20 4l14 12l9 16l4 16l3 18l1 19l1 19v20v16v17v18v18v19v20v20v20v21v21v20v21v21v20v20v20v19v18v18v16l8 19l19 8l19 -8l8 -19v-16v-18v-18v-19v-20zM82 426l-17 -5l-17 5l-12 11l-5 17l5 17l12 11l17 5l17 -5l12 -11l5 -17l-5 -17z" />
    <glyph glyph-name="k" unicode="k" horiz-adv-x="283" 
d="M467 -61l16 -13l1 -21l-8 -21l-10 -18l-12 -15l-13 -13l-16 -11l-18 -8l-19 -4l-20 -2l-19 1l-18 4l-16 7l-15 9l-13 11l-12 14l-10 15l-10 17l-9 18l-9 20l-8 20l-7 21l-8 22l-7 22l-7 23l-8 22l-7 22l-9 21l-8 19l-10 18l-10 16l-12 14l-12 11l-14 8l-15 5v-21v-21v-20
v-21v-21v-21v-20v-21l-8 -19l-19 -8l-19 8l-8 19v20v20v19v20v20v20v19v20v20v20v19v20v20v20v20v19v20v20v20v19v20v20v21l-1 17l-3 12l-16 8l-18 10l-6 20l10 18l20 6l22 -5l17 -9l13 -12l9 -16l4 -15l2 -16l1 -19v-20v-19v-20v-19v-20v-19v-19v-20v-19v-20v-19l10 16
l10 16l11 16l10 16l10 16l10 16l11 16l11 18l5 7l13 18l14 14l18 12l24 6l19 -5l11 -18l-5 -20l-18 -11l-18 -9l-14 -18l-5 -7l-10 -17l-11 -16l-10 -17l-11 -16l-10 -17l-10 -16l-11 -17l-10 -16l15 -9l14 -12l13 -13l11 -15l11 -16l9 -18l9 -19l9 -19l7 -21l8 -21l7 -21
l7 -21l8 -25l8 -24l9 -23l9 -22l9 -19l11 -17l12 -14l12 -10l14 -7l16 -2l21 3l19 10l10 10l9 14l7 18l14 16z" />
    <glyph glyph-name="l" unicode="l" horiz-adv-x="166" 
d="M329 -31l8 -19l-7 -19l-15 -13l-17 -10l-19 -7l-19 -3h-19l-21 4l-16 5l-16 8l-16 9l-15 11l-16 12l-16 12l-17 12l-18 11l-18 9l-19 6l-19 3l-19 9l-6 20l7 17l17 8l16 8l3 12l1 17v21v20v21v20v21v20v21v20v21v20v21h-1v19v20v19v19v20v19v19v20v19v19v20v19l8 19l20 8
l19 -8l8 -19v-19v-20v-19v-19v-20v-19v-19v-20v-19v-19v-20v-19v-21v-20v-21v-20v-21v-20v-21v-20v-21v-20v-21l-1 -18l-2 -16l-6 -19l20 -10l19 -12l19 -13l17 -13l22 -16l19 -12l18 -8l18 -2l16 2l25 15l19 8z" />
    <glyph glyph-name="m" unicode="m" horiz-adv-x="397" 
d="M391 -64l18 -10l6 -20l-11 -18l-19 -6l-22 5l-18 8l-12 13l-9 16l-5 20l-2 23l-1 26v21v20v21l1 21v21v20v21v19l1 23v22l1 22v23l-1 22l-1 20l-2 18l-3 14v1l-10 18l-1 1l-10 4l-18 -7l-18 -18l-10 -17l-7 -20l-2 -24v-17v-17v-18v-12v-17l-1 -19v-21v-22l-1 -26v-25
v-21v-17l-8 -19l-19 -8l-19 8l-8 19v10v19v28l1 32v23v21l1 20v16v12v24v31v14l-2 26l-4 19l-10 19l-11 4l-18 -7l-18 -18l-10 -17l-7 -20l-2 -24v-19v-20v-19v-19v-20v-19v-19v-20v-19v-19v-20v-19l-8 -19l-19 -8l-19 8l-8 19v20v20v19v20v20v20v20v19v20v20v20v20v20v19
v20v20v21l-1 17l-3 12l-16 8l-18 10l-6 20l10 18l20 6l22 -5l17 -9l13 -12l9 -16l5 -17l2 -20l18 12l18 7l19 2l16 -1l16 -6l14 -10l17 -20l16 15l18 12l19 7l19 3l17 -1l15 -6l17 -11l14 -18l10 -24l1 -1l4 -15l2 -18l2 -19v-21l1 -22l-1 -22v-21l-1 -21v-22v-18v-21v-20
v-21l-1 -21v-21v-20v-21l1 -29l3 -20z" />
    <glyph glyph-name="n" unicode="n" horiz-adv-x="265" 
d="M256 -64l18 -10l6 -20l-10 -18l-20 -6l-22 5l-17 8l-13 13l-9 16l-5 20l-2 23v26v19v19v19v19v20v19v19v19v19v20l1 22v23l1 23v23l-1 22l-1 20l-2 18l-3 14l-9 18h-1l-11 4l-19 -7l-18 -18l-11 -17l-6 -20l-3 -23v-20v-20v-20v-20v-20v-20v-20v-20v-20v-20v-20v-20v-20
l-8 -19l-19 -8l-19 8l-8 19v20v20v19v20v20v20v20v19v20v20v20v20v20v19v20v20v21l-1 17l-3 12l-16 8l-18 10l-6 20l10 18l20 6l22 -5l17 -9l13 -12l9 -16l3 -13l20 14l20 8l21 3l17 -2l15 -5l16 -12l14 -17l11 -24l4 -15l2 -18l2 -20v-21l1 -21v-22l-1 -22v-21l-1 -22v-19
v-19v-19v-19v-19v-20v-19v-19v-19v-19v-29l4 -20z" />
    <glyph glyph-name="o" unicode="o" 
d="M207 375l10 -17l8 -16l6 -18l5 -19l5 -20l3 -20l1 -21l1 -21v-3v-20l-2 -21l-2 -20l-4 -21l-5 -20l-5 -19l-7 -18l-9 -19l-11 -18l-12 -15l-13 -12l-15 -9l-17 -6l-18 -2h-4l-18 3l-16 7l-15 10l-12 13l-12 15l-10 18l-8 19l-6 18l-5 19l-3 21l-3 20l-2 21l-1 21v20l1 10
l1 20l3 21l4 19l5 19l6 18l7 16l8 15l13 19l15 16l18 12l19 7l21 2l18 -2l17 -6l15 -9l13 -12zM192 220v3l-1 20l-2 20l-3 19l-4 19l-6 17l-7 15l-11 17l-13 11l-14 5l-14 -4l-13 -10l-11 -16l-9 -17l-7 -20l-5 -21l-4 -23l-3 -32v-20l1 -21l2 -20l4 -20l4 -20l6 -18l12 -25
l14 -17l17 -8h1l17 7l15 16l13 25l6 18l6 19l4 20l3 20l1 21z" />
    <glyph glyph-name="p" unicode="p" horiz-adv-x="287" 
d="M270 246v-15v-21l-1 -21l-3 -21l-3 -20l-5 -20l-6 -19l-6 -18l-8 -17l-11 -20l-14 -17l-15 -14l-17 -11l-18 -7l-21 -3l-22 1l-20 6v-19v-20v-19v-19v-19v-20v-19l-8 -19l-19 -8l-19 8l-8 19v20v21v20v20v21v20v20v21v20v20v21v20v21v20v20v21v20v20v21v20v20v21v20
l-1 29l-3 20l-16 8l-18 10l-6 20l10 18l20 6l19 -4l15 -6l12 -9l15 10l17 6l18 3h1h2h1l21 -2l19 -5l17 -7l15 -11l13 -13l12 -15l10 -17l8 -17l7 -18l5 -19l4 -20l3 -20l3 -22zM176 77l14 22l7 16l6 17l5 19l4 19l2 20l2 20v21v13l-1 21l-3 21l-3 20l-5 19l-5 17l-7 16
l-11 17l-13 13l-17 8l-19 3h-2l-20 -9l-10 -18v-14v-16v-21v-20v-21v-20v-21v-21v-20v-21v-21v-20v-21v-20v-21l16 -13l23 -5l20 6z" />
    <glyph glyph-name="q" unicode="q" horiz-adv-x="256" 
d="M249 392l10 -18l-6 -19l-18 -10l-18 -12l-2 -19v-27v-19v-19v-19v-19v-20v-19v-19v-19v-19v-23v-20v-20v-20v-20v-20v-19v-20v-20v-20v-20v-20l-8 -19l-19 -8l-19 8l-8 19v20v19v20v19v20v19v20l-22 -8l-21 -2l-20 2l-20 6l-17 11l-16 16l-14 20l-6 14l-6 15l-4 16l-4 19
l-3 20l-1 21l-1 24v18l1 18l3 20l3 20l4 20l6 19l7 19l9 18l11 17l14 15l15 12l18 10l21 6l23 2l23 -3l24 -11l17 9l24 5zM132 56l14 9l9 12l6 20v19v19v19v19v19v19v19v19v19v19v26l-4 27l-16 5l-23 -5l-19 -13l-13 -18l-9 -19l-7 -21l-5 -21l-3 -22l-2 -22v-20l1 -27
l2 -24l4 -20l5 -17l7 -15l18 -20l21 -7z" />
    <glyph glyph-name="r" unicode="r" horiz-adv-x="287" 
d="M433 -63l20 1l16 -13l1 -21l-8 -21l-10 -18l-12 -15l-13 -13l-16 -11l-18 -8l-20 -4l-20 -2l-20 1l-19 5l-16 7l-14 10l-13 13l-11 14l-9 17l-8 18l-8 20l-6 21l-6 22l-5 22l-5 23l-5 24l-5 25l-6 24l-5 23l-7 23l-7 21l-8 18l-10 17l-10 14l-13 11l-14 7l-16 3l-12 3
v-19v-19v-19v-19v-20v-19v-19v-19v-19v-19l-8 -19l-19 -8l-19 8l-8 19v20v19v20v20v20v19v20v20v20v19v20v20v20v19v20v20l-1 30l-3 19l-16 9l-18 10l-6 19l9 17l18 7l26 1h19h19l20 -1l19 -1l19 -3l18 -5l17 -6l15 -9l13 -11l11 -14l8 -17l4 -21l2 -24l-2 -26l-5 -22
l-7 -19l-9 -16l-11 -13l-12 -10l-2 -2l11 -12l10 -14l9 -15l7 -17l7 -18l7 -18l5 -20l5 -20l5 -20l5 -21l4 -21l5 -24l5 -23l5 -23l6 -21l7 -20l7 -17l9 -16l9 -12l12 -9l12 -6l15 -2l21 3l19 10l10 10l9 14l7 18zM156 281h1l11 12l8 20l4 30l-3 21l-10 16l-15 10l-18 6
l-21 4l-22 1l3 -17l1 -19v-22v-20v-19v-20v-19l13 4l17 1l16 3z" />
    <glyph glyph-name="s" unicode="s" horiz-adv-x="280" 
d="M266 151l1 -22l-2 -20l-5 -19l-6 -17l-9 -15l-10 -14l-13 -12l-13 -10l-15 -9l-24 -8l-24 -5h-22l-21 4l-21 6l-19 10l-18 13l-13 13l-11 15l-8 16l-6 17l-4 17l-1 24l3 23l8 22l12 19l13 12l16 9l19 5h15l24 -4l21 -11l12 -12l8 -16l5 -19l1 -18l-9 -19l-19 -8l-19 9
l-7 19l-1 10l-5 12l-19 3l-14 -8l-8 -18l-1 -26l4 -17l8 -16l11 -13l19 -11l21 -7l22 -1l15 3l14 5l23 18l9 13l6 15l3 18v21l-5 22l-9 19l-14 15l-16 14l-18 12l-18 12l-16 10l-16 10l-15 11l-13 12l-12 14l-9 16l-7 17l-4 21v21l4 19l7 17l11 14l13 12l15 9l20 8l21 3h21
l21 -4l16 -6l15 -9l13 -11l12 -14l9 -16l7 -19l4 -21l-6 -20l-18 -10l-20 6l-10 19l-6 23l-14 17l-17 9l-23 2l-21 -5l-16 -15l-4 -24l5 -18l10 -15l15 -13l17 -12l19 -12l16 -10l16 -11l16 -11l14 -12l13 -14l12 -16l9 -18l6 -21z" />
    <glyph glyph-name="t" unicode="t" horiz-adv-x="253" 
d="M233 124l8 -24l3 -23l-4 -21l-8 -19l-13 -16l-17 -12l-19 -7l-22 -2l-24 3l-20 7l-17 10l-13 13l-11 17l-8 18l-5 17l-3 18l-3 18l-1 19v19v19v15v17v19v21v21v22v24v23v20v21v21h-22h-22l-19 8l-8 19l8 19l19 8h22h22v21v20v19l8 19l19 8l19 -8l8 -19v-19v-20v-21h12h22
l18 1l12 2l9 16l10 18l20 6l18 -11l5 -20l-5 -22l-9 -17l-12 -12l-17 -8l-15 -4l-17 -2l-18 -1h-21h-12v-21v-21v-20v-24v-23v-22v-22v-20v-19v-17v-15v-19v-20l2 -19l3 -18l4 -16l9 -16l14 -11l20 -5l15 3l9 9l4 13l-5 20l-2 21l13 15l21 2z" />
    <glyph glyph-name="u" unicode="u" horiz-adv-x="311" 
d="M283 54l18 -10l6 -20l-10 -18l-20 -6l-21 5l-16 7l-13 11l-21 -14l-21 -7l-18 -2l-22 1l-20 4l-17 7l-14 11l-11 13l-10 16l-6 14l-4 15l-4 17l-2 19l-2 20l-1 23v24v19v20v19v20v19v20v19v20v21l-1 17l-3 12l-16 8l-18 10l-6 20l10 18l20 6l22 -5l17 -9l13 -12l9 -16
l4 -15l2 -16l1 -19v-20v-20v-19v-20v-19v-20v-19v-20v-19v-29l2 -25l2 -22l4 -18l5 -14l10 -12l15 -8l21 -2l12 3l15 9l9 12l6 18v16v20v20v20v20v20v20v19v20v20v20v20v20v20l8 19l19 8l19 -8l8 -19v-20v-20v-20v-20v-20v-20v-19v-20v-20v-20v-20v-20v-20v-21l1 -17l3 -12z
" />
    <glyph glyph-name="v" unicode="v" horiz-adv-x="274" 
d="M247 481l7 -14l5 -16l4 -18l1 -19l-1 -22l-2 -17l-3 -18l-3 -20l-5 -20l-5 -21l-5 -21l-6 -22l-6 -22l-7 -25l-8 -24l-7 -24l-8 -23l-7 -22l-7 -21l-7 -20l-6 -17l-6 -16l-5 -13l-4 -10l-14 -14l-21 -1l-16 18l-5 19l-6 19l-5 19l-6 20l-5 19l-5 19l-6 19l-5 19l-6 19
l-5 20l-5 19l-6 19l-5 19l-5 19l-6 19l-5 20l-6 19l-5 19l2 20l17 13l20 -2l13 -17l5 -19l6 -19l5 -19l5 -18l6 -19l5 -19l5 -19l6 -19l5 -19l6 -19l5 -18l5 -19l6 -19l5 -19l6 17l6 18l6 19l5 19l6 19l6 20l6 20l6 21l5 21l5 20l5 19l4 19l3 18l3 17l2 16l1 23l-3 19l-6 14
l-14 14l-14 2l-16 -10l-18 -9l-20 6l-9 19l6 19l14 14l16 9l18 5l23 1l24 -8l14 -8l12 -11z" />
    <glyph glyph-name="w" unicode="w" horiz-adv-x="436" 
d="M406 481l7 -14l5 -16l4 -18l1 -19l-1 -22l-2 -17l-3 -18l-4 -20l-4 -20l-5 -21l-5 -21l-6 -22l-6 -22l-7 -25l-8 -24l-7 -24l-8 -23l-7 -22l-7 -21l-7 -20l-6 -17l-6 -16l-5 -13l-4 -10l-15 -14l-20 -1l-16 18l-6 20l-5 20l-6 20l-5 20l-6 20l-5 20l-6 20l-9 -27l-8 -25
l-8 -23l-8 -21l-6 -19l-6 -16l-5 -12l-14 -14l-21 -1l-16 18l-5 19l-6 19l-5 19l-6 19l-5 19l-5 20l-6 19l-5 19l-5 19l-6 19l-5 19l-6 19l-5 19l-5 19l-6 19l-5 20l-5 19l-6 19l-5 19l-6 19l-5 19l2 21l17 12l20 -2l13 -16l5 -19l6 -19l5 -19l5 -19l5 -18l6 -19l5 -19
l5 -19l6 -19l5 -19l5 -19l6 -19l5 -18l5 -19l5 -19l6 -19l5 -19l6 17l6 18l6 18l5 17l6 18l5 18l6 18l5 18l-5 18l-5 18l-5 19l-5 18l-6 18l-5 18l-5 19l-5 18l-5 18l3 20l16 13l20 -2l13 -17l5 -19l5 -19l6 -18l5 -19l5 -19l5 -19l6 -18l5 -19l5 -19l5 -19l6 -18l5 -19
l5 -19l5 -19l6 -18l5 -19l5 -19l6 17l6 18l6 18l6 19l6 20l6 19l6 20l6 21l5 21l5 20l5 19l4 19l3 18l3 17l2 16l1 23l-3 19l-7 14l-14 14h1l-14 2l-16 -10l-19 -9l-19 6l-10 19l6 19l15 14l16 9l17 5l24 1l23 -8l14 -8l12 -11z" />
    <glyph glyph-name="x" unicode="x" horiz-adv-x="254" 
d="M237 46l2 -20l-13 -16l-21 -2l-16 13l-9 18l-9 17l-9 18l-10 17l-9 18l-9 17l-10 14l-9 -17l-8 -16l-8 -15l-7 -15l-13 -23l-10 -18l-8 -15l-17 -13l-20 3l-13 17l3 20l8 14l10 18l12 23l10 19l10 20l11 22l9 19l10 20l-9 17l-9 18l-9 17l-9 17l-9 18l-9 17l-9 17l-9 18
l-9 17l-2 20l13 16l21 2l16 -13l9 -17l9 -17l9 -17l8 -17l9 -17l9 -17l9 -17l7 16l7 17l8 21l8 20l6 19l6 18l5 17l4 22v19l-4 15l-12 16l-13 4l-18 -8l-19 -7l-19 9l-7 20l9 18l17 12l17 7l18 3l24 -3l21 -11l12 -10l11 -13l9 -16l5 -15l2 -16l1 -18l-2 -20l-4 -22l-5 -18
l-6 -19l-7 -21l-8 -21l-9 -22l-8 -18l-8 -19l-8 -18l-9 -18l9 -18l9 -17l10 -18l9 -18l9 -17l9 -18l10 -18l9 -17z" />
    <glyph glyph-name="y" unicode="y" horiz-adv-x="288" 
d="M261 -12v-19v-19l-1 -19l-2 -18l-4 -18l-5 -17l-8 -19l-11 -16l-13 -13l-17 -11l-19 -6l-24 -3l-23 2l-19 7l-17 12l-13 16l-8 19l-4 21l3 23l9 24l15 13l21 -2l13 -16l-2 -20l-5 -20l4 -14l9 -8l15 -3l20 4l14 12l9 16l4 16l3 18l2 19v19v20v23l-23 -9l-19 -2l-22 1
l-20 4l-17 7l-14 11l-11 13l-10 16l-6 14l-4 15l-4 17l-2 19l-2 20l-1 23v24v19v20v19v20v19v20v19v20v21l-1 17l-3 12l-16 8l-18 10l-6 20l10 18l20 6l22 -5l17 -9l13 -12l9 -16l4 -15l2 -16l1 -19v-20v-20v-19v-20v-19v-20v-19v-20v-19v-29l2 -25l2 -22l4 -18l5 -14
l10 -12l15 -8l21 -2l12 3l15 9l9 12l6 18v20v21v21v21v21v20v21v20v20v20v19v18v17v16l8 19l19 8l19 -8l8 -19v-16v-17v-18v-19v-20v-20v-20v-21v-20v-21v-21v-21v-21v-24v-23v-21v-21v-20v-19z" />
    <glyph glyph-name="z" unicode="z" horiz-adv-x="281" 
d="M329 -30l8 -19l-7 -19l-15 -13l-17 -10l-19 -7l-18 -3h-20l-21 3l-21 7l-18 11l-18 14l-18 15l-16 14l-18 13l-18 12l-20 8l-21 4l-19 9l-6 20l3 10l8 18l9 18l8 18l9 18l8 18l9 18l8 18l9 18l8 18l9 18l8 19l9 18l9 18l8 18l8 18l9 18l8 18l9 18l8 18l9 18h-19l-19 1
h-19l-19 1h-1h-21h-17l-13 -3l-9 -15l-11 -18l-20 -5l-18 11l-5 20l6 22l9 16l13 12l17 8l15 4l17 2h18h21l19 -1h20l19 -1h19l20 -1h19l13 -2l14 -16l-1 -20l-9 -18l-8 -19l-9 -18l-9 -19l-9 -18l-8 -18l-9 -19l-9 -18l-8 -19l-9 -18l-9 -18l-8 -19l-9 -18l-9 -19l-9 -18
l-8 -18l-9 -19l-9 -18l-8 -19l-9 -18l20 -8l19 -11l17 -12l16 -13l15 -13l19 -15l17 -13l16 -7l18 -2l16 1l25 15l19 8z" />
    <glyph glyph-name="braceleft" unicode="{" horiz-adv-x="161" 
d="M124 57l18 -10l6 -20l-10 -18l-20 -6l-19 4l-17 8l-15 12l-13 19l-7 27v19v19v19v19v19v19v19v19v19v1l-4 10l-22 8l-17 12l-3 20l19 21l18 10l1 1l8 23v20v20v20v20v19v20v20v20l2 29l6 17l11 14l17 12l22 6l20 -6l10 -18l-6 -20l-27 -18v-20v-19v-20v-19v-20v-19v-20
v-19v-20l-1 -4l-4 -20l-7 -18l-10 -14l11 -12l7 -15l4 -22v-19v-19v-19v-19v-18v-19v-19v-19v-19l4 -10z" />
    <glyph glyph-name="bar" unicode="|" horiz-adv-x="92" 
d="M45 587l19 -8l8 -19v-20v-19v-20v-20v-19v-20v-19v-20v-20v-19v-20v-20v-19v-20v-19v-20v-20v-19v-20v-20v-19v-20v-19v-20v-20v-19v-20l-8 -19l-19 -8l-19 8l-8 19v20v19v20v20v19v20v19v20v20v19v20v20v19v20v19v20v20v19v20v20v19v20v19v20v20v19v20l8 19z" />
    <glyph glyph-name="braceright" unicode="}" horiz-adv-x="170" 
d="M39 534l-18 10l-6 20l10 18l20 6l19 -4l17 -8l15 -12l13 -19l7 -27v-19v-19v-19v-19v-19v-19v-19v-19v-19v-1l4 -10l22 -8l17 -12l3 -20l-19 -21l-18 -10l-1 -1l-8 -23v-20v-20v-20v-20v-19v-20v-20v-20l-2 -29l-6 -17l-11 -14l-17 -12l-22 -6l-20 6l-10 18l6 20l27 18
v20v19v20v19v20v19v20v19v20l1 4l4 20l7 18l10 14l-11 12l-7 15l-4 22v19v19v19v19v18v19v19v19v19l-4 10z" />
    <glyph glyph-name="asciitilde" unicode="~" horiz-adv-x="325" 
d="M292 341l15 -14l1 -21l-12 -26l-13 -19l-16 -12l-16 -7l-18 -3l-18 1l-19 3l-21 6l-20 6l-20 6l-20 5l-18 1l-17 -3l-14 -9l-19 -8l-19 7l-8 19l7 19l17 14l17 10l18 5l18 1l19 -1l18 -4l19 -5l19 -6l21 -6l20 -4l18 1l15 9l11 19l14 15z" />
    <glyph glyph-name="acute" unicode="&#xb4;" horiz-adv-x="156" 
d="M8 459l16 13l15 14l16 13l16 13l16 14l15 13l16 13l19 7l18 -10l7 -20l-10 -18l-16 -13l-15 -14l-16 -13l-16 -13l-16 -14l-15 -13l-16 -13l-19 -7l-19 10l-6 20z" />
    <glyph glyph-name="Agrave" unicode="&#xc0;" horiz-adv-x="750" 
d="M718 595l-20 -4l-19 -5l-18 -8v-20v-19v-20v-19v-20v-20v-19l-1 -20v-19v-20v-20v-19v-20v-19v-20l16 2l17 3l21 -3l12 -17l-4 -21l-17 -11l-23 -5l-22 -2v-20v-20v-20v-20v-20v-20v-21l1 -17l3 -12l16 -8l18 -10l6 -20l-10 -18l-20 -6l-22 5l-17 8l-12 13l-9 16l-5 15
l-2 17l-1 18v20v20v20v20v20v20v20l-21 2l-21 4l-20 4l-20 5l-20 5l-20 5l-5 -19l-5 -18l-4 -19l-5 -18l-4 -19l-5 -19l-5 -20l-5 -19l-4 -18l-5 -18l-5 -18l-7 -22l-7 -21l-8 -20l-9 -19l-9 -17l-9 -17l-11 -15l-10 -14l-11 -13l-12 -12l-16 -15l-16 -13l-17 -11l-17 -9
l-18 -7l-17 -6l-18 -4l-18 -3l-17 -1h-13l-22 2l-21 5l-20 7l-19 9l-17 10l-16 13l-14 15l-12 17l-10 18l-8 19l-5 22l-2 22v12l2 20l5 19l7 19l9 17l12 16l13 14l15 12l16 9l18 8l19 4l20 -5l11 -17l-5 -20l-18 -11l-18 -5l-16 -10l-13 -13l-12 -18l-8 -20l-3 -30l3 -22
l6 -20l11 -17l14 -15l17 -13l19 -9l22 -7l32 -3l17 1l17 4l17 5l17 7l17 10l16 12l16 14l12 13l12 14l11 16l10 17l10 19l9 21l8 23l7 24l5 17l5 18l4 18l5 19l4 19l5 19l5 19l5 19l4 18l5 19l5 19l-20 5l-20 5l-19 4l-19 2l-18 1l-20 -2l-20 -5l-19 -7l-17 -11l-15 -15
l-11 -18l-4 -21l1 -18l5 -16l10 -16l14 -13l19 -11l23 -9l17 -13l2 -20l-12 -17l-21 -2l-21 7l-19 9l-16 10l-15 12l-12 13l-12 16l-8 17l-6 18l-3 18v19l4 22l7 21l11 18l13 17l16 14l16 11l17 9l18 7l19 5l19 4l20 1l18 -1l18 -2l18 -3l19 -4l18 -4l19 -5l6 21l7 22l7 20
l7 21l8 20l8 20l8 19l9 18l10 18l10 17l10 17l11 15l12 15l12 13l13 13l14 12l14 10l19 12l19 8l19 7l21 6l23 3l19 -6l10 -18l-6 -20zM607 285v19v20v19v19v20v19v19v19v20v19v19v20v19l-11 -13l-11 -14l-9 -15l-10 -16l-9 -16l-9 -18l-8 -18l-8 -18l-7 -20l-7 -19l-7 -21
l-7 -20l-6 -21l18 -5l18 -4l18 -5l18 -3l19 -3zM531 802l11 -15l11 -16l12 -15l11 -15l11 -15l11 -16l12 -15l11 -15l18 -10l20 5l11 18l-5 20l-11 15l-12 15l-11 15l-11 15l-11 16l-12 15l-11 15l-11 15l-18 11l-20 -5l-11 -18z" />
    <glyph glyph-name="Aacute" unicode="&#xc1;" horiz-adv-x="750" 
d="M660 813l-11 -15l-12 -15l-11 -15l-11 -16l-11 -15l-12 -15l-11 -15l-11 -15l-5 -20l10 -18l20 -5l18 10l11 15l11 15l12 16l11 15l11 15l11 15l12 16l11 15l5 20l-10 18l-20 5zM718 595l-20 -4l-19 -5l-18 -8v-20v-19v-20v-19v-20v-20v-19l-1 -20v-19v-20v-20v-19v-20
v-19v-20l16 2l17 3l21 -3l12 -17l-4 -21l-17 -11l-23 -5l-22 -2v-20v-20v-20v-20v-20v-20v-21l1 -17l3 -12l16 -8l18 -10l6 -20l-10 -18l-20 -6l-22 5l-17 8l-12 13l-9 16l-5 15l-2 17l-1 18v20v20v20v20v20v20v20l-21 2l-21 4l-20 4l-20 5l-20 5l-20 5l-5 -19l-5 -18
l-4 -19l-5 -18l-4 -19l-5 -19l-5 -20l-5 -19l-4 -18l-5 -18l-5 -18l-7 -22l-7 -21l-8 -20l-9 -19l-9 -17l-9 -17l-11 -15l-10 -14l-11 -13l-12 -12l-16 -15l-16 -13l-17 -11l-17 -9l-18 -7l-17 -6l-18 -4l-18 -3l-17 -1h-13l-22 2l-21 5l-20 7l-19 9l-17 10l-16 13l-14 15
l-12 17l-10 18l-8 19l-5 22l-2 22v12l2 20l5 19l7 19l9 17l12 16l13 14l15 12l16 9l18 8l19 4l20 -5l11 -17l-5 -20l-18 -11l-18 -5l-16 -10l-13 -13l-12 -18l-8 -20l-3 -30l3 -22l6 -20l11 -17l14 -15l17 -13l19 -9l22 -7l32 -3l17 1l17 4l17 5l17 7l17 10l16 12l16 14
l12 13l12 14l11 16l10 17l10 19l9 21l8 23l7 24l5 17l5 18l4 18l5 19l4 19l5 19l5 19l5 19l4 18l5 19l5 19l-20 5l-20 5l-19 4l-19 2l-18 1l-20 -2l-20 -5l-19 -7l-17 -11l-15 -15l-11 -18l-4 -21l1 -18l5 -16l10 -16l14 -13l19 -11l23 -9l17 -13l2 -20l-12 -17l-21 -2
l-21 7l-19 9l-16 10l-15 12l-12 13l-12 16l-8 17l-6 18l-3 18v19l4 22l7 21l11 18l13 17l16 14l16 11l17 9l18 7l19 5l19 4l20 1l18 -1l18 -2l18 -3l19 -4l18 -4l19 -5l6 21l7 22l7 20l7 21l8 20l8 20l8 19l9 18l10 18l10 17l10 17l11 15l12 15l12 13l13 13l14 12l14 10
l19 12l19 8l19 7l21 6l23 3l19 -6l10 -18l-6 -20zM607 285v19v20v19v19v20v19v19v19v20v19v19v20v19l-11 -13l-11 -14l-9 -15l-10 -16l-9 -16l-9 -18l-8 -18l-8 -18l-7 -20l-7 -19l-7 -21l-7 -20l-6 -21l18 -5l18 -4l18 -5l18 -3l19 -3z" />
    <glyph glyph-name="Acircumflex" unicode="&#xc2;" horiz-adv-x="750" 
d="M598 823l-10 -18l-10 -18l-11 -18l-10 -18l-10 -18l-10 -18l-2 -20l13 -16l20 -3l16 13l10 17l9 16l10 17l10 17l10 -17l11 -17l10 -17l11 -17l17 -12l20 3l12 17l-3 20l-11 18l-11 17l-11 18l-11 18l-11 17l-11 18l-10 11l-20 2zM718 595l-20 -4l-19 -5l-18 -8v-20v-19
v-20v-19v-20v-20v-19l-1 -20v-19v-20v-20v-19v-20v-19v-20l16 2l17 3l21 -3l12 -17l-4 -21l-17 -11l-23 -5l-22 -2v-20v-20v-20v-20v-20v-20v-21l1 -17l3 -12l16 -8l18 -10l6 -20l-10 -18l-20 -6l-22 5l-17 8l-12 13l-9 16l-5 15l-2 17l-1 18v20v20v20v20v20v20v20l-21 2
l-21 4l-20 4l-20 5l-20 5l-20 5l-5 -19l-5 -18l-4 -19l-5 -18l-4 -19l-5 -19l-5 -20l-5 -19l-4 -18l-5 -18l-5 -18l-7 -22l-7 -21l-8 -20l-9 -19l-9 -17l-9 -17l-11 -15l-10 -14l-11 -13l-12 -12l-16 -15l-16 -13l-17 -11l-17 -9l-18 -7l-17 -6l-18 -4l-18 -3l-17 -1h-13
l-22 2l-21 5l-20 7l-19 9l-17 10l-16 13l-14 15l-12 17l-10 18l-8 19l-5 22l-2 22v12l2 20l5 19l7 19l9 17l12 16l13 14l15 12l16 9l18 8l19 4l20 -5l11 -17l-5 -20l-18 -11l-18 -5l-16 -10l-13 -13l-12 -18l-8 -20l-3 -30l3 -22l6 -20l11 -17l14 -15l17 -13l19 -9l22 -7
l32 -3l17 1l17 4l17 5l17 7l17 10l16 12l16 14l12 13l12 14l11 16l10 17l10 19l9 21l8 23l7 24l5 17l5 18l4 18l5 19l4 19l5 19l5 19l5 19l4 18l5 19l5 19l-20 5l-20 5l-19 4l-19 2l-18 1l-20 -2l-20 -5l-19 -7l-17 -11l-15 -15l-11 -18l-4 -21l1 -18l5 -16l10 -16l14 -13
l19 -11l23 -9l17 -13l2 -20l-12 -17l-21 -2l-21 7l-19 9l-16 10l-15 12l-12 13l-12 16l-8 17l-6 18l-3 18v19l4 22l7 21l11 18l13 17l16 14l16 11l17 9l18 7l19 5l19 4l20 1l18 -1l18 -2l18 -3l19 -4l18 -4l19 -5l6 21l7 22l7 20l7 21l8 20l8 20l8 19l9 18l10 18l10 17
l10 17l11 15l12 15l12 13l13 13l14 12l14 10l19 12l19 8l19 7l21 6l23 3l19 -6l10 -18l-6 -20zM607 285v19v20v19v19v20v19v19v19v20v19v19v20v19l-11 -13l-11 -14l-9 -15l-10 -16l-9 -16l-9 -18l-8 -18l-8 -18l-7 -20l-7 -19l-7 -21l-7 -20l-6 -21l18 -5l18 -4l18 -5l18 -3
l19 -3z" />
    <glyph glyph-name="Atilde" unicode="&#xc3;" horiz-adv-x="750" 
d="M699 749l-4 -17l-10 -3l-17 2l-20 6l-23 8l-19 7l-19 6l-19 4l-18 2l-18 -1l-17 -6l-14 -9l-11 -12l-8 -13l-4 -16l3 -21l17 -11l20 4l12 16l9 13l12 2l16 -3l19 -6l21 -7l20 -7l20 -6l19 -5l18 -1l18 2l16 6l15 11l10 12l6 14l4 25l-7 20l-18 9l-20 -7zM718 595l-20 -4
l-19 -5l-18 -8v-20v-19v-20v-19v-20v-20v-19l-1 -20v-19v-20v-20v-19v-20v-19v-20l16 2l17 3l21 -3l12 -17l-4 -21l-17 -11l-23 -5l-22 -2v-20v-20v-20v-20v-20v-20v-21l1 -17l3 -12l16 -8l18 -10l6 -20l-10 -18l-20 -6l-22 5l-17 8l-12 13l-9 16l-5 15l-2 17l-1 18v20v20
v20v20v20v20v20l-21 2l-21 4l-20 4l-20 5l-20 5l-20 5l-5 -19l-5 -18l-4 -19l-5 -18l-4 -19l-5 -19l-5 -20l-5 -19l-4 -18l-5 -18l-5 -18l-7 -22l-7 -21l-8 -20l-9 -19l-9 -17l-9 -17l-11 -15l-10 -14l-11 -13l-12 -12l-16 -15l-16 -13l-17 -11l-17 -9l-18 -7l-17 -6l-18 -4
l-18 -3l-17 -1h-13l-22 2l-21 5l-20 7l-19 9l-17 10l-16 13l-14 15l-12 17l-10 18l-8 19l-5 22l-2 22v12l2 20l5 19l7 19l9 17l12 16l13 14l15 12l16 9l18 8l19 4l20 -5l11 -17l-5 -20l-18 -11l-18 -5l-16 -10l-13 -13l-12 -18l-8 -20l-3 -30l3 -22l6 -20l11 -17l14 -15
l17 -13l19 -9l22 -7l32 -3l17 1l17 4l17 5l17 7l17 10l16 12l16 14l12 13l12 14l11 16l10 17l10 19l9 21l8 23l7 24l5 17l5 18l4 18l5 19l4 19l5 19l5 19l5 19l4 18l5 19l5 19l-20 5l-20 5l-19 4l-19 2l-18 1l-20 -2l-20 -5l-19 -7l-17 -11l-15 -15l-11 -18l-4 -21l1 -18
l5 -16l10 -16l14 -13l19 -11l23 -9l17 -13l2 -20l-12 -17l-21 -2l-21 7l-19 9l-16 10l-15 12l-12 13l-12 16l-8 17l-6 18l-3 18v19l4 22l7 21l11 18l13 17l16 14l16 11l17 9l18 7l19 5l19 4l20 1l18 -1l18 -2l18 -3l19 -4l18 -4l19 -5l6 21l7 22l7 20l7 21l8 20l8 20l8 19
l9 18l10 18l10 17l10 17l11 15l12 15l12 13l13 13l14 12l14 10l19 12l19 8l19 7l21 6l23 3l19 -6l10 -18l-6 -20zM607 285v19v20v19v19v20v19v19v19v20v19v19v20v19l-11 -13l-11 -14l-9 -15l-10 -16l-9 -16l-9 -18l-8 -18l-8 -18l-7 -20l-7 -19l-7 -21l-7 -20l-6 -21l18 -5
l18 -4l18 -5l18 -3l19 -3z" />
    <glyph glyph-name="Adieresis" unicode="&#xc4;" horiz-adv-x="750" 
d="M609 733l7 -18l-3 -19l-13 -13l-18 -7l-19 4l-14 11l-7 18l3 19l12 13l19 7l19 -3zM709 733l7 -18l-3 -19l-13 -13l-18 -7l-19 4l-14 11l-7 18l3 19l12 13l19 7l19 -3zM736 604l-18 -9l-20 -4l-19 -5l-18 -8v-20v-19v-20v-19v-20v-20v-19l-1 -20v-19v-20v-20v-19v-20v-19
v-20l16 2l17 3l21 -3l12 -17l-4 -21l-17 -11l-23 -5l-22 -2v-20v-20v-20v-20v-20v-20v-21l1 -17l3 -12l16 -8l18 -10l6 -20l-10 -18l-20 -6l-22 5l-17 8l-12 13l-9 16l-5 15l-2 17l-1 18v20v20v20v20v20v20v20l-21 2l-21 4l-20 4l-20 5l-20 5l-20 5l-5 -19l-5 -18l-4 -19
l-5 -18l-4 -19l-5 -19l-5 -20l-5 -19l-4 -18l-5 -18l-5 -18l-7 -22l-7 -21l-8 -20l-9 -19l-9 -17l-9 -17l-11 -15l-10 -14l-11 -13l-12 -12l-16 -15l-16 -13l-17 -11l-17 -9l-18 -7l-17 -6l-18 -4l-18 -3l-17 -1h-13l-22 2l-21 5l-20 7l-19 9l-17 10l-16 13l-14 15l-12 17
l-10 18l-8 19l-5 22l-2 22v12l2 20l5 19l7 19l9 17l12 16l13 14l15 12l16 9l18 8l19 4l20 -5l11 -17l-5 -20l-18 -11l-18 -5l-16 -10l-13 -13l-12 -18l-8 -20l-3 -30l3 -22l6 -20l11 -17l14 -15l17 -13l19 -9l22 -7l32 -3l17 1l17 4l17 5l17 7l17 10l16 12l16 14l12 13
l12 14l11 16l10 17l10 19l9 21l8 23l7 24l5 17l5 18l4 18l5 19l4 19l5 19l5 19l5 19l4 18l5 19l5 19l-20 5l-20 5l-19 4l-19 2l-18 1l-20 -2l-20 -5l-19 -7l-17 -11l-15 -15l-11 -18l-4 -21l1 -18l5 -16l10 -16l14 -13l19 -11l23 -9l17 -13l2 -20l-12 -17l-21 -2l-21 7
l-19 9l-16 10l-15 12l-12 13l-12 16l-8 17l-6 18l-3 18v19l4 22l7 21l11 18l13 17l16 14l16 11l17 9l18 7l19 5l19 4l20 1l18 -1l18 -2l18 -3l19 -4l18 -4l19 -5l6 21l7 22l7 20l7 21l8 20l8 20l8 19l9 18l10 18l10 17l10 17l11 15l12 15l12 13l13 13l14 12l14 10l19 12
l19 8l19 7l21 6l23 3l19 -6l10 -18zM589 287l18 -2v19v20v19v19v20v19v19v19v20v19v19v20v19l-11 -13l-11 -14l-9 -15l-10 -16l-9 -16l-9 -18l-8 -18l-8 -18l-7 -20l-7 -19l-7 -21l-7 -20l-6 -21l18 -5l18 -4l18 -5l18 -3z" />
    <glyph glyph-name="Aring" unicode="&#xc5;" horiz-adv-x="750" 
d="M626 796l-18 -2l-16 -7l-13 -10l-11 -13l-7 -16l-2 -17l2 -18l7 -16l11 -13l13 -10l16 -7l18 -2l17 2l16 7l13 10l11 13l7 16l2 18l-2 17l-7 16l-11 13l-13 10l-16 7zM647 751l8 -20l-8 -20l-21 -9l-22 9l-8 20l8 20l22 8zM718 595l-20 -4l-19 -5l-18 -8v-20v-19v-20v-19
v-20v-20v-19l-1 -20v-19v-20v-20v-19v-20v-19v-20l16 2l17 3l21 -3l12 -17l-4 -21l-17 -11l-23 -5l-22 -2v-20v-20v-20v-20v-20v-20v-21l1 -17l3 -12l16 -8l18 -10l6 -20l-10 -18l-20 -6l-22 5l-17 8l-12 13l-9 16l-5 15l-2 17l-1 18v20v20v20v20v20v20v20l-21 2l-21 4
l-20 4l-20 5l-20 5l-20 5l-5 -19l-5 -18l-4 -19l-5 -18l-4 -19l-5 -19l-5 -20l-5 -19l-4 -18l-5 -18l-5 -18l-7 -22l-7 -21l-8 -20l-9 -19l-9 -17l-9 -17l-11 -15l-10 -14l-11 -13l-12 -12l-16 -15l-16 -13l-17 -11l-17 -9l-18 -7l-17 -6l-18 -4l-18 -3l-17 -1h-13l-22 2
l-21 5l-20 7l-19 9l-17 10l-16 13l-14 15l-12 17l-10 18l-8 19l-5 22l-2 22v12l2 20l5 19l7 19l9 17l12 16l13 14l15 12l16 9l18 8l19 4l20 -5l11 -17l-5 -20l-18 -11l-18 -5l-16 -10l-13 -13l-12 -18l-8 -20l-3 -30l3 -22l6 -20l11 -17l14 -15l17 -13l19 -9l22 -7l32 -3
l17 1l17 4l17 5l17 7l17 10l16 12l16 14l12 13l12 14l11 16l10 17l10 19l9 21l8 23l7 24l5 17l5 18l4 18l5 19l4 19l5 19l5 19l5 19l4 18l5 19l5 19l-20 5l-20 5l-19 4l-19 2l-18 1l-20 -2l-20 -5l-19 -7l-17 -11l-15 -15l-11 -18l-4 -21l1 -18l5 -16l10 -16l14 -13l19 -11
l23 -9l17 -13l2 -20l-12 -17l-21 -2l-21 7l-19 9l-16 10l-15 12l-12 13l-12 16l-8 17l-6 18l-3 18v19l4 22l7 21l11 18l13 17l16 14l16 11l17 9l18 7l19 5l19 4l20 1l18 -1l18 -2l18 -3l19 -4l18 -4l19 -5l6 21l7 22l7 20l7 21l8 20l8 20l8 19l9 18l10 18l10 17l10 17l11 15
l12 15l12 13l13 13l14 12l14 10l19 12l19 8l19 7l21 6l23 3l19 -6l10 -18l-6 -20zM607 285v19v20v19v19v20v19v19v19v20v19v19v20v19l-11 -13l-11 -14l-9 -15l-10 -16l-9 -16l-9 -18l-8 -18l-8 -18l-7 -20l-7 -19l-7 -21l-7 -20l-6 -21l18 -5l18 -4l18 -5l18 -3l19 -3z" />
    <glyph glyph-name="Egrave" unicode="&#xc8;" horiz-adv-x="593" 
d="M326 758l11 -15l11 -16l12 -15l11 -15l11 -15l11 -16l12 -15l11 -15l18 -10l20 5l11 18l-5 20l-11 15l-12 15l-11 15l-11 15l-11 16l-12 15l-11 15l-11 15l-18 11l-20 -5l-11 -18zM547 97l18 -10l5 -20l-5 -22l-9 -17l-12 -12l-17 -9l-15 -4l-17 -2l-18 -1h-20h-20h-21
h-20h-21h-20h-21h-20l-19 8l-8 19l7 18l18 9l16 8l2 12l1 17v21v19v20v19v19v19v20v19v19v20v29v2v20v21v20v21v20v21v20v21v20v21l8 19l19 8l19 -8l8 -19v-21v-20v-21v-20v-21v-20v-21v-20v-21h12h20l19 -1l16 -2l15 -4l17 -9l12 -12l10 -17l5 -22l-6 -20l-18 -10l-20 6
l-10 18l-9 15l-12 3l-18 1h-21h-12v-19v-19v-19v-19v-19v-19v-19v-19v-19v-22l-1 -19l-3 -17h19h19h19h19h21l18 1l12 3l9 15l10 18zM588 634v-1l-3 -24l-7 -21l-11 -18l-14 -14l-16 -11l-18 -9l-18 -5l-19 -2h-2h-1l-19 1l-20 3l-20 4l-20 5l-21 7l-22 7l-18 5l-18 6l-18 5
l-19 5l-19 4l-19 3l-20 3l-20 2h-24h-2l-23 -2l-20 -4l-18 -7l-15 -9l-12 -11l-12 -15l-9 -17l-5 -19l-2 -19l2 -18l5 -18l8 -16l11 -14l16 -13l21 -9l26 -4l23 2l18 7l13 11l9 13l5 28l-8 25l-17 12h-26l-20 4l-12 16l3 21l17 12l22 3l19 -1l18 -5l15 -8l14 -10l11 -13
l9 -16l6 -17l3 -19v-18l-4 -19l-6 -18l-9 -15l-11 -14l-13 -12l-16 -10l-19 -7l-21 -5l-24 -1l-21 2l-19 4l-18 6l-16 8l-14 10l-13 12l-12 15l-11 16l-8 17l-5 18l-4 18l-1 19v1l1 19l4 20l6 18l8 18l11 17l13 16l13 12l15 10l16 9l18 7l20 6l22 3l23 2h2h2h21l21 -1l20 -2
l19 -4l19 -4l19 -4l18 -5l18 -5l17 -6l17 -5l24 -7l22 -7l21 -5l20 -4l19 -1h2l19 4l18 10l12 15l4 20v3l8 19l19 8l19 -7l8 -19v-2z" />
    <glyph glyph-name="Eacute" unicode="&#xc9;" horiz-adv-x="593" 
d="M448 805l-11 -15l-12 -15l-11 -15l-11 -16l-11 -15l-12 -15l-11 -15l-11 -15l-5 -20l10 -18l20 -5l18 10l11 15l11 15l12 16l11 15l11 15l11 15l12 16l11 15l5 20l-10 18l-20 5zM547 97l18 -10l5 -20l-5 -22l-9 -17l-12 -12l-17 -9l-15 -4l-17 -2l-18 -1h-20h-20h-21h-20
h-21h-20h-21h-20l-19 8l-8 19l7 18l18 9l16 8l2 12l1 17v21v19v20v19v19v19v20v19v19v20v29v2v20v21v20v21v20v21v20v21v20v21l8 19l19 8l19 -8l8 -19v-21v-20v-21v-20v-21v-20v-21v-20v-21h12h20l19 -1l16 -2l15 -4l17 -9l12 -12l10 -17l5 -22l-6 -20l-18 -10l-20 6l-10 18
l-9 15l-12 3l-18 1h-21h-12v-19v-19v-19v-19v-19v-19v-19v-19v-19v-22l-1 -19l-3 -17h19h19h19h19h21l18 1l12 3l9 15l10 18zM588 634v-1l-3 -24l-7 -21l-11 -18l-14 -14l-16 -11l-18 -9l-18 -5l-19 -2h-2h-1l-19 1l-20 3l-20 4l-20 5l-21 7l-22 7l-18 5l-18 6l-18 5l-19 5
l-19 4l-19 3l-20 3l-20 2h-24h-2l-23 -2l-20 -4l-18 -7l-15 -9l-12 -11l-12 -15l-9 -17l-5 -19l-2 -19l2 -18l5 -18l8 -16l11 -14l16 -13l21 -9l26 -4l23 2l18 7l13 11l9 13l5 28l-8 25l-17 12h-26l-20 4l-12 16l3 21l17 12l22 3l19 -1l18 -5l15 -8l14 -10l11 -13l9 -16
l6 -17l3 -19v-18l-4 -19l-6 -18l-9 -15l-11 -14l-13 -12l-16 -10l-19 -7l-21 -5l-24 -1l-21 2l-19 4l-18 6l-16 8l-14 10l-13 12l-12 15l-11 16l-8 17l-5 18l-4 18l-1 19v1l1 19l4 20l6 18l8 18l11 17l13 16l13 12l15 10l16 9l18 7l20 6l22 3l23 2h2h2h21l21 -1l20 -2l19 -4
l19 -4l19 -4l18 -5l18 -5l17 -6l17 -5l24 -7l22 -7l21 -5l20 -4l19 -1h2l19 4l18 10l12 15l4 20v3l8 19l19 8l19 -7l8 -19v-2z" />
    <glyph glyph-name="Ecircumflex" unicode="&#xca;" horiz-adv-x="593" 
d="M336 807l-10 -18l-10 -18l-11 -18l-10 -18l-10 -18l-10 -18l-2 -20l13 -16l20 -3l16 13l10 17l9 16l10 17l10 17l10 -17l11 -17l10 -17l11 -17l17 -12l20 3l12 17l-3 20l-11 18l-11 17l-11 18l-11 18l-11 17l-11 18l-10 11l-20 2zM547 97l18 -10l5 -20l-5 -22l-9 -17
l-12 -12l-17 -9l-15 -4l-17 -2l-18 -1h-20h-20h-21h-20h-21h-20h-21h-20l-19 8l-8 19l7 18l18 9l16 8l2 12l1 17v21v19v20v19v19v19v20v19v19v20v29v2v20v21v20v21v20v21v20v21v20v21l8 19l19 8l19 -8l8 -19v-21v-20v-21v-20v-21v-20v-21v-20v-21h12h20l19 -1l16 -2l15 -4
l17 -9l12 -12l10 -17l5 -22l-6 -20l-18 -10l-20 6l-10 18l-9 15l-12 3l-18 1h-21h-12v-19v-19v-19v-19v-19v-19v-19v-19v-19v-22l-1 -19l-3 -17h19h19h19h19h21l18 1l12 3l9 15l10 18zM588 634v-1l-3 -24l-7 -21l-11 -18l-14 -14l-16 -11l-18 -9l-18 -5l-19 -2h-2h-1l-19 1
l-20 3l-20 4l-20 5l-21 7l-22 7l-18 5l-18 6l-18 5l-19 5l-19 4l-19 3l-20 3l-20 2h-24h-2l-23 -2l-20 -4l-18 -7l-15 -9l-12 -11l-12 -15l-9 -17l-5 -19l-2 -19l2 -18l5 -18l8 -16l11 -14l16 -13l21 -9l26 -4l23 2l18 7l13 11l9 13l5 28l-8 25l-17 12h-26l-20 4l-12 16
l3 21l17 12l22 3l19 -1l18 -5l15 -8l14 -10l11 -13l9 -16l6 -17l3 -19v-18l-4 -19l-6 -18l-9 -15l-11 -14l-13 -12l-16 -10l-19 -7l-21 -5l-24 -1l-21 2l-19 4l-18 6l-16 8l-14 10l-13 12l-12 15l-11 16l-8 17l-5 18l-4 18l-1 19v1l1 19l4 20l6 18l8 18l11 17l13 16l13 12
l15 10l16 9l18 7l20 6l22 3l23 2h2h2h21l21 -1l20 -2l19 -4l19 -4l19 -4l18 -5l18 -5l17 -6l17 -5l24 -7l22 -7l21 -5l20 -4l19 -1h2l19 4l18 10l12 15l4 20v3l8 19l19 8l19 -7l8 -19v-2z" />
    <glyph glyph-name="Edieresis" unicode="&#xcb;" horiz-adv-x="593" 
d="M340 719l7 -18l-3 -19l-13 -13l-18 -7l-19 4l-14 11l-7 18l3 19l12 13l19 7l19 -3zM440 719l7 -18l-3 -19l-13 -13l-18 -7l-19 4l-14 11l-7 18l3 19l12 13l19 7l19 -3zM527 91l20 6l18 -10l5 -20l-5 -22l-9 -17l-12 -12l-17 -9l-15 -4l-17 -2l-18 -1h-20h-20h-21h-20h-21
h-20h-21h-20l-19 8l-8 19l7 18l18 9l16 8l2 12l1 17v21v19v20v19v19v19v20v19v19v20v29v2v20v21v20v21v20v21v20v21v20v21l8 19l19 8l19 -8l8 -19v-21v-20v-21v-20v-21v-20v-21v-20v-21h12h20l19 -1l16 -2l15 -4l17 -9l12 -12l10 -17l5 -22l-6 -20l-18 -10l-20 6l-10 18
l-9 15l-12 3l-18 1h-21h-12v-19v-19v-19v-19v-19v-19v-19v-19v-19v-22l-1 -19l-3 -17h19h19h19h19h21l18 1l12 3l9 15zM588 636v-2v-1l-3 -24l-7 -21l-11 -18l-14 -14l-16 -11l-18 -9l-18 -5l-19 -2h-2h-1l-19 1l-20 3l-20 4l-20 5l-21 7l-22 7l-18 5l-18 6l-18 5l-19 5
l-19 4l-19 3l-20 3l-20 2h-24h-2l-23 -2l-20 -4l-18 -7l-15 -9l-12 -11l-12 -15l-9 -17l-5 -19l-2 -19l2 -18l5 -18l8 -16l11 -14l16 -13l21 -9l26 -4l23 2l18 7l13 11l9 13l5 28l-8 25l-17 12h-26l-20 4l-12 16l3 21l17 12l22 3l19 -1l18 -5l15 -8l14 -10l11 -13l9 -16
l6 -17l3 -19v-18l-4 -19l-6 -18l-9 -15l-11 -14l-13 -12l-16 -10l-19 -7l-21 -5l-24 -1l-21 2l-19 4l-18 6l-16 8l-14 10l-13 12l-12 15l-11 16l-8 17l-5 18l-4 18l-1 19v1l1 19l4 20l6 18l8 18l11 17l13 16l13 12l15 10l16 9l18 7l20 6l22 3l23 2h2h2h21l21 -1l20 -2l19 -4
l19 -4l19 -4l18 -5l18 -5l17 -6l17 -5l24 -7l22 -7l21 -5l20 -4l19 -1h2l19 4l18 10l12 15l4 20v3l8 19l19 8l19 -7z" />
    <glyph glyph-name="Igrave" unicode="&#xcc;" horiz-adv-x="372" 
d="M212 743l-11 15l-5 20l11 18l20 5l18 -11l11 -15l11 -15l12 -15l11 -16l11 -15l11 -15l12 -15l11 -15l5 -20l-11 -18l-20 -5l-18 10l-11 15l-12 15l-11 16l-11 15l-11 15l-12 15zM144 335l-10 18l6 20l18 10l20 -6l15 -14l10 -14l6 -16l3 -23l-6 -21l-11 -18l-16 -15
l-17 -10l-20 -6l-21 -2h-3h-1l-21 3l-19 6l-17 9l-14 11l-13 14l-10 15l-8 17l-5 19l-3 19l-1 20v6l2 20l4 20l6 19l8 17l9 17l12 16l12 16l14 14l15 13l15 11l17 10l17 10l18 8l19 7l19 6l19 4l20 4l20 2l20 1l25 -1l24 -3l17 -10l6 -18v-20v-19v-20v-20v-19v-20v-20v-19
v-20v-20v-19l1 -20v-19v-20v-20v-19v-20v-20v-19v-20v-20v-19v-20v-26l-2 -23l-6 -20l-9 -16l-12 -13l-17 -8l-22 -5l-20 5l-10 18l5 20l18 10l17 8l3 12l1 17v21v20v21v20v21v20v21v20v20v21v20l-1 21v20v21v20v20v21v20v21v20v21v20l-18 1l-21 -1l-20 -3l-20 -4l-20 -6
l-18 -7l-18 -9l-17 -10l-16 -11l-15 -13l-13 -14l-11 -16l-9 -16l-7 -17l-5 -19l-2 -19v-3l2 -21l5 -19l9 -16l12 -11l14 -8l18 -3h2l26 8l9 10z" />
    <glyph glyph-name="Iacute" unicode="&#xcd;" horiz-adv-x="372" 
d="M300 777l11 15l18 11l20 -5l10 -18l-5 -20l-11 -15l-12 -16l-11 -15l-11 -15l-11 -15l-12 -16l-11 -15l-11 -15l-18 -10l-20 5l-10 18l5 20l11 15l11 15l12 15l11 15l11 16l11 15zM144 335l-10 18l6 20l18 10l20 -6l15 -14l10 -14l6 -16l3 -23l-6 -21l-11 -18l-16 -15
l-17 -10l-20 -6l-21 -2h-3h-1l-21 3l-19 6l-17 9l-14 11l-13 14l-10 15l-8 17l-5 19l-3 19l-1 20v6l2 20l4 20l6 19l8 17l9 17l12 16l12 16l14 14l15 13l15 11l17 10l17 10l18 8l19 7l19 6l19 4l20 4l20 2l20 1l25 -1l24 -3l17 -10l6 -18v-20v-19v-20v-20v-19v-20v-20v-19
v-20v-20v-19l1 -20v-19v-20v-20v-19v-20v-20v-19v-20v-20v-19v-20v-26l-2 -23l-6 -20l-9 -16l-12 -13l-17 -8l-22 -5l-20 5l-10 18l5 20l18 10l17 8l3 12l1 17v21v20v21v20v21v20v21v20v20v21v20l-1 21v20v21v20v20v21v20v21v20v21v20l-18 1l-21 -1l-20 -3l-20 -4l-20 -6
l-18 -7l-18 -9l-17 -10l-16 -11l-15 -13l-13 -14l-11 -16l-9 -16l-7 -17l-5 -19l-2 -19v-3l2 -21l5 -19l9 -16l12 -11l14 -8l18 -3h2l26 8l9 10z" />
    <glyph glyph-name="Icircumflex" unicode="&#xce;" horiz-adv-x="372" 
d="M216 758l10 18l17 12l20 -2l10 -11l11 -18l11 -17l11 -18l11 -18l11 -17l11 -18l3 -20l-12 -17l-20 -3l-17 12l-11 17l-10 17l-11 17l-10 17l-10 -17l-10 -17l-9 -16l-10 -17l-16 -13l-20 3l-13 16l2 20l10 18l10 18l10 18l11 18zM144 335l-10 18l6 20l18 10l20 -6
l15 -14l10 -14l6 -16l3 -23l-6 -21l-11 -18l-16 -15l-17 -10l-20 -6l-21 -2h-3h-1l-21 3l-19 6l-17 9l-14 11l-13 14l-10 15l-8 17l-5 19l-3 19l-1 20v6l2 20l4 20l6 19l8 17l9 17l12 16l12 16l14 14l15 13l15 11l17 10l17 10l18 8l19 7l19 6l19 4l20 4l20 2l20 1l25 -1
l24 -3l17 -10l6 -18v-20v-19v-20v-20v-19v-20v-20v-19v-20v-20v-19l1 -20v-19v-20v-20v-19v-20v-20v-19v-20v-20v-19v-20v-26l-2 -23l-6 -20l-9 -16l-12 -13l-17 -8l-22 -5l-20 5l-10 18l5 20l18 10l17 8l3 12l1 17v21v20v21v20v21v20v21v20v20v21v20l-1 21v20v21v20v20v21
v20v21v20v21v20l-18 1l-21 -1l-20 -3l-20 -4l-20 -6l-18 -7l-18 -9l-17 -10l-16 -11l-15 -13l-13 -14l-11 -16l-9 -16l-7 -17l-5 -19l-2 -19v-3l2 -21l5 -19l9 -16l12 -11l14 -8l18 -3h2l26 8l9 10z" />
    <glyph glyph-name="Idieresis" unicode="&#xcf;" horiz-adv-x="372" 
d="M246 688l7 -18l-3 -19l-13 -13l-18 -7l-19 4l-14 11l-7 18l3 19l12 13l19 7l19 -3zM346 688l7 -18l-3 -19l-13 -13l-18 -7l-19 4l-14 11l-7 18l3 19l12 13l19 7l19 -3zM144 335l-10 18l6 20l18 10l20 -6l15 -14l10 -14l6 -16l3 -23l-6 -21l-11 -18l-16 -15l-17 -10
l-20 -6l-21 -2h-3h-1l-21 3l-19 6l-17 9l-14 11l-13 14l-10 15l-8 17l-5 19l-3 19l-1 20v6l2 20l4 20l6 19l8 17l9 17l12 16l12 16l14 14l15 13l15 11l17 10l17 10l18 8l19 7l19 6l19 4l20 4l20 2l20 1l25 -1l24 -3l17 -10l6 -18v-20v-19v-20v-20v-19v-20v-20v-19v-20v-20
v-19l1 -20v-19v-20v-20v-19v-20v-20v-19v-20v-20v-19v-20v-26l-2 -23l-6 -20l-9 -16l-12 -13l-17 -8l-22 -5l-20 5l-10 18l5 20l18 10l17 8l3 12l1 17v21v20v21v20v21v20v21v20v20v21v20l-1 21v20v21v20v20v21v20v21v20v21v20l-18 1l-21 -1l-20 -3l-20 -4l-20 -6l-18 -7
l-18 -9l-17 -10l-16 -11l-15 -13l-13 -14l-11 -16l-9 -16l-7 -17l-5 -19l-2 -19v-3l2 -21l5 -19l9 -16l12 -11l14 -8l18 -3h2l26 8l9 10z" />
    <glyph glyph-name="Ntilde" unicode="&#xd1;" horiz-adv-x="658" 
d="M551 729l-4 -17l-10 -3l-17 2l-20 6l-23 8l-19 7l-19 6l-19 4l-18 2l-18 -1l-17 -6l-14 -9l-11 -12l-8 -13l-4 -16l3 -21l17 -11l20 4l12 16l9 13l12 2l16 -3l19 -6l21 -7l20 -7l20 -6l19 -5l18 -1l18 2l16 6l15 11l10 12l6 14l4 25l-7 20l-18 9l-20 -7zM644 600l-6 -20
l-18 -10l-16 -8l-3 -12l-1 -17v-21v-20v-20v-19v-20v-20v-20v-20v-19v-20v-20v-20v-20l1 -19v-20v-20v-20v-20v-19v-20v-20v-20v-20v-19v-20v-20l-5 -18l-16 -10l-21 3l-11 17l-3 14l-4 15l-4 18l-6 20l-5 21l-7 22l-7 23l-5 19l-6 20l-6 20l-7 21l-6 20l-7 21l-6 21l-7 20
l-4 13l-7 19l-6 20l-7 19l-8 19l-7 20l-8 19l-9 18l-9 18l-10 17v-21v-21v-21v-22v-21v-21v-21v-21v-21v-20v-21v-20v-21v-20v-21v-20v-21v-20v-21l-1 -18l-2 -16l-4 -15l-9 -16l-13 -13l-17 -8l-22 -5l-20 6l-10 18l6 20l18 10l17 8l2 12l1 17v21v20v21v20v21v20v21v20v21
v20v21v19v20v19v20v19v19v20v19v20v19v20v19l-15 11l-15 9l-17 8l-18 7l-20 4l-21 3l-22 1h-2l-22 -1l-22 -4l-20 -6l-18 -8l-16 -10l-13 -12l-11 -13l-8 -16l-5 -18l-2 -19l2 -18l5 -18l8 -16l11 -14l16 -13l21 -9l26 -4l23 2l18 7l13 11l9 13l5 28l-8 25l-17 12h-26l-20 4
l-12 16l3 21l17 12l22 3l19 -1l18 -5l15 -8l14 -10l11 -13l9 -16l6 -17l3 -19v-18l-4 -19l-6 -18l-9 -15l-11 -14l-13 -12l-16 -10l-19 -7l-21 -5l-24 -1l-21 2l-19 4l-18 6l-16 8l-14 10l-13 12l-12 15l-11 16l-8 17l-5 18l-4 18l-1 19v1l1 22l4 20l7 19l9 17l11 16l13 14
l15 13l16 10l17 9l18 8l19 5l20 5l20 2l21 1h2l24 -1l23 -2l21 -4l20 -6l19 -7l18 -8l16 -10l15 -11l15 -12l13 -12l13 -14l11 -15l11 -15l10 -16l10 -17l9 -17l8 -18l8 -18l7 -18l7 -18l7 -19l7 -18l6 -19l6 -18l4 -13l6 -17l6 -18l5 -17l6 -18l5 -17l6 -18v20v19v20v20v20
v19v20l-1 20v20v19v20v20v20v19v20v20l1 19l2 16l5 15l9 16l12 12l17 9l22 5l20 -6z" />
    <glyph glyph-name="Ograve" unicode="&#xd2;" horiz-adv-x="456" 
d="M294 605l13 -8l12 -8l13 -10l11 -11l12 -12l11 -13l10 -14l10 -15l8 -17l9 -17l7 -19l7 -20l5 -22l5 -22l4 -24l2 -25l2 -27v-28l-1 -7l-1 -21l-1 -21l-3 -20l-3 -20l-4 -20l-5 -19l-6 -18l-6 -18l-8 -17l-8 -16l-11 -18l-12 -16l-13 -14l-14 -13l-16 -10l-17 -9l-17 -6
l-20 -4l-20 -1h-1h-1h-1l-20 2l-19 5l-17 7l-16 9l-14 11l-13 13l-12 15l-10 16l-9 18l-7 19l-7 21l-5 21l-4 18l-2 18l-2 18l-1 19v19v19l2 17l1 18l3 18l3 17l-20 12l-16 14l-12 15l-11 16l-8 17l-5 18l-4 19l-1 19l2 22l4 21l7 20l10 18l12 16l14 14l15 13l18 11l19 9
l20 7l21 4l22 2h22l18 -2l17 -3l18 -5l17 -7zM381 294v29l-2 27l-3 25l-4 24l-5 21l-7 21l-7 19l-8 17l-9 16l-10 14l-11 13l-11 11l-11 10l-13 9l-12 8l-22 9l-21 6l-22 3h-22l-20 -3l-20 -6l-19 -9l-16 -12l-13 -15l-10 -17l-7 -20l-2 -21l2 -18l5 -18l8 -16l11 -14
l11 -10l8 22l9 20l10 19l11 18l12 16l14 14l14 13l16 10l16 9l18 5l18 4h20l18 -9l7 -20l-9 -18l-19 -7l-19 -2l-17 -5l-16 -10l-14 -14l-14 -16l-12 -19l-10 -22l-9 -24l21 2l17 6l13 9l10 12l16 12l21 -2l12 -16l-2 -21l-12 -16l-15 -15l-19 -12l-18 -7l-21 -4l-24 -2
l-13 1l-3 -19l-2 -19l-2 -20v-20v-19l2 -20l2 -19l4 -18l6 -23l7 -22l10 -19l11 -17l13 -14l15 -10l17 -7l19 -3h2l19 2l18 6l16 9l15 13l13 16l11 18l8 15l6 16l6 17l5 18l5 19l3 19l3 20l2 20l1 21v6zM215 771l11 -15l11 -16l12 -15l11 -15l11 -15l11 -16l12 -15l11 -15
l18 -10l20 5l11 18l-5 20l-11 15l-12 15l-11 15l-11 15l-11 16l-12 15l-11 15l-11 15l-18 11l-20 -5l-11 -18z" />
    <glyph glyph-name="Oacute" unicode="&#xd3;" horiz-adv-x="456" 
d="M306 820l-11 -15l-12 -15l-11 -15l-11 -16l-11 -15l-12 -15l-11 -15l-11 -15l-5 -20l10 -18l20 -5l18 10l11 15l11 15l12 16l11 15l11 15l11 15l12 16l11 15l5 20l-10 18l-20 5zM294 605l13 -8l12 -8l13 -10l11 -11l12 -12l11 -13l10 -14l10 -15l8 -17l9 -17l7 -19l7 -20
l5 -22l5 -22l4 -24l2 -25l2 -27v-28l-1 -7l-1 -21l-1 -21l-3 -20l-3 -20l-4 -20l-5 -19l-6 -18l-6 -18l-8 -17l-8 -16l-11 -18l-12 -16l-13 -14l-14 -13l-16 -10l-17 -9l-17 -6l-20 -4l-20 -1h-1h-1h-1l-20 2l-19 5l-17 7l-16 9l-14 11l-13 13l-12 15l-10 16l-9 18l-7 19
l-7 21l-5 21l-4 18l-2 18l-2 18l-1 19v19v19l2 17l1 18l3 18l3 17l-20 12l-16 14l-12 15l-11 16l-8 17l-5 18l-4 19l-1 19l2 22l4 21l7 20l10 18l12 16l14 14l15 13l18 11l19 9l20 7l21 4l22 2h22l18 -2l17 -3l18 -5l17 -7zM381 294v29l-2 27l-3 25l-4 24l-5 21l-7 21l-7 19
l-8 17l-9 16l-10 14l-11 13l-11 11l-11 10l-13 9l-12 8l-22 9l-21 6l-22 3h-22l-20 -3l-20 -6l-19 -9l-16 -12l-13 -15l-10 -17l-7 -20l-2 -21l2 -18l5 -18l8 -16l11 -14l11 -10l8 22l9 20l10 19l11 18l12 16l14 14l14 13l16 10l16 9l18 5l18 4h20l18 -9l7 -20l-9 -18
l-19 -7l-19 -2l-17 -5l-16 -10l-14 -14l-14 -16l-12 -19l-10 -22l-9 -24l21 2l17 6l13 9l10 12l16 12l21 -2l12 -16l-2 -21l-12 -16l-15 -15l-19 -12l-18 -7l-21 -4l-24 -2l-13 1l-3 -19l-2 -19l-2 -20v-20v-19l2 -20l2 -19l4 -18l6 -23l7 -22l10 -19l11 -17l13 -14l15 -10
l17 -7l19 -3h2l19 2l18 6l16 9l15 13l13 16l11 18l8 15l6 16l6 17l5 18l5 19l3 19l3 20l2 20l1 21v6z" />
    <glyph glyph-name="Ocircumflex" unicode="&#xd4;" horiz-adv-x="456" 
d="M238 802l-10 -18l-10 -18l-11 -18l-10 -18l-10 -18l-10 -18l-2 -20l13 -16l20 -3l16 13l10 17l9 16l10 17l10 17l10 -17l11 -17l10 -17l11 -17l17 -12l20 3l12 17l-3 20l-11 18l-11 17l-11 18l-11 18l-11 17l-11 18l-10 11l-20 2zM294 605l13 -8l12 -8l13 -10l11 -11
l12 -12l11 -13l10 -14l10 -15l8 -17l9 -17l7 -19l7 -20l5 -22l5 -22l4 -24l2 -25l2 -27v-28l-1 -7l-1 -21l-1 -21l-3 -20l-3 -20l-4 -20l-5 -19l-6 -18l-6 -18l-8 -17l-8 -16l-11 -18l-12 -16l-13 -14l-14 -13l-16 -10l-17 -9l-17 -6l-20 -4l-20 -1h-1h-1h-1l-20 2l-19 5
l-17 7l-16 9l-14 11l-13 13l-12 15l-10 16l-9 18l-7 19l-7 21l-5 21l-4 18l-2 18l-2 18l-1 19v19v19l2 17l1 18l3 18l3 17l-20 12l-16 14l-12 15l-11 16l-8 17l-5 18l-4 19l-1 19l2 22l4 21l7 20l10 18l12 16l14 14l15 13l18 11l19 9l20 7l21 4l22 2h22l18 -2l17 -3l18 -5
l17 -7zM381 294v29l-2 27l-3 25l-4 24l-5 21l-7 21l-7 19l-8 17l-9 16l-10 14l-11 13l-11 11l-11 10l-13 9l-12 8l-22 9l-21 6l-22 3h-22l-20 -3l-20 -6l-19 -9l-16 -12l-13 -15l-10 -17l-7 -20l-2 -21l2 -18l5 -18l8 -16l11 -14l11 -10l8 22l9 20l10 19l11 18l12 16l14 14
l14 13l16 10l16 9l18 5l18 4h20l18 -9l7 -20l-9 -18l-19 -7l-19 -2l-17 -5l-16 -10l-14 -14l-14 -16l-12 -19l-10 -22l-9 -24l21 2l17 6l13 9l10 12l16 12l21 -2l12 -16l-2 -21l-12 -16l-15 -15l-19 -12l-18 -7l-21 -4l-24 -2l-13 1l-3 -19l-2 -19l-2 -20v-20v-19l2 -20
l2 -19l4 -18l6 -23l7 -22l10 -19l11 -17l13 -14l15 -10l17 -7l19 -3h2l19 2l18 6l16 9l15 13l13 16l11 18l8 15l6 16l6 17l5 18l5 19l3 19l3 20l2 20l1 21v6z" />
    <glyph glyph-name="Otilde" unicode="&#xd5;" horiz-adv-x="456" 
d="M344 726l-4 -17l-10 -3l-17 2l-20 6l-23 8l-19 7l-19 6l-19 4l-18 2l-18 -1l-17 -6l-14 -9l-11 -12l-8 -13l-4 -16l3 -21l17 -11l20 4l12 16l9 13l12 2l16 -3l19 -6l21 -7l20 -7l20 -6l19 -5l18 -1l18 2l16 6l15 11l10 12l6 14l4 25l-7 20l-18 9l-20 -7zM294 605l13 -8
l12 -8l13 -10l11 -11l12 -12l11 -13l10 -14l10 -15l8 -17l9 -17l7 -19l7 -20l5 -22l5 -22l4 -24l2 -25l2 -27v-28l-1 -7l-1 -21l-1 -21l-3 -20l-3 -20l-4 -20l-5 -19l-6 -18l-6 -18l-8 -17l-8 -16l-11 -18l-12 -16l-13 -14l-14 -13l-16 -10l-17 -9l-17 -6l-20 -4l-20 -1h-1
h-1h-1l-20 2l-19 5l-17 7l-16 9l-14 11l-13 13l-12 15l-10 16l-9 18l-7 19l-7 21l-5 21l-4 18l-2 18l-2 18l-1 19v19v19l2 17l1 18l3 18l3 17l-20 12l-16 14l-12 15l-11 16l-8 17l-5 18l-4 19l-1 19l2 22l4 21l7 20l10 18l12 16l14 14l15 13l18 11l19 9l20 7l21 4l22 2h22
l18 -2l17 -3l18 -5l17 -7zM381 294v29l-2 27l-3 25l-4 24l-5 21l-7 21l-7 19l-8 17l-9 16l-10 14l-11 13l-11 11l-11 10l-13 9l-12 8l-22 9l-21 6l-22 3h-22l-20 -3l-20 -6l-19 -9l-16 -12l-13 -15l-10 -17l-7 -20l-2 -21l2 -18l5 -18l8 -16l11 -14l11 -10l8 22l9 20l10 19
l11 18l12 16l14 14l14 13l16 10l16 9l18 5l18 4h20l18 -9l7 -20l-9 -18l-19 -7l-19 -2l-17 -5l-16 -10l-14 -14l-14 -16l-12 -19l-10 -22l-9 -24l21 2l17 6l13 9l10 12l16 12l21 -2l12 -16l-2 -21l-12 -16l-15 -15l-19 -12l-18 -7l-21 -4l-24 -2l-13 1l-3 -19l-2 -19l-2 -20
v-20v-19l2 -20l2 -19l4 -18l6 -23l7 -22l10 -19l11 -17l13 -14l15 -10l17 -7l19 -3h2l19 2l18 6l16 9l15 13l13 16l11 18l8 15l6 16l6 17l5 18l5 19l3 19l3 20l2 20l1 21v6z" />
    <glyph glyph-name="Odieresis" unicode="&#xd6;" horiz-adv-x="456" 
d="M242 713l7 -18l-3 -19l-13 -13l-18 -7l-19 4l-14 11l-7 18l3 19l12 13l19 7l19 -3zM342 713l7 -18l-3 -19l-13 -13l-18 -7l-19 4l-14 11l-7 18l3 19l12 13l19 7l19 -3zM276 613l18 -8l13 -8l12 -8l13 -10l11 -11l12 -12l11 -13l10 -14l10 -15l8 -17l9 -17l7 -19l7 -20
l5 -22l5 -22l4 -24l2 -25l2 -27v-28l-1 -7l-1 -21l-1 -21l-3 -20l-3 -20l-4 -20l-5 -19l-6 -18l-6 -18l-8 -17l-8 -16l-11 -18l-12 -16l-13 -14l-14 -13l-16 -10l-17 -9l-17 -6l-20 -4l-20 -1h-1h-1h-1l-20 2l-19 5l-17 7l-16 9l-14 11l-13 13l-12 15l-10 16l-9 18l-7 19
l-7 21l-5 21l-4 18l-2 18l-2 18l-1 19v19v19l2 17l1 18l3 18l3 17l-20 12l-16 14l-12 15l-11 16l-8 17l-5 18l-4 19l-1 19l2 22l4 21l7 20l10 18l12 16l14 14l15 13l18 11l19 9l20 7l21 4l22 2h22l18 -2l17 -3l18 -5zM381 288v6v29l-2 27l-3 25l-4 24l-5 21l-7 21l-7 19
l-8 17l-9 16l-10 14l-11 13l-11 11l-11 10l-13 9l-12 8l-22 9l-21 6l-22 3h-22l-20 -3l-20 -6l-19 -9l-16 -12l-13 -15l-10 -17l-7 -20l-2 -21l2 -18l5 -18l8 -16l11 -14l11 -10l8 22l9 20l10 19l11 18l12 16l14 14l14 13l16 10l16 9l18 5l18 4h20l18 -9l7 -20l-9 -18
l-19 -7l-19 -2l-17 -5l-16 -10l-14 -14l-14 -16l-12 -19l-10 -22l-9 -24l21 2l17 6l13 9l10 12l16 12l21 -2l12 -16l-2 -21l-12 -16l-15 -15l-19 -12l-18 -7l-21 -4l-24 -2l-13 1l-3 -19l-2 -19l-2 -20v-20v-19l2 -20l2 -19l4 -18l6 -23l7 -22l10 -19l11 -17l13 -14l15 -10
l17 -7l19 -3h2l19 2l18 6l16 9l15 13l13 16l11 18l8 15l6 16l6 17l5 18l5 19l3 19l3 20l2 20z" />
    <glyph glyph-name="Ugrave" unicode="&#xd9;" horiz-adv-x="685" 
d="M503 712l12 -17l5 -20l-12 -18l-20 -4l-17 11l-12 17l-11 17l-12 17l-12 17l-12 17l-11 17l-12 17l-5 20l12 17l20 5l17 -11l12 -17l11 -17l12 -17l12 -17l12 -17zM661 667l10 -18l-6 -19l-18 -10l-22 -12l-3 -14l-1 -19v-24v-27v-23v-21v-19v-17v-17v-20v-21v-21l1 -21
v-21v-20v-21v-20v-20v-20v-19l-1 -19v-18v-17v-16l-2 -24l-3 -23l-6 -20l-7 -19l-8 -16l-10 -15l-11 -13l-13 -12l-13 -9l-14 -8l-20 -8l-20 -5l-21 -1l-21 3l-20 5l-20 9l-15 9l-14 12l-13 14l-11 15l-10 18l-7 19l-6 22l-3 24v25v20v20v19v20l-1 20v20v20v19v20v20v20v21
v20v21v20v21v20v21v20v21v20v21v20v21l-24 1l-21 -1l-21 -3l-20 -4l-20 -5l-20 -6l-18 -8l-18 -10l-17 -10l-16 -12l-15 -13l-13 -13l-12 -15l-10 -16l-8 -17l-7 -18l-4 -19l-2 -23l2 -24l6 -22l11 -18l13 -13l17 -9l24 -4l17 2l15 7l10 12l1 13l-15 20l-10 18l5 20l18 9
l20 -5l16 -15l11 -16l7 -17l3 -25l-6 -23l-12 -19l-17 -16l-19 -10l-22 -7l-27 -2l-23 3l-21 6l-18 10l-16 13l-14 15l-11 17l-8 18l-7 20l-3 21l-1 28l2 20l4 20l5 19l7 19l9 17l10 17l12 16l13 15l14 14l15 13l15 11l17 11l17 9l18 9l19 7l19 7l19 5l20 4l20 3l21 2l20 1
h28l26 -3l17 -10l6 -19v-21v-20v-21v-20v-21v-21v-20l1 -21v-20v-21v-21v-20v-21v-20v-21v-20v-20v-20v-20v-20l1 -19v-20v-20v-20v-21l1 -26l4 -23l8 -20l11 -17l12 -13l15 -10l17 -7l19 -3l19 2l18 6l13 8l11 10l11 13l8 16l7 19l4 21l2 25v16v17v18l1 19v19v19v20v20v21
v21v21v20v21v21v20v28l-1 27v23v21v15v10v23l1 20l2 18l5 16l10 17l14 14l18 9l24 5z" />
    <glyph glyph-name="Uacute" unicode="&#xda;" horiz-adv-x="685" 
d="M544 818l-11 -15l-12 -15l-11 -15l-11 -16l-11 -15l-12 -15l-11 -15l-11 -15l-5 -20l10 -18l20 -5l18 10l11 15l11 15l12 16l11 15l11 15l11 15l12 16l11 15l5 20l-10 18l-20 5zM671 649l-6 -19l-18 -10l-22 -12l-3 -14l-1 -19v-24v-27v-23v-21v-19v-17v-17v-20v-21v-21
l1 -21v-21v-20v-21v-20v-20v-20v-19l-1 -19v-18v-17v-16l-2 -24l-3 -23l-6 -20l-7 -19l-8 -16l-10 -15l-11 -13l-13 -12l-13 -9l-14 -8l-20 -8l-20 -5l-21 -1l-21 3l-20 5l-20 9l-15 9l-14 12l-13 14l-11 15l-10 18l-7 19l-6 22l-3 24v25v20v20v19v20l-1 20v20v20v19v20v20
v20v21v20v21v20v21v20v21v20v21v20v21v20v21l-24 1l-21 -1l-21 -3l-20 -4l-20 -5l-20 -6l-18 -8l-18 -10l-17 -10l-16 -12l-15 -13l-13 -13l-12 -15l-10 -16l-8 -17l-7 -18l-4 -19l-2 -23l2 -24l6 -22l11 -18l13 -13l17 -9l24 -4l17 2l15 7l10 12l1 13l-15 20l-10 18l5 20
l18 9l20 -5l16 -15l11 -16l7 -17l3 -25l-6 -23l-12 -19l-17 -16l-19 -10l-22 -7l-27 -2l-23 3l-21 6l-18 10l-16 13l-14 15l-11 17l-8 18l-7 20l-3 21l-1 28l2 20l4 20l5 19l7 19l9 17l10 17l12 16l13 15l14 14l15 13l15 11l17 11l17 9l18 9l19 7l19 7l19 5l20 4l20 3l21 2
l20 1h28l26 -3l17 -10l6 -19v-21v-20v-21v-20v-21v-21v-20l1 -21v-20v-21v-21v-20v-21v-20v-21v-20v-20v-20v-20v-20l1 -19v-20v-20v-20v-21l1 -26l4 -23l8 -20l11 -17l12 -13l15 -10l17 -7l19 -3l19 2l18 6l13 8l11 10l11 13l8 16l7 19l4 21l2 25v16v17v18l1 19v19v19v20
v20v21v21v21v20v21v21v20v28l-1 27v23v21v15v10v23l1 20l2 18l5 16l10 17l14 14l18 9l24 5l20 -6z" />
    <glyph glyph-name="Ucircumflex" unicode="&#xdb;" horiz-adv-x="685" 
d="M466 840l-10 -18l-10 -18l-11 -18l-10 -18l-10 -18l-10 -18l-2 -20l13 -16l20 -3l16 13l10 17l9 16l10 17l10 17l10 -17l11 -17l10 -17l11 -17l17 -12l20 3l12 17l-3 20l-11 18l-11 17l-11 18l-11 18l-11 17l-11 18l-10 11l-20 2zM671 649l-6 -19l-18 -10l-22 -12l-3 -14
l-1 -19v-24v-27v-23v-21v-19v-17v-17v-20v-21v-21l1 -21v-21v-20v-21v-20v-20v-20v-19l-1 -19v-18v-17v-16l-2 -24l-3 -23l-6 -20l-7 -19l-8 -16l-10 -15l-11 -13l-13 -12l-13 -9l-14 -8l-20 -8l-20 -5l-21 -1l-21 3l-20 5l-20 9l-15 9l-14 12l-13 14l-11 15l-10 18l-7 19
l-6 22l-3 24v25v20v20v19v20l-1 20v20v20v19v20v20v20v21v20v21v20v21v20v21v20v21v20v21v20v21l-24 1l-21 -1l-21 -3l-20 -4l-20 -5l-20 -6l-18 -8l-18 -10l-17 -10l-16 -12l-15 -13l-13 -13l-12 -15l-10 -16l-8 -17l-7 -18l-4 -19l-2 -23l2 -24l6 -22l11 -18l13 -13l17 -9
l24 -4l17 2l15 7l10 12l1 13l-15 20l-10 18l5 20l18 9l20 -5l16 -15l11 -16l7 -17l3 -25l-6 -23l-12 -19l-17 -16l-19 -10l-22 -7l-27 -2l-23 3l-21 6l-18 10l-16 13l-14 15l-11 17l-8 18l-7 20l-3 21l-1 28l2 20l4 20l5 19l7 19l9 17l10 17l12 16l13 15l14 14l15 13l15 11
l17 11l17 9l18 9l19 7l19 7l19 5l20 4l20 3l21 2l20 1h28l26 -3l17 -10l6 -19v-21v-20v-21v-20v-21v-21v-20l1 -21v-20v-21v-21v-20v-21v-20v-21v-20v-20v-20v-20v-20l1 -19v-20v-20v-20v-21l1 -26l4 -23l8 -20l11 -17l12 -13l15 -10l17 -7l19 -3l19 2l18 6l13 8l11 10
l11 13l8 16l7 19l4 21l2 25v16v17v18l1 19v19v19v20v20v21v21v21v20v21v21v20v28l-1 27v23v21v15v10v23l1 20l2 18l5 16l10 17l14 14l18 9l24 5l20 -6z" />
    <glyph glyph-name="Udieresis" unicode="&#xdc;" horiz-adv-x="685" 
d="M467 742l7 -18l-3 -19l-13 -13l-18 -7l-19 4l-14 11l-7 18l3 19l12 13l19 7l19 -3zM567 742l7 -18l-3 -19l-13 -13l-18 -7l-19 4l-14 11l-7 18l3 19l12 13l19 7l19 -3zM661 667l10 -18l-6 -19l-18 -10l-22 -12l-3 -14l-1 -19v-24v-27v-23v-21v-19v-17v-17v-20v-21v-21
l1 -21v-21v-20v-21v-20v-20v-20v-19l-1 -19v-18v-17v-16l-2 -24l-3 -23l-6 -20l-7 -19l-8 -16l-10 -15l-11 -13l-13 -12l-13 -9l-14 -8l-20 -8l-20 -5l-21 -1l-21 3l-20 5l-20 9l-15 9l-14 12l-13 14l-11 15l-10 18l-7 19l-6 22l-3 24v25v20v20v19v20l-1 20v20v20v19v20v20
v20v21v20v21v20v21v20v21v20v21v20v21v20v21l-24 1l-21 -1l-21 -3l-20 -4l-20 -5l-20 -6l-18 -8l-18 -10l-17 -10l-16 -12l-15 -13l-13 -13l-12 -15l-10 -16l-8 -17l-7 -18l-4 -19l-2 -23l2 -24l6 -22l11 -18l13 -13l17 -9l24 -4l17 2l15 7l10 12l1 13l-15 20l-10 18l5 20
l18 9l20 -5l16 -15l11 -16l7 -17l3 -25l-6 -23l-12 -19l-17 -16l-19 -10l-22 -7l-27 -2l-23 3l-21 6l-18 10l-16 13l-14 15l-11 17l-8 18l-7 20l-3 21l-1 28l2 20l4 20l5 19l7 19l9 17l10 17l12 16l13 15l14 14l15 13l15 11l17 11l17 9l18 9l19 7l19 7l19 5l20 4l20 3l21 2
l20 1h28l26 -3l17 -10l6 -19v-21v-20v-21v-20v-21v-21v-20l1 -21v-20v-21v-21v-20v-21v-20v-21v-20v-20v-20v-20v-20l1 -19v-20v-20v-20v-21l1 -26l4 -23l8 -20l11 -17l12 -13l15 -10l17 -7l19 -3l19 2l18 6l13 8l11 10l11 13l8 16l7 19l4 21l2 25v16v17v18l1 19v19v19v20
v20v21v21v21v20v21v21v20v28l-1 27v23v21v15v10v23l1 20l2 18l5 16l10 17l14 14l18 9l24 5z" />
    <glyph glyph-name="Yacute" unicode="&#xdd;" horiz-adv-x="646" 
d="M685 614l19 -7l8 -19l-8 -19l-19 -9l-21 -3l-16 -9l-10 -11l-9 -14l-9 -22l-8 -18l-8 -19l-8 -18l-8 -19l-8 -18l-8 -18l-9 -19l-8 -18l-8 -18l-8 -19l-8 -18l-8 -19l-8 -18v-19v-19v-18v-19v-19v-19v-18v-19h1v-21l-1 -18l-3 -16l-4 -15l-9 -16l-13 -13l-17 -8l-22 -5
l-20 6l-10 18l6 20l18 10l17 8l2 12l1 17v21h1v19v19v19l-1 19v19v19v19v19l-5 21l-5 21l-6 21l-6 20l-6 20l-7 20l-7 20l-8 18l-8 19l-9 17l-9 17l-10 16l-12 17l-13 16l-14 14l-16 13l-16 11l-17 10l-19 7l-20 6l-21 4l-25 1h-3l-22 -1l-21 -4l-20 -6l-18 -8l-17 -10
l-15 -14l-12 -18l-8 -20l-3 -25v-1l2 -18l5 -18l8 -16l11 -14l16 -13l21 -9l26 -4l23 2l18 7l13 11l9 13l5 28l-8 25l-17 12h-26l-21 4l-11 17l3 20l17 12l22 3l19 -1l18 -5l15 -8l14 -10l11 -13l9 -16l6 -17l3 -19v-18l-4 -19l-6 -18l-9 -15l-11 -14l-13 -12l-16 -10
l-19 -7l-21 -5l-24 -1l-21 2l-19 4l-18 6l-16 8l-14 10l-13 12l-12 15l-11 16l-8 17l-5 18l-4 18l-1 19v1v4l2 21l4 20l7 18l9 17l11 15l12 14l15 12l15 10l17 9l18 8l19 5l20 5l20 2l21 1h5l22 -1l22 -3l20 -4l19 -6l18 -7l17 -9l17 -10l15 -11l15 -12l13 -14l13 -14
l13 -16l11 -16l10 -15l9 -16l9 -17l8 -16l8 -18l7 -18l7 -18l6 -18l6 -19l6 -19l8 19l9 19l8 19l9 19l8 20l9 19l8 19l9 19l8 19l8 20l10 18l11 16l13 13l15 11l17 8l19 4zM559 775l-11 -15l-12 -15l-11 -15l-11 -16l-11 -15l-12 -15l-11 -15l-11 -15l-5 -20l10 -18l20 -5
l18 10l11 15l11 15l12 16l11 15l11 15l11 15l12 16l11 15l5 20l-10 18l-20 5z" />
    <glyph glyph-name="germandbls" unicode="&#xdf;" horiz-adv-x="355" 
d="M285 299l15 -14l12 -16l10 -16l6 -18l5 -19l3 -19v-19v-1v-3v-1l-1 -20l-4 -20l-5 -19l-8 -19l-11 -18l-14 -17l-16 -15l-13 -9l-14 -9l-16 -7l-17 -7l-19 -5l-21 -4l-22 -3l-25 -1l-19 8l-7 25l-13 -16l-19 -11l-25 -6l-20 6l-10 18l6 19l18 11l16 8l3 19l1 30v19v20v19
v19v19v20v19v19v20v19v19v19v20v19v9v22v22l1 22l2 21l3 20l5 18l7 17l8 14l12 12l14 10l17 6l20 3l11 -1l22 -2l20 -6l19 -8l18 -11l15 -13l13 -15l12 -17l8 -19l6 -20l2 -21v-11l-2 -18l-4 -18l-6 -18l-8 -17l-9 -15l-12 -15l-10 -10l21 -10zM282 175v3l-1 20l-3 18l-7 18
l-11 15l-12 11l-16 9l-19 7l-22 5l-27 2h-6l-18 9l-8 19l7 18l17 8l23 6l19 11l17 14l11 15l8 17l6 17l2 25l-4 21l-8 18l-13 17l-17 12l-19 9l-30 4l-13 -5l-10 -11l-6 -17l-4 -22l-2 -24l-1 -27v-27v-9v-19v-20v-19v-19v-19v-20v-19v-19v-20v-19v-19v-19v-20v-19v-25
l-2 -23l-5 -20l22 11l25 1l23 4l19 5l18 6l15 8l13 9l15 15l11 17l7 18l4 19z" />
    <glyph glyph-name="agrave" unicode="&#xe0;" horiz-adv-x="275" 
d="M220 62l17 -8l18 -10l6 -20l-10 -18l-20 -6l-21 4l-16 8l-12 11l-21 -14l-21 -7l-20 -2l-20 2l-20 6l-17 11l-16 16l-14 20l-6 14l-6 15l-4 16l-4 19l-3 20l-1 21l-1 24v18l1 18l3 20l3 20l4 20l6 19l7 19l9 18l11 17l14 15l15 12l18 10l21 6l23 2h17l18 -3l21 -8l16 -9
l15 -13l15 -17l13 -22l2 -21l-13 -16l-16 -3l-14 4v-20v-20v-19v-20v-20v-20v-19v-20v-20v-21l1 -17zM171 309l19 8l11 -2l-13 14l-13 9l-17 6l-15 1l-23 -5l-19 -13l-13 -18l-9 -19l-7 -21l-5 -21l-3 -22l-2 -22v-20l1 -27l2 -24l4 -20l5 -17l7 -15l18 -20l21 -7l14 2l14 9
l9 12l6 19v16v20v20v19v20v20v20v19v20v20zM190 483l12 -17l5 -20l-12 -18l-20 -4l-17 11l-12 17l-11 17l-12 17l-12 17l-12 17l-11 17l-12 17l-5 20l12 17l20 5l17 -11l12 -17l11 -17l12 -17l12 -17l12 -17z" />
    <glyph glyph-name="aacute" unicode="&#xe1;" horiz-adv-x="275" 
d="M194 584l-11 -15l-12 -15l-11 -15l-11 -16l-11 -15l-12 -15l-11 -15l-11 -15l-5 -20l10 -18l20 -5l18 10l11 15l11 15l12 16l11 15l11 15l11 15l12 16l11 15l5 20l-10 18l-20 5zM237 54l18 -10l6 -20l-10 -18l-20 -6l-21 4l-16 8l-12 11l-21 -14l-21 -7l-20 -2l-20 2
l-20 6l-17 11l-16 16l-14 20l-6 14l-6 15l-4 16l-4 19l-3 20l-1 21l-1 24v18l1 18l3 20l3 20l4 20l6 19l7 19l9 18l11 17l14 15l15 12l18 10l21 6l23 2h17l18 -3l21 -8l16 -9l15 -13l15 -17l13 -22l2 -21l-13 -16l-16 -3l-14 4v-20v-20v-19v-20v-20v-20v-19v-20v-20v-21
l1 -17l2 -12zM190 317l11 -2l-13 14l-13 9l-17 6l-15 1l-23 -5l-19 -13l-13 -18l-9 -19l-7 -21l-5 -21l-3 -22l-2 -22v-20l1 -27l2 -24l4 -20l5 -17l7 -15l18 -20l21 -7l14 2l14 9l9 12l6 19v16v20v20v19v20v20v20v19v20v20l8 19z" />
    <glyph glyph-name="acircumflex" unicode="&#xe2;" horiz-adv-x="275" 
d="M120 565l-10 -18l-10 -18l-11 -18l-10 -18l-10 -18l-10 -18l-2 -20l13 -16l20 -3l16 13l10 17l9 16l10 17l10 17l10 -17l11 -17l10 -17l11 -17l17 -12l20 3l12 17l-3 20l-11 18l-11 17l-11 18l-11 18l-11 17l-11 18l-10 11l-20 2zM237 54l18 -10l6 -20l-10 -18l-20 -6
l-21 4l-16 8l-12 11l-21 -14l-21 -7l-20 -2l-20 2l-20 6l-17 11l-16 16l-14 20l-6 14l-6 15l-4 16l-4 19l-3 20l-1 21l-1 24v18l1 18l3 20l3 20l4 20l6 19l7 19l9 18l11 17l14 15l15 12l18 10l21 6l23 2h17l18 -3l21 -8l16 -9l15 -13l15 -17l13 -22l2 -21l-13 -16l-16 -3
l-14 4v-20v-20v-19v-20v-20v-20v-19v-20v-20v-21l1 -17l2 -12zM190 317l11 -2l-13 14l-13 9l-17 6l-15 1l-23 -5l-19 -13l-13 -18l-9 -19l-7 -21l-5 -21l-3 -22l-2 -22v-20l1 -27l2 -24l4 -20l5 -17l7 -15l18 -20l21 -7l14 2l14 9l9 12l6 19v16v20v20v19v20v20v20v19v20v20
l8 19z" />
    <glyph glyph-name="atilde" unicode="&#xe3;" horiz-adv-x="275" 
d="M222 493l-4 -17l-10 -3l-17 2l-20 6l-23 8l-19 7l-19 6l-19 4l-18 2l-18 -1l-17 -6l-14 -9l-11 -12l-8 -13l-4 -16l3 -21l17 -11l20 4l12 16l9 13l12 2l16 -3l19 -6l21 -7l20 -7l20 -6l19 -5l18 -1l18 2l16 6l15 11l10 12l6 14l4 25l-7 20l-18 9l-20 -7zM237 54l18 -10
l6 -20l-10 -18l-20 -6l-21 4l-16 8l-12 11l-21 -14l-21 -7l-20 -2l-20 2l-20 6l-17 11l-16 16l-14 20l-6 14l-6 15l-4 16l-4 19l-3 20l-1 21l-1 24v18l1 18l3 20l3 20l4 20l6 19l7 19l9 18l11 17l14 15l15 12l18 10l21 6l23 2h17l18 -3l21 -8l16 -9l15 -13l15 -17l13 -22
l2 -21l-13 -16l-16 -3l-14 4v-20v-20v-19v-20v-20v-20v-19v-20v-20v-21l1 -17l2 -12zM190 317l11 -2l-13 14l-13 9l-17 6l-15 1l-23 -5l-19 -13l-13 -18l-9 -19l-7 -21l-5 -21l-3 -22l-2 -22v-20l1 -27l2 -24l4 -20l5 -17l7 -15l18 -20l21 -7l14 2l14 9l9 12l6 19v16v20v20
v19v20v20v20v19v20v20l8 19z" />
    <glyph glyph-name="adieresis" unicode="&#xe4;" horiz-adv-x="275" 
d="M131 482l7 -18l-3 -19l-13 -13l-18 -7l-19 4l-14 11l-7 18l3 19l12 13l19 7l19 -3zM231 482l7 -18l-3 -19l-13 -13l-18 -7l-19 4l-14 11l-7 18l3 19l12 13l19 7l19 -3zM220 62l17 -8l18 -10l6 -20l-10 -18l-20 -6l-21 4l-16 8l-12 11l-21 -14l-21 -7l-20 -2l-20 2l-20 6
l-17 11l-16 16l-14 20l-6 14l-6 15l-4 16l-4 19l-3 20l-1 21l-1 24v18l1 18l3 20l3 20l4 20l6 19l7 19l9 18l11 17l14 15l15 12l18 10l21 6l23 2h17l18 -3l21 -8l16 -9l15 -13l15 -17l13 -22l2 -21l-13 -16l-16 -3l-14 4v-20v-20v-19v-20v-20v-20v-19v-20v-20v-21l1 -17z
M171 309l19 8l11 -2l-13 14l-13 9l-17 6l-15 1l-23 -5l-19 -13l-13 -18l-9 -19l-7 -21l-5 -21l-3 -22l-2 -22v-20l1 -27l2 -24l4 -20l5 -17l7 -15l18 -20l21 -7l14 2l14 9l9 12l6 19v16v20v20v19v20v20v20v19v20v20z" />
    <glyph glyph-name="aring" unicode="&#xe5;" horiz-adv-x="275" 
d="M148 557l-18 -2l-16 -7l-13 -10l-11 -13l-7 -16l-2 -17l2 -18l7 -16l11 -13l13 -10l16 -7l18 -2l17 2l16 7l13 10l11 13l7 16l2 18l-2 17l-7 16l-11 13l-13 10l-16 7zM169 512l8 -20l-8 -20l-21 -9l-22 9l-8 20l8 20l22 8zM237 54l18 -10l6 -20l-10 -18l-20 -6l-21 4
l-16 8l-12 11l-21 -14l-21 -7l-20 -2l-20 2l-20 6l-17 11l-16 16l-14 20l-6 14l-6 15l-4 16l-4 19l-3 20l-1 21l-1 24v18l1 18l3 20l3 20l4 20l6 19l7 19l9 18l11 17l14 15l15 12l18 10l21 6l23 2h17l18 -3l21 -8l16 -9l15 -13l15 -17l13 -22l2 -21l-13 -16l-16 -3l-14 4
v-20v-20v-19v-20v-20v-20v-19v-20v-20v-21l1 -17l2 -12zM190 317l11 -2l-13 14l-13 9l-17 6l-15 1l-23 -5l-19 -13l-13 -18l-9 -19l-7 -21l-5 -21l-3 -22l-2 -22v-20l1 -27l2 -24l4 -20l5 -17l7 -15l18 -20l21 -7l14 2l14 9l9 12l6 19v16v20v20v19v20v20v20v19v20v20l8 19z
" />
    <glyph glyph-name="egrave" unicode="&#xe8;" horiz-adv-x="275" 
d="M213 151l20 7l18 -9l7 -20l-3 -22l-6 -20l-8 -18l-11 -17l-12 -14l-15 -14l-17 -10l-18 -8l-19 -5l-20 -1l-17 2l-17 5l-16 7l-15 11l-14 14l-12 18l-7 14l-6 15l-5 16l-4 18l-3 20l-2 22v23l1 15l1 21l2 19l4 20l4 20l6 19l8 19l9 18l11 17l13 15l15 13l18 9l20 6l23 3
l23 -3l21 -9l17 -14l12 -18l7 -20l2 -23l-4 -22l-10 -23l-8 -11l-9 -11l-12 -10l-14 -10l-17 -9l-18 -8l-21 -6l-24 -6l-26 -13v-25l3 -23l4 -19l5 -17l7 -14l14 -17l16 -11l17 -3l17 2l17 7l15 13l12 15l8 19l4 23zM106 327l-14 -18l-9 -19l-7 -21l-5 -22l25 5l22 7l18 8
l14 9l10 9l8 10l7 20l-4 15l-24 15l-23 -5zM180 464l11 -18l-5 -20l-18 -11l-20 5l-17 12l-15 13l-17 12l-17 12l-17 12l-16 13l-17 12l-11 18l6 19l17 12l20 -5l17 -12l15 -13l17 -12l17 -12l17 -12l16 -13z" />
    <glyph glyph-name="eacute" unicode="&#xe9;" horiz-adv-x="275" 
d="M213 151l20 7l18 -9l7 -20l-3 -22l-6 -20l-8 -18l-11 -17l-12 -14l-15 -14l-17 -10l-18 -8l-19 -5l-20 -1l-17 2l-17 5l-16 7l-15 11l-14 14l-12 18l-7 14l-6 15l-5 16l-4 18l-3 20l-2 22v23l1 15l1 21l2 19l4 20l4 20l6 19l8 19l9 18l11 17l13 15l15 13l18 9l20 6l23 3
l23 -3l21 -9l17 -14l12 -18l7 -20l2 -23l-4 -22l-10 -23l-8 -11l-9 -11l-12 -10l-14 -10l-17 -9l-18 -8l-21 -6l-24 -6l-26 -13v-25l3 -23l4 -19l5 -17l7 -14l14 -17l16 -11l17 -3l17 2l17 7l15 13l12 15l8 19l4 23zM106 327l-14 -18l-9 -19l-7 -21l-5 -22l25 5l22 7l18 8
l14 9l10 9l8 10l7 20l-4 15l-24 15l-23 -5zM90 459l16 13l15 14l16 13l16 13l16 14l15 13l16 13l19 7l18 -10l7 -20l-10 -18l-16 -13l-15 -14l-16 -13l-16 -13l-16 -14l-15 -13l-16 -13l-19 -7l-19 10l-6 20z" />
    <glyph glyph-name="ecircumflex" unicode="&#xea;" horiz-adv-x="275" 
d="M108 564l-10 -18l-10 -18l-11 -18l-10 -18l-10 -18l-10 -18l-2 -20l13 -16l20 -3l16 13l10 17l9 16l10 17l10 17l10 -17l11 -17l10 -17l11 -17l17 -12l20 3l12 17l-3 20l-11 18l-11 17l-11 18l-11 18l-11 17l-11 18l-10 11l-20 2zM233 158l18 -9l7 -20l-3 -22l-6 -20
l-8 -18l-11 -17l-12 -14l-15 -14l-17 -10l-18 -8l-19 -5l-20 -1l-17 2l-17 5l-16 7l-15 11l-14 14l-12 18l-7 14l-6 15l-5 16l-4 18l-3 20l-2 22v23l1 15l1 21l2 19l4 20l4 20l6 19l8 19l9 18l11 17l13 15l15 13l18 9l20 6l23 3l23 -3l21 -9l17 -14l12 -18l7 -20l2 -23
l-4 -22l-10 -23l-8 -11l-9 -11l-12 -10l-14 -10l-17 -9l-18 -8l-21 -6l-24 -6l-26 -13v-25l3 -23l4 -19l5 -17l7 -14l14 -17l16 -11l17 -3l17 2l17 7l15 13l12 15l8 19l4 23l9 18zM92 309l-9 -19l-7 -21l-5 -22l25 5l22 7l18 8l14 9l10 9l8 10l7 20l-4 15l-24 15l-23 -5
l-18 -13z" />
    <glyph glyph-name="edieresis" unicode="&#xeb;" horiz-adv-x="275" 
d="M116 480l7 -18l-3 -19l-13 -13l-18 -7l-19 4l-14 11l-7 18l3 19l12 13l19 7l19 -3zM216 480l7 -18l-3 -19l-13 -13l-18 -7l-19 4l-14 11l-7 18l3 19l12 13l19 7l19 -3zM213 151l20 7l18 -9l7 -20l-3 -22l-6 -20l-8 -18l-11 -17l-12 -14l-15 -14l-17 -10l-18 -8l-19 -5
l-20 -1l-17 2l-17 5l-16 7l-15 11l-14 14l-12 18l-7 14l-6 15l-5 16l-4 18l-3 20l-2 22v23l1 15l1 21l2 19l4 20l4 20l6 19l8 19l9 18l11 17l13 15l15 13l18 9l20 6l23 3l23 -3l21 -9l17 -14l12 -18l7 -20l2 -23l-4 -22l-10 -23l-8 -11l-9 -11l-12 -10l-14 -10l-17 -9
l-18 -8l-21 -6l-24 -6l-26 -13v-25l3 -23l4 -19l5 -17l7 -14l14 -17l16 -11l17 -3l17 2l17 7l15 13l12 15l8 19l4 23zM106 327l-14 -18l-9 -19l-7 -21l-5 -22l25 5l22 7l18 8l14 9l10 9l8 10l7 20l-4 15l-24 15l-23 -5z" />
    <glyph glyph-name="igrave" unicode="&#xec;" horiz-adv-x="120" 
d="M75 62l16 -8l18 -10l6 -20l-10 -18l-20 -5l-22 5l-18 8l-12 13l-9 16l-5 20l-2 23v26v20v20v20v20v20v20v19v20v20v20v20v20v20l8 20l19 8l19 -8l8 -20v-20v-20v-20v-20v-20v-20v-19v-20v-20v-20v-20v-20v-20v-21l1 -17zM127 459l-12 17l-11 17l-12 17l-12 17l-12 17
l-11 17l-12 17l-17 11l-20 -5l-12 -17l5 -20l12 -17l11 -17l12 -17l12 -17l12 -17l11 -17l12 -17l17 -11l20 4l12 18z" />
    <glyph glyph-name="iacute" unicode="&#xed;" horiz-adv-x="124" 
d="M91 54l18 -10l6 -20l-10 -18l-20 -5l-22 5l-18 8l-12 13l-9 16l-5 20l-2 23v26v20v20v20v20v20v20v19v20v20v20v20v20v20l8 20l19 8l19 -8l8 -20v-20v-20v-20v-20v-20v-20v-19v-20v-20v-20v-20v-20v-20v-21l1 -17l3 -12zM67 575l-11 -15l-12 -15l-11 -15l-11 -16l-11 -15
l-12 -15l-11 -15l-11 -15l-5 -20l10 -18l20 -5l18 10l11 15l11 15l12 16l11 15l11 15l11 15l12 16l11 15l5 20l-10 18l-20 5z" />
    <glyph glyph-name="icircumflex" unicode="&#xee;" horiz-adv-x="126" 
d="M91 54l18 -10l6 -20l-10 -18l-20 -5l-22 5l-18 8l-12 13l-9 16l-5 20l-2 23v26v20v20v20v20v20v20v19v20v20v20v20v20v20l8 20l19 8l19 -8l8 -20v-20v-20v-20v-20v-20v-20v-19v-20v-20v-20v-20v-20v-20v-21l1 -17l3 -12zM19 560l-10 -18l-10 -18l-11 -18l-10 -18l-10 -18
l-10 -18l-2 -20l13 -16l20 -3l16 13l10 17l9 16l10 17l10 17l10 -17l11 -17l10 -17l11 -17l17 -12l20 3l12 17l-3 20l-11 18l-11 17l-11 18l-11 18l-11 17l-11 18l-10 11l-20 2z" />
    <glyph glyph-name="idieresis" unicode="&#xef;" horiz-adv-x="124" 
d="M75 62l16 -8l18 -10l6 -20l-10 -18l-20 -5l-22 5l-18 8l-12 13l-9 16l-5 20l-2 23v26v20v20v20v20v20v20v19v20v20v20v20v20v20l8 20l19 8l19 -8l8 -20v-20v-20v-20v-20v-20v-20v-19v-20v-20v-20v-20v-20v-20v-21l1 -17zM24 488l7 -18l-3 -19l-13 -13l-18 -7l-19 4
l-14 11l-7 18l3 19l12 13l19 7l19 -3zM124 488l7 -18l-3 -19l-13 -13l-18 -7l-19 4l-14 11l-7 18l3 19l12 13l19 7l19 -3z" />
    <glyph glyph-name="ntilde" unicode="&#xf1;" horiz-adv-x="265" 
d="M205 550l-4 -17l-10 -3l-17 2l-20 6l-23 8l-19 7l-19 6l-19 4l-18 2l-18 -1l-17 -6l-14 -9l-11 -12l-8 -13l-4 -16l3 -21l17 -11l20 4l12 16l9 13l12 2l16 -3l19 -6l21 -7l20 -7l20 -6l19 -5l18 -1l18 2l16 6l15 11l10 12l6 14l4 25l-7 20l-18 9l-20 -7zM256 -64l18 -10
l6 -20l-10 -18l-20 -6l-22 5l-17 8l-13 13l-9 16l-5 20l-2 23v26v19v19v19v19v20v19v19v19v19v20l1 22v23l1 23v23l-1 22l-1 20l-2 18l-3 14l-9 18h-1l-11 4l-19 -7l-18 -18l-11 -17l-6 -20l-3 -23v-20v-20v-20v-20v-20v-20v-20v-20v-20v-20v-20v-20v-20l-8 -19l-19 -8
l-19 8l-8 19v20v20v19v20v20v20v20v19v20v20v20v20v20v19v20v20v21l-1 17l-3 12l-16 8l-18 10l-6 20l10 18l20 6l22 -5l17 -9l13 -12l9 -16l3 -13l20 14l20 8l21 3l17 -2l15 -5l16 -12l14 -17l11 -24l4 -15l2 -18l2 -20v-21l1 -21v-22l-1 -22v-21l-1 -22v-19v-19v-19v-19
v-19v-20v-19v-19v-19v-19v-29l4 -20z" />
    <glyph glyph-name="ograve" unicode="&#xf2;" 
d="M207 375l10 -17l8 -16l6 -18l5 -19l5 -20l3 -20l1 -21l1 -21v-3v-20l-2 -21l-2 -20l-4 -21l-5 -20l-5 -19l-7 -18l-9 -19l-11 -18l-12 -15l-13 -12l-15 -9l-17 -6l-18 -2h-4l-18 3l-16 7l-15 10l-12 13l-12 15l-10 18l-8 19l-6 18l-5 19l-3 21l-3 20l-2 21l-1 21v20l1 10
l1 20l3 21l4 19l5 19l6 18l7 16l8 15l13 19l15 16l18 12l19 7l21 2l18 -2l17 -6l15 -9l13 -12zM192 220v3l-1 20l-2 20l-3 19l-4 19l-6 17l-7 15l-11 17l-13 11l-14 5l-14 -4l-13 -10l-11 -16l-9 -17l-7 -20l-5 -21l-4 -23l-3 -32v-20l1 -21l2 -20l4 -20l4 -20l6 -18l12 -25
l14 -17l17 -8h1l17 7l15 16l13 25l6 18l6 19l4 20l3 20l1 21zM178 498l12 -17l5 -20l-12 -18l-20 -4l-17 11l-12 17l-11 17l-12 17l-12 17l-12 17l-11 17l-12 17l-5 20l12 17l20 5l17 -11l12 -17l11 -17l12 -17l12 -17l12 -17z" />
    <glyph glyph-name="oacute" unicode="&#xf3;" 
d="M177 605l-11 -15l-12 -15l-11 -15l-11 -16l-11 -15l-12 -15l-11 -15l-11 -15l-5 -20l10 -18l20 -5l18 10l11 15l11 15l12 16l11 15l11 15l11 15l12 16l11 15l5 20l-10 18l-20 5zM217 358l8 -16l6 -18l5 -19l5 -20l3 -20l1 -21l1 -21v-3v-20l-2 -21l-2 -20l-4 -21l-5 -20
l-5 -19l-7 -18l-9 -19l-11 -18l-12 -15l-13 -12l-15 -9l-17 -6l-18 -2h-4l-18 3l-16 7l-15 10l-12 13l-12 15l-10 18l-8 19l-6 18l-5 19l-3 21l-3 20l-2 21l-1 21v20l1 10l1 20l3 21l4 19l5 19l6 18l7 16l8 15l13 19l15 16l18 12l19 7l21 2l18 -2l17 -6l15 -9l13 -12l12 -15
zM192 223l-1 20l-2 20l-3 19l-4 19l-6 17l-7 15l-11 17l-13 11l-14 5l-14 -4l-13 -10l-11 -16l-9 -17l-7 -20l-5 -21l-4 -23l-3 -32v-20l1 -21l2 -20l4 -20l4 -20l6 -18l12 -25l14 -17l17 -8h1l17 7l15 16l13 25l6 18l6 19l4 20l3 20l1 21l1 20v3z" />
    <glyph glyph-name="ocircumflex" unicode="&#xf4;" 
d="M100 584l-10 -18l-10 -18l-11 -18l-10 -18l-10 -18l-10 -18l-2 -20l13 -16l20 -3l16 13l10 17l9 16l10 17l10 17l10 -17l11 -17l10 -17l11 -17l17 -12l20 3l12 17l-3 20l-11 18l-11 17l-11 18l-11 18l-11 17l-11 18l-10 11l-20 2zM217 358l8 -16l6 -18l5 -19l5 -20l3 -20
l1 -21l1 -21v-3v-20l-2 -21l-2 -20l-4 -21l-5 -20l-5 -19l-7 -18l-9 -19l-11 -18l-12 -15l-13 -12l-15 -9l-17 -6l-18 -2h-4l-18 3l-16 7l-15 10l-12 13l-12 15l-10 18l-8 19l-6 18l-5 19l-3 21l-3 20l-2 21l-1 21v20l1 10l1 20l3 21l4 19l5 19l6 18l7 16l8 15l13 19l15 16
l18 12l19 7l21 2l18 -2l17 -6l15 -9l13 -12l12 -15zM192 223l-1 20l-2 20l-3 19l-4 19l-6 17l-7 15l-11 17l-13 11l-14 5l-14 -4l-13 -10l-11 -16l-9 -17l-7 -20l-5 -21l-4 -23l-3 -32v-20l1 -21l2 -20l4 -20l4 -20l6 -18l12 -25l14 -17l17 -8h1l17 7l15 16l13 25l6 18l6 19
l4 20l3 20l1 21l1 20v3z" />
    <glyph glyph-name="otilde" unicode="&#xf5;" 
d="M207 518l-4 -17l-10 -3l-17 2l-20 6l-23 8l-19 7l-19 6l-19 4l-18 2l-18 -1l-17 -6l-14 -9l-11 -12l-8 -13l-4 -16l3 -21l17 -11l20 4l12 16l9 13l12 2l16 -3l19 -6l21 -7l20 -7l20 -6l19 -5l18 -1l18 2l16 6l15 11l10 12l6 14l4 25l-7 20l-18 9l-20 -7zM217 358l8 -16
l6 -18l5 -19l5 -20l3 -20l1 -21l1 -21v-3v-20l-2 -21l-2 -20l-4 -21l-5 -20l-5 -19l-7 -18l-9 -19l-11 -18l-12 -15l-13 -12l-15 -9l-17 -6l-18 -2h-4l-18 3l-16 7l-15 10l-12 13l-12 15l-10 18l-8 19l-6 18l-5 19l-3 21l-3 20l-2 21l-1 21v20l1 10l1 20l3 21l4 19l5 19
l6 18l7 16l8 15l13 19l15 16l18 12l19 7l21 2l18 -2l17 -6l15 -9l13 -12l12 -15zM192 223l-1 20l-2 20l-3 19l-4 19l-6 17l-7 15l-11 17l-13 11l-14 5l-14 -4l-13 -10l-11 -16l-9 -17l-7 -20l-5 -21l-4 -23l-3 -32v-20l1 -21l2 -20l4 -20l4 -20l6 -18l12 -25l14 -17l17 -8h1
l17 7l15 16l13 25l6 18l6 19l4 20l3 20l1 21l1 20v3z" />
    <glyph glyph-name="odieresis" unicode="&#xf6;" 
d="M104 499l7 -18l-3 -19l-13 -13l-18 -7l-19 4l-14 11l-7 18l3 19l12 13l19 7l19 -3zM204 499l7 -18l-3 -19l-13 -13l-18 -7l-19 4l-14 11l-7 18l3 19l12 13l19 7l19 -3zM207 375l10 -17l8 -16l6 -18l5 -19l5 -20l3 -20l1 -21l1 -21v-3v-20l-2 -21l-2 -20l-4 -21l-5 -20
l-5 -19l-7 -18l-9 -19l-11 -18l-12 -15l-13 -12l-15 -9l-17 -6l-18 -2h-4l-18 3l-16 7l-15 10l-12 13l-12 15l-10 18l-8 19l-6 18l-5 19l-3 21l-3 20l-2 21l-1 21v20l1 10l1 20l3 21l4 19l5 19l6 18l7 16l8 15l13 19l15 16l18 12l19 7l21 2l18 -2l17 -6l15 -9l13 -12z
M192 220v3l-1 20l-2 20l-3 19l-4 19l-6 17l-7 15l-11 17l-13 11l-14 5l-14 -4l-13 -10l-11 -16l-9 -17l-7 -20l-5 -21l-4 -23l-3 -32v-20l1 -21l2 -20l4 -20l4 -20l6 -18l12 -25l14 -17l17 -8h1l17 7l15 16l13 25l6 18l6 19l4 20l3 20l1 21z" />
    <glyph glyph-name="ugrave" unicode="&#xf9;" horiz-adv-x="311" 
d="M183 485l12 -17l5 -20l-12 -18l-20 -4l-17 11l-12 17l-11 17l-12 17l-12 17l-12 17l-11 17l-12 17l-5 20l12 17l20 5l17 -11l12 -17l11 -17l12 -17l12 -17l12 -17zM267 62l16 -8l18 -10l6 -20l-10 -18l-20 -6l-21 5l-16 7l-13 11l-21 -14l-21 -7l-18 -2l-22 1l-20 4
l-17 7l-14 11l-11 13l-10 16l-6 14l-4 15l-4 17l-2 19l-2 20l-1 23v24v19v20v19v20v19v20v19v20v21l-1 17l-3 12l-16 8l-18 10l-6 20l10 18l20 6l22 -5l17 -9l13 -12l9 -16l4 -15l2 -16l1 -19v-20v-20v-19v-20v-19v-20v-19v-20v-19v-29l2 -25l2 -22l4 -18l5 -14l10 -12
l15 -8l21 -2l12 3l15 9l9 12l6 18v16v20v20v20v20v20v20v19v20v20v20v20v20v20l8 19l19 8l19 -8l8 -19v-20v-20v-20v-20v-20v-20v-19v-20v-20v-20v-20v-20v-20v-21l1 -17z" />
    <glyph glyph-name="uacute" unicode="&#xfa;" horiz-adv-x="311" 
d="M211 589l-11 -15l-12 -15l-11 -15l-11 -16l-11 -15l-12 -15l-11 -15l-11 -15l-5 -20l10 -18l20 -5l18 10l11 15l11 15l12 16l11 15l11 15l11 15l12 16l11 15l5 20l-10 18l-20 5zM283 54l18 -10l6 -20l-10 -18l-20 -6l-21 5l-16 7l-13 11l-21 -14l-21 -7l-18 -2l-22 1
l-20 4l-17 7l-14 11l-11 13l-10 16l-6 14l-4 15l-4 17l-2 19l-2 20l-1 23v24v19v20v19v20v19v20v19v20v21l-1 17l-3 12l-16 8l-18 10l-6 20l10 18l20 6l22 -5l17 -9l13 -12l9 -16l4 -15l2 -16l1 -19v-20v-20v-19v-20v-19v-20v-19v-20v-19v-29l2 -25l2 -22l4 -18l5 -14
l10 -12l15 -8l21 -2l12 3l15 9l9 12l6 18v16v20v20v20v20v20v20v19v20v20v20v20v20v20l8 19l19 8l19 -8l8 -19v-20v-20v-20v-20v-20v-20v-19v-20v-20v-20v-20v-20v-20v-21l1 -17l3 -12z" />
    <glyph glyph-name="ucircumflex" unicode="&#xfb;" horiz-adv-x="311" 
d="M137 608l-10 -18l-10 -18l-11 -18l-10 -18l-10 -18l-10 -18l-2 -20l13 -16l20 -3l16 13l10 17l9 16l10 17l10 17l10 -17l11 -17l10 -17l11 -17l17 -12l20 3l12 17l-3 20l-11 18l-11 17l-11 18l-11 18l-11 17l-11 18l-10 11l-20 2zM283 54l18 -10l6 -20l-10 -18l-20 -6
l-21 5l-16 7l-13 11l-21 -14l-21 -7l-18 -2l-22 1l-20 4l-17 7l-14 11l-11 13l-10 16l-6 14l-4 15l-4 17l-2 19l-2 20l-1 23v24v19v20v19v20v19v20v19v20v21l-1 17l-3 12l-16 8l-18 10l-6 20l10 18l20 6l22 -5l17 -9l13 -12l9 -16l4 -15l2 -16l1 -19v-20v-20v-19v-20v-19
v-20v-19v-20v-19v-29l2 -25l2 -22l4 -18l5 -14l10 -12l15 -8l21 -2l12 3l15 9l9 12l6 18v16v20v20v20v20v20v20v19v20v20v20v20v20v20l8 19l19 8l19 -8l8 -19v-20v-20v-20v-20v-20v-20v-19v-20v-20v-20v-20v-20v-20v-21l1 -17l3 -12z" />
    <glyph glyph-name="udieresis" unicode="&#xfc;" horiz-adv-x="311" 
d="M146 504l7 -18l-3 -19l-13 -13l-18 -7l-19 4l-14 11l-7 18l3 19l12 13l19 7l19 -3zM246 504l7 -18l-3 -19l-13 -13l-18 -7l-19 4l-14 11l-7 18l3 19l12 13l19 7l19 -3zM267 62l16 -8l18 -10l6 -20l-10 -18l-20 -6l-21 5l-16 7l-13 11l-21 -14l-21 -7l-18 -2l-22 1l-20 4
l-17 7l-14 11l-11 13l-10 16l-6 14l-4 15l-4 17l-2 19l-2 20l-1 23v24v19v20v19v20v19v20v19v20v21l-1 17l-3 12l-16 8l-18 10l-6 20l10 18l20 6l22 -5l17 -9l13 -12l9 -16l4 -15l2 -16l1 -19v-20v-20v-19v-20v-19v-20v-19v-20v-19v-29l2 -25l2 -22l4 -18l5 -14l10 -12
l15 -8l21 -2l12 3l15 9l9 12l6 18v16v20v20v20v20v20v20v19v20v20v20v20v20v20l8 19l19 8l19 -8l8 -19v-20v-20v-20v-20v-20v-20v-19v-20v-20v-20v-20v-20v-20v-21l1 -17z" />
    <glyph glyph-name="yacute" unicode="&#xfd;" horiz-adv-x="280" 
d="M233 584l-11 -15l-12 -15l-11 -15l-11 -16l-11 -15l-12 -15l-11 -15l-11 -15l-5 -20l10 -18l20 -5l18 10l11 15l11 15l12 16l11 15l11 15l11 15l12 16l11 15l5 20l-10 18l-20 5zM261 -12v-19v-19l-1 -19l-2 -18l-4 -18l-5 -17l-8 -19l-11 -16l-13 -13l-17 -11l-19 -6
l-24 -3l-23 2l-19 7l-17 12l-13 16l-8 19l-4 21l3 23l9 24l15 13l21 -2l13 -16l-2 -20l-5 -20l4 -14l9 -8l15 -3l20 4l14 12l9 16l4 16l3 18l2 19v19v20v23l-23 -9l-19 -2l-22 1l-20 4l-17 7l-14 11l-11 13l-10 16l-6 14l-4 15l-4 17l-2 19l-2 20l-1 23v24v19v20v19v20v19
v20v19v20v21l-1 17l-3 12l-16 8l-18 10l-6 20l10 18l20 6l22 -5l17 -9l13 -12l9 -16l4 -15l2 -16l1 -19v-20v-20v-19v-20v-19v-20v-19v-20v-19v-29l2 -25l2 -22l4 -18l5 -14l10 -12l15 -8l21 -2l12 3l15 9l9 12l6 18v20v21v21v21v21v20v21v20v20v20v19v18v17v16l8 19l19 8
l19 -8l8 -19v-16v-17v-18v-19v-20v-20v-20v-21v-20v-21v-21v-21v-21v-24v-23v-21v-21v-20v-19z" />
    <glyph glyph-name="ydieresis" unicode="&#xff;" horiz-adv-x="280" 
d="M149 504l7 -18l-3 -19l-13 -13l-18 -7l-19 4l-14 11l-7 18l3 19l12 13l19 7l19 -3zM249 504l7 -18l-3 -19l-13 -13l-18 -7l-19 4l-14 11l-7 18l3 19l12 13l19 7l19 -3zM261 7v-19v-19v-19l-1 -19l-2 -18l-4 -18l-5 -17l-8 -19l-11 -16l-13 -13l-17 -11l-19 -6l-24 -3
l-23 2l-19 7l-17 12l-13 16l-8 19l-4 21l3 23l9 24l15 13l21 -2l13 -16l-2 -20l-5 -20l4 -14l9 -8l15 -3l20 4l14 12l9 16l4 16l3 18l2 19v19v20v23l-23 -9l-19 -2l-22 1l-20 4l-17 7l-14 11l-11 13l-10 16l-6 14l-4 15l-4 17l-2 19l-2 20l-1 23v24v19v20v19v20v19v20v19v20
v21l-1 17l-3 12l-16 8l-18 10l-6 20l10 18l20 6l22 -5l17 -9l13 -12l9 -16l4 -15l2 -16l1 -19v-20v-20v-19v-20v-19v-20v-19v-20v-19v-29l2 -25l2 -22l4 -18l5 -14l10 -12l15 -8l21 -2l12 3l15 9l9 12l6 18v20v21v21v21v21v20v21v20v20v20v19v18v17v16l8 19l19 8l19 -8
l8 -19v-16v-17v-18v-19v-20v-20v-20v-21v-20v-21v-21v-21v-21v-24v-23v-21v-21v-20z" />
    <glyph glyph-name="Abreve" unicode="&#x102;" horiz-adv-x="750" 
d="M736 604l-18 -9l-20 -4l-19 -5l-18 -8v-20v-19v-20v-19v-20v-20v-19l-1 -20v-19v-20v-20v-19v-20v-19v-20l16 2l17 3l21 -3l12 -17l-4 -21l-17 -11l-23 -5l-22 -2v-20v-20v-20v-20v-20v-20v-21l1 -17l3 -12l16 -8l18 -10l6 -20l-10 -18l-20 -6l-22 5l-17 8l-12 13l-9 16
l-5 15l-2 17l-1 18v20v20v20v20v20v20v20l-21 2l-21 4l-20 4l-20 5l-20 5l-20 5l-5 -19l-5 -18l-4 -19l-5 -18l-4 -19l-5 -19l-5 -20l-5 -19l-4 -18l-5 -18l-5 -18l-7 -22l-7 -21l-8 -20l-9 -19l-9 -17l-9 -17l-11 -15l-10 -14l-11 -13l-12 -12l-16 -15l-16 -13l-17 -11
l-17 -9l-18 -7l-17 -6l-18 -4l-18 -3l-17 -1h-13l-22 2l-21 5l-20 7l-19 9l-17 10l-16 13l-14 15l-12 17l-10 18l-8 19l-5 22l-2 22v12l2 20l5 19l7 19l9 17l12 16l13 14l15 12l16 9l18 8l19 4l20 -5l11 -17l-5 -20l-18 -11l-18 -5l-16 -10l-13 -13l-12 -18l-8 -20l-3 -30
l3 -22l6 -20l11 -17l14 -15l17 -13l19 -9l22 -7l32 -3l17 1l17 4l17 5l17 7l17 10l16 12l16 14l12 13l12 14l11 16l10 17l10 19l9 21l8 23l7 24l5 17l5 18l4 18l5 19l4 19l5 19l5 19l5 19l4 18l5 19l5 19l-20 5l-20 5l-19 4l-19 2l-18 1l-20 -2l-20 -5l-19 -7l-17 -11
l-15 -15l-11 -18l-4 -21l1 -18l5 -16l10 -16l14 -13l19 -11l23 -9l17 -13l2 -20l-12 -17l-21 -2l-21 7l-19 9l-16 10l-15 12l-12 13l-12 16l-8 17l-6 18l-3 18v19l4 22l7 21l11 18l13 17l16 14l16 11l17 9l18 7l19 5l19 4l20 1l18 -1l18 -2l18 -3l19 -4l18 -4l19 -5l6 21
l7 22l7 20l7 21l8 20l8 20l8 19l9 18l10 18l10 17l10 17l11 15l12 15l12 13l13 13l14 12l14 10l18 11l18 9l21 7l21 6l23 3l19 -6l10 -18zM589 287l18 -2v19v20v19v19v20v19v19v19v20v19v19v20v19l-11 -13l-11 -14l-9 -15l-10 -16l-9 -16l-9 -18l-8 -18l-8 -18l-7 -20
l-7 -19l-7 -21l-7 -20l-6 -21l18 -5l18 -4l18 -5l18 -3zM731 766l18 -4l6 -14l-2 -12l-4 -10l-6 -9l-7 -8l-8 -7l-11 -6l-11 -5l-12 -4l-14 -2h-13l-13 1l-12 3l-11 4l-11 5l-9 7l-9 7l-7 9l-6 9l-6 10l-3 12l9 15l21 2l17 -4l7 -13l8 -10l5 -8l7 -4l7 -3l8 -2l11 2l10 5
l5 4l4 7l3 10l9 11z" />
    <glyph glyph-name="abreve" unicode="&#x103;" horiz-adv-x="268" 
d="M220 62l17 -8l18 -10l6 -20l-10 -18l-20 -6l-21 4l-16 8l-12 11l-21 -14l-21 -7l-20 -2l-20 2l-20 6l-17 11l-16 16l-14 20l-6 14l-6 15l-4 16l-4 19l-3 20l-1 21l-1 24v18l1 18l3 20l3 20l4 20l6 19l7 19l9 18l11 17l14 15l15 12l18 10l21 6l23 2h17l18 -3l21 -8l16 -9
l15 -13l15 -17l13 -22l2 -21l-13 -16l-16 -3l-14 4v-20v-20v-19v-20v-20v-20v-19v-20v-20v-21l1 -17zM171 309l19 8l11 -2l-13 14l-13 9l-17 6l-15 1l-23 -5l-19 -13l-13 -18l-9 -19l-7 -21l-5 -21l-3 -22l-2 -22v-20l1 -27l2 -24l4 -20l5 -17l7 -15l18 -20l21 -7l14 2l14 9
l9 12l6 19v16v20v20v19v20v20v20v19v20v20zM223 514l18 -4l6 -14l-2 -12l-4 -10l-6 -9l-7 -8l-8 -7l-11 -6l-11 -5l-12 -4l-14 -2h-13l-13 1l-12 3l-11 4l-11 5l-9 7l-9 7l-7 9l-6 9l-6 10l-3 12l9 15l21 2l17 -4l7 -13l8 -10l5 -8l7 -4l7 -3l8 -2l11 2l10 5l5 4l4 7l3 10
l9 11z" />
    <glyph glyph-name="Dcroat" unicode="&#x110;" horiz-adv-x="603" 
d="M550 466l7 -18l6 -17l5 -18l4 -19l3 -18l3 -19l2 -19l2 -20v-38l-1 -19l-2 -20l-2 -19l-3 -19l-4 -18l-5 -19l-5 -18l-7 -20l-7 -20l-9 -19l-9 -18l-10 -18l-12 -17l-11 -17l-13 -15l-14 -15l-14 -13l-15 -13l-16 -11l-17 -10l-18 -9l-18 -7l-20 -7l-20 -4l-20 -3l-22 -2
h-16l-20 2l-20 3l-19 5l-18 7l-17 8l-16 10l-15 12l-13 13l-12 15l-11 17l-8 18l-7 19l-4 21l-2 22v15l1 19l4 18l5 18l7 17l9 15l11 15l14 15l16 12l18 11l20 8l22 5l20 -4l11 -18l-5 -20l-18 -11l-22 -7l-19 -10l-15 -15l-11 -15l-7 -17l-5 -19l-2 -19v-11l2 -21l6 -19
l8 -18l10 -15l13 -13l15 -12l17 -9l18 -7l20 -4l21 -2h13l20 2l20 3l19 6l18 7l17 8l16 11l15 11l14 13l14 14l12 15l12 17l11 17l9 18l9 19l8 19l7 20l5 19l5 19l3 19l3 19l2 20l2 19v40l-2 19l-2 19l-3 19l-4 18l-5 18l-6 18l-8 19l-8 18l-10 18l-12 16l-12 16l-13 14
l-15 12l-16 12l-17 10l-19 8l-20 7l-21 4l-22 3l-24 1l-21 -1l-20 -2l-20 -5l-20 -6l-18 -7l-18 -9l-17 -10l-16 -11l-15 -13l-13 -14l-11 -15l-9 -16l-7 -18l-5 -18l-2 -19v-4l2 -21l5 -18l9 -16l12 -11l14 -8l18 -3h2l26 7l9 19l-12 16l-10 19l5 19l18 10l20 -5l15 -14
l10 -15l6 -15l3 -23l-6 -22l-11 -18l-16 -15l-17 -10l-20 -5l-21 -2h-4l-21 2l-19 6l-17 9l-14 12l-13 14l-10 15l-8 17l-5 18l-3 19l-1 20v5l2 21l4 19l6 19l8 19l9 17l12 16l12 15l14 14l15 13l15 11l17 11l17 9l18 8l19 7l19 6l19 5l20 3l20 2l20 1l23 -1l22 -2l21 -3
l20 -5l19 -7l18 -7l17 -9l16 -10l15 -11l15 -12l13 -13l13 -14l11 -15l11 -16l10 -16l9 -17zM406 265h-93v-238l-8 -19l-19 -8l-19 8l-8 19v238h-26l-13 8l-5 19l5 19l13 8h26v164l-2 17l-2 12l-17 8l-18 10l-6 20l10 18l20 6l22 -5l17 -9l13 -12l9 -16l4 -15l3 -16l1 -19
v-163h93l13 -8l5 -19l-5 -19z" />
    <glyph glyph-name="dslash" unicode="&#x111;" horiz-adv-x="269" 
d="M96 61l21 -7l14 2l14 9l9 13l6 20v226l-3 19h-1l-16 2l-23 -5l-19 -13l-13 -18l-9 -19l-7 -21l-5 -21l-3 -22l-2 -22v-20l1 -27l2 -24l4 -20l5 -17l7 -15zM245 442h-31v-360l4 -20l17 -8l17 -10l6 -20l-10 -18l-20 -6l-21 4l-16 8l-12 11l-21 -14l-21 -7l-20 -2l-20 2
l-20 6l-17 11l-16 16l-13 20l-6 14l-6 15l-5 16l-4 19l-3 20l-1 21l-1 24v18l1 18l3 20l3 20l4 20l6 19l7 19l9 18l11 17l14 15l15 12l18 10l21 6l23 2l20 -1v45h-86l-13 8l-5 19l5 19l13 8h86v52l8 19l19 8l19 -8l8 -19v-52h31l13 -8l5 -19l-5 -19z" />
    <glyph glyph-name="Itilde" unicode="&#x128;" horiz-adv-x="372" 
d="M144 335l-10 18l6 20l18 10l20 -6l15 -14l10 -14l6 -16l3 -23l-6 -21l-11 -18l-16 -15l-17 -10l-20 -6l-21 -2h-3h-1l-21 3l-19 6l-17 9l-14 11l-13 14l-10 15l-8 17l-5 19l-3 19l-1 20v6l2 20l4 20l6 19l8 17l9 17l12 16l12 16l14 14l15 13l15 11l17 10l17 10l18 8l19 7
l19 6l19 4l20 4l20 2l20 1l25 -1l24 -3l17 -10l6 -18v-20v-19v-20v-20v-19v-20v-20v-19v-20v-20v-19l1 -20v-19v-20v-20v-19v-20v-20v-19v-20v-20v-19v-20v-26l-2 -23l-6 -20l-9 -16l-12 -13l-17 -8l-22 -5l-20 5l-10 18l5 20l18 10l17 8l3 12l1 17v21v20v21v20v21v20v21v20
v20v21v20l-1 21v20v21v20v20v21v20v21v20v21v20l-18 1l-21 -1l-20 -3l-20 -4l-20 -6l-18 -7l-18 -9l-17 -10l-16 -11l-15 -13l-13 -14l-11 -16l-9 -16l-7 -17l-5 -19l-2 -19v-3l2 -21l5 -19l9 -16l12 -11l14 -8l18 -3h2l26 8l9 10zM368 711l9 18l20 7l18 -9l7 -20l-4 -25
l-6 -14l-10 -12l-15 -11l-16 -6l-18 -2l-18 1l-19 5l-20 6l-20 7l-21 7l-19 6l-16 3l-12 -2l-9 -13l-12 -16l-20 -4l-17 11l-3 21l4 16l8 13l11 12l14 9l17 6l18 1l18 -2l19 -4l19 -6l19 -7l23 -8l20 -6l17 -2l10 3z" />
    <glyph glyph-name="itilde" unicode="&#x129;" horiz-adv-x="120" 
d="M75 62l16 -8l18 -10l6 -20l-10 -18l-20 -5l-22 5l-18 8l-12 13l-9 16l-5 20l-2 23v26v20v20v20v20v20v20v19v20v20v20v20v20v20l8 20l19 8l19 -8l8 -20v-20v-20v-20v-20v-20v-20v-19v-20v-20v-20v-20v-20v-20v-21l1 -17zM132 507l9 18l20 7l18 -9l7 -20l-4 -25l-6 -14
l-10 -12l-15 -11l-16 -6l-18 -2l-18 1l-19 5l-20 6l-20 7l-21 7l-19 6l-16 3l-12 -2l-9 -13l-12 -16l-20 -4l-17 11l-3 21l4 16l8 13l11 12l14 9l17 6l18 1l18 -2l19 -4l19 -6l19 -7l23 -8l20 -6l17 -2l10 3z" />
    <glyph glyph-name="Scaron" unicode="&#x160;" horiz-adv-x="434" 
d="M149 785l10 -18l10 -18l10 -18l11 -18l10 -18l10 -18l17 -12l20 2l10 11l11 18l11 17l11 18l11 18l11 17l11 18l3 20l-12 17l-20 3l-17 -12l-11 -17l-10 -17l-11 -17l-10 -17l-10 17l-10 16l-9 17l-10 17l-16 13l-20 -3l-13 -16zM410 164l1 -25l-2 -23l-3 -22l-5 -21
l-7 -19l-9 -18l-10 -16l-11 -15l-13 -14l-15 -12l-15 -10l-17 -9l-17 -7l-17 -6l-18 -4l-19 -2l-20 -1l-19 1l-20 3l-19 5l-19 7l-18 9l-18 10l-16 13l-14 14l-12 15l-11 16l-8 17l-7 17l-6 19l-3 18l-2 23l1 23l4 22l6 21l10 20l12 17l14 13l15 11l18 7l19 5l23 1l23 -3
l20 -8l19 -12l12 -12l9 -14l7 -17l4 -20l2 -26l-9 -19l-19 -7l-19 9l-7 19l-1 17l-5 17l-10 12l-13 8l-15 2h-14l-18 -6l-14 -12l-10 -16l-7 -20l-3 -23l1 -25l4 -18l6 -18l9 -17l11 -15l14 -14l16 -12l17 -9l18 -7l19 -5l19 -2l20 1l18 2l17 5l17 6l15 9l14 11l13 13l11 15
l9 16l7 19l5 20l2 23l-1 25l-3 22l-6 20l-9 18l-10 17l-12 15l-14 14l-15 13l-16 12l-16 11l-17 11l-17 10l-18 11l-18 11l-17 12l-16 12l-16 13l-13 14l-13 15l-10 16l-8 18l-6 20l-4 22l-1 17l2 23l5 21l9 19l11 17l13 15l15 12l17 9l18 8l18 6l20 3h19l23 -1l21 -4l19 -6
l17 -9l15 -10l13 -12l11 -14l10 -15l8 -16l7 -17l5 -18l5 -19l-4 -20l-17 -12l-20 4l-11 17l-6 22l-7 19l-9 17l-11 14l-13 11l-16 8l-19 6l-22 2l-12 -1l-21 -4l-19 -8l-17 -12l-12 -15l-8 -18l-3 -22v-11l4 -18l6 -17l10 -15l12 -14l14 -13l15 -13l17 -11l18 -12l18 -11
l16 -10l16 -10l15 -10l16 -11l14 -11l15 -12l13 -13l12 -14l11 -15l10 -16l8 -18l7 -20l5 -21z" />
    <glyph glyph-name="scaron" unicode="&#x161;" horiz-adv-x="288" 
d="M70 598l10 -18l10 -18l10 -18l11 -18l10 -18l10 -18l17 -12l20 2l10 11l11 18l11 17l11 18l11 18l11 17l11 18l3 20l-12 17l-20 3l-17 -12l-11 -17l-10 -17l-11 -17l-10 -17l-10 17l-10 16l-9 17l-10 17l-16 13l-20 -3l-13 -16zM274 151l1 -22l-2 -20l-5 -19l-6 -17
l-9 -15l-10 -14l-13 -12l-13 -10l-15 -9l-24 -8l-24 -5h-22l-21 4l-21 6l-19 10l-18 13l-13 13l-11 15l-8 16l-6 17l-4 17l-1 24l3 23l8 22l12 19l13 12l16 9l19 5h15l24 -4l21 -11l12 -12l8 -16l5 -19l1 -18l-9 -19l-19 -8l-19 9l-7 19l-1 10l-5 12l-19 3l-14 -8l-8 -18
l-1 -26l4 -17l8 -16l11 -13l19 -11l21 -7l22 -1l15 3l14 5l23 18l9 13l6 15l3 18v21l-5 22l-9 19l-14 15l-16 14l-18 12l-18 12l-16 10l-16 10l-15 11l-13 12l-12 14l-9 16l-7 17l-4 21v21l4 19l7 17l11 14l13 12l15 9l20 8l21 3h21l21 -4l16 -6l15 -9l13 -11l12 -14l9 -16
l7 -19l4 -21l-6 -20l-18 -10l-20 6l-10 19l-6 23l-14 17l-17 9l-23 2l-21 -5l-16 -15l-4 -24l5 -18l10 -15l15 -13l17 -12l19 -12l16 -10l16 -11l16 -11l14 -12l13 -14l12 -16l9 -18l6 -21z" />
    <glyph glyph-name="Utilde" unicode="&#x168;" horiz-adv-x="672" 
d="M671 649l-6 -19l-18 -10l-22 -12l-3 -14l-1 -19v-24v-27v-23v-21v-19v-17v-17v-20v-21v-21l1 -21v-21v-20v-21v-20v-20v-20v-19l-1 -19v-18v-17v-16l-2 -24l-3 -23l-6 -20l-7 -19l-8 -16l-10 -15l-11 -13l-13 -12l-13 -9l-14 -8l-20 -8l-20 -5l-21 -1l-21 3l-20 5l-20 9
l-15 9l-14 12l-13 14l-11 15l-10 18l-7 19l-6 22l-3 24v25v20v20v19v20l-1 20v20v20v19v20v20v20v21v20v21v20v21v20v21v20v21v20v21v20v21l-24 1l-21 -1l-21 -3l-20 -4l-20 -5l-20 -6l-18 -8l-18 -10l-17 -10l-16 -12l-15 -13l-13 -13l-12 -15l-10 -16l-8 -17l-7 -18
l-4 -19l-2 -23l2 -24l6 -22l11 -18l13 -13l17 -9l24 -4l17 2l15 7l10 12l1 13l-15 20l-10 18l5 20l18 9l20 -5l16 -15l11 -16l7 -17l3 -25l-6 -23l-12 -19l-17 -16l-19 -10l-22 -7l-27 -2l-23 3l-21 6l-18 10l-16 13l-14 15l-11 17l-8 18l-7 20l-3 21l-1 28l2 20l4 20l5 19
l7 19l9 17l10 17l12 16l13 15l14 14l15 13l15 11l17 11l17 9l18 9l19 7l19 7l19 5l20 4l20 3l21 2l20 1h28l26 -3l17 -10l6 -19v-21v-20v-21v-20v-21v-21v-20l1 -21v-20v-21v-21v-20v-21v-20v-21v-20v-20v-20v-20v-20l1 -19v-20v-20v-20v-21l1 -26l4 -23l8 -20l11 -17
l12 -13l15 -10l17 -7l19 -3l19 2l18 6l13 8l11 10l11 13l8 16l7 19l4 21l2 25v16v17v18l1 19v19v19v20v20v21v21v21v20v21v21v20v28l-1 27v23v21v15v10v23l1 20l2 18l5 16l10 17l14 14l18 9l24 5l20 -6zM549 795l9 18l20 7l18 -9l7 -20l-4 -25l-6 -14l-10 -12l-15 -11
l-16 -6l-18 -2l-18 1l-19 5l-20 6l-20 7l-21 7l-19 6l-16 3l-12 -2l-9 -13l-12 -16l-20 -4l-17 11l-3 21l4 16l8 13l11 12l14 9l17 6l18 1l18 -2l19 -4l19 -6l19 -7l23 -8l20 -6l17 -2l10 3z" />
    <glyph glyph-name="utilde" unicode="&#x169;" horiz-adv-x="311" 
d="M283 54l18 -10l6 -20l-10 -18l-20 -6l-21 5l-16 7l-13 11l-21 -14l-21 -7l-18 -2l-22 1l-20 4l-17 7l-14 11l-11 13l-10 16l-6 14l-4 15l-4 17l-2 19l-2 20l-1 23v24v19v20v19v20v19v20v19v20v21l-1 17l-3 12l-16 8l-18 10l-6 20l10 18l20 6l22 -5l17 -9l13 -12l9 -16
l4 -15l2 -16l1 -19v-20v-20v-19v-20v-19v-20v-19v-20v-19v-29l2 -25l2 -22l4 -18l5 -14l10 -12l15 -8l21 -2l12 3l15 9l9 12l6 18v16v20v20v20v20v20v20v19v20v20v20v20v20v20l8 19l19 8l19 -8l8 -19v-20v-20v-20v-20v-20v-20v-19v-20v-20v-20v-20v-20v-20v-21l1 -17l3 -12z
M243 556l9 18l20 7l18 -9l7 -20l-4 -25l-6 -14l-10 -12l-15 -11l-16 -6l-18 -2l-18 1l-19 5l-20 6l-20 7l-21 7l-19 6l-16 3l-12 -2l-9 -13l-12 -16l-20 -4l-17 11l-3 21l4 16l8 13l11 12l14 9l17 6l18 1l18 -2l19 -4l19 -6l19 -7l23 -8l20 -6l17 -2l10 3z" />
    <glyph glyph-name="Ydieresis" unicode="&#x178;" horiz-adv-x="646" 
d="M479 678l7 -18l-3 -19l-13 -13l-18 -7l-19 4l-14 11l-7 18l3 19l12 13l19 7l19 -3zM579 678l7 -18l-3 -19l-13 -13l-18 -7l-19 4l-14 11l-7 18l3 19l12 13l19 7l19 -3zM664 612l21 2l19 -7l8 -19l-8 -19l-19 -9l-21 -3l-16 -9l-10 -11l-9 -14l-9 -22l-8 -18l-8 -19
l-8 -18l-8 -19l-8 -18l-8 -18l-9 -19l-8 -18l-8 -18l-8 -19l-8 -18l-8 -19l-8 -18v-19v-19v-18v-19v-19v-19v-18v-19h1v-21l-1 -18l-3 -16l-4 -15l-9 -16l-13 -13l-17 -8l-22 -5l-20 6l-10 18l6 20l18 10l17 8l2 12l1 17v21h1v19v19v19l-1 19v19v19v19v19l-5 21l-5 21l-6 21
l-6 20l-6 20l-7 20l-7 20l-8 18l-8 19l-9 17l-9 17l-10 16l-12 17l-13 16l-14 14l-16 13l-16 11l-17 10l-19 7l-20 6l-21 4l-25 1h-3l-22 -1l-21 -4l-20 -6l-18 -8l-17 -10l-15 -14l-12 -18l-8 -20l-3 -25v-1l2 -18l5 -18l8 -16l11 -14l16 -13l21 -9l26 -4l23 2l18 7l13 11
l9 13l5 28l-8 25l-17 12h-26l-21 4l-11 17l3 20l17 12l22 3l19 -1l18 -5l15 -8l14 -10l11 -13l9 -16l6 -17l3 -19v-18l-4 -19l-6 -18l-9 -15l-11 -14l-13 -12l-16 -10l-19 -7l-21 -5l-24 -1l-21 2l-19 4l-18 6l-16 8l-14 10l-13 12l-12 15l-11 16l-8 17l-5 18l-4 18l-1 19v1
v4l2 21l4 20l7 18l9 17l11 15l12 14l15 12l15 10l17 9l18 8l19 5l20 5l20 2l21 1h5l22 -1l22 -3l20 -4l19 -6l18 -7l17 -9l17 -10l15 -11l15 -12l13 -14l13 -14l13 -16l11 -16l10 -15l9 -16l9 -17l8 -16l8 -18l7 -18l7 -18l6 -18l6 -19l6 -19l8 19l9 19l8 19l9 19l8 20l9 19
l8 19l9 19l8 19l8 20l10 18l11 16l13 13l15 11l17 8z" />
    <glyph glyph-name="Zcaron" unicode="&#x17d;" horiz-adv-x="397" 
d="M114 764l10 -18l10 -18l10 -18l11 -18l10 -18l10 -18l17 -12l20 2l10 11l11 18l11 17l11 18l11 18l11 17l11 18l3 20l-12 17l-20 3l-17 -12l-11 -17l-10 -17l-11 -17l-10 -17l-10 17l-10 16l-9 17l-10 17l-16 13l-20 -3l-13 -16zM368 109l6 -20l3 -20l-1 -21l-4 -21
l-7 -20l-11 -19l-11 -14l-13 -13l-16 -11l-17 -9l-19 -6l-21 -4h-23l-25 3l-19 5l-17 8l-16 10l-14 11l-13 12l-13 12l-13 13l-14 12l-15 10l-17 8l-18 3l-19 9l-6 20l3 11l8 18l9 18l8 17l9 18l8 18l8 18l9 18l8 18l9 17l8 18l8 18l9 18l8 18l9 17l8 18l9 18l8 18l8 18
l9 17l8 18l9 18l8 18l8 18l9 18l8 17l9 18l8 18h-19l-19 1h-19l-19 1l-22 1l-19 -1l-14 -3l-6 -11l-7 -19l-19 -8l-19 8l-9 19l3 23l8 18l14 12l18 9l16 4l17 2h19h21l19 -1h20l19 -1h20l19 -1h20l12 -2l14 -16l-1 -20l-9 -18l-8 -18l-9 -18l-8 -18l-9 -19l-8 -18l-9 -18
l-8 -18l-9 -18l-9 -18l-8 -18l-9 -18l-8 -18l-9 -19l-8 -18l-9 -18l-8 -18l-9 -18l-9 -18l-8 -18l-9 -18l-8 -18l-9 -19l-8 -18l-9 -18l-8 -18l-9 -18l17 -8l16 -10l14 -11l14 -12l13 -13l15 -15l15 -13l16 -10l18 -6l25 -2l21 3l18 7l15 10l11 13l9 18l4 18l1 18l-5 16
l-9 13l-14 9l-19 3l-17 -7l-7 -20l-9 -19l-20 -7l-19 10l-6 19l3 22l8 18l11 15l16 12l18 8l20 3h1l23 -2l19 -5l17 -9l14 -12l12 -14z" />
    <glyph glyph-name="zcaron" unicode="&#x17e;" horiz-adv-x="281" 
d="M73 600l10 -18l10 -18l10 -18l11 -18l10 -18l10 -18l17 -12l20 2l10 11l11 18l11 17l11 18l11 18l11 17l11 18l3 20l-12 17l-20 3l-17 -12l-11 -17l-10 -17l-11 -17l-10 -17l-10 17l-10 16l-9 17l-10 17l-16 13l-20 -3l-13 -16zM329 -30l8 -19l-7 -19l-15 -13l-17 -10
l-19 -7l-18 -3h-20l-21 3l-21 7l-18 11l-18 14l-18 15l-16 14l-18 13l-18 12l-20 8l-21 4l-19 9l-6 20l3 10l8 18l9 18l8 18l9 18l8 18l9 18l8 18l9 18l8 18l9 18l8 19l9 18l9 18l8 18l8 18l9 18l8 18l9 18l8 18l9 18h-19l-19 1h-19l-19 1h-1h-21h-17l-13 -3l-9 -15l-11 -18
l-20 -5l-18 11l-5 20l6 22l9 16l13 12l17 8l15 4l17 2h18h21l19 -1h20l19 -1h19l20 -1h19l13 -2l14 -16l-1 -20l-9 -18l-8 -19l-9 -18l-9 -19l-9 -18l-8 -18l-9 -19l-9 -18l-8 -19l-9 -18l-9 -18l-8 -19l-9 -18l-9 -19l-9 -18l-8 -18l-9 -19l-9 -18l-8 -19l-9 -18l20 -8
l19 -11l17 -12l16 -13l15 -13l19 -15l17 -13l16 -7l18 -2l16 1l25 15l19 8z" />
    <glyph glyph-name="Ohorn" unicode="&#x1a0;" horiz-adv-x="456" 
d="M381 288v35l-2 27l-3 25l-4 24l-5 21l-7 21l-7 19l-8 17l-9 16l-10 14l-11 13l-11 11l-11 10l-13 9l-12 8l-22 9l-21 6l-22 3h-22l-20 -3l-20 -6l-19 -9l-16 -12l-13 -15l-10 -17l-7 -20l-2 -21l2 -18l5 -18l8 -16l11 -14l11 -10l8 22l9 20l10 19l11 18l12 16l14 14
l14 13l16 10l16 9l18 5l18 4h20l18 -9l7 -20l-9 -18l-19 -7l-19 -2l-17 -5l-16 -10l-14 -14l-14 -16l-12 -19l-10 -22l-9 -24l21 2l17 6l13 9l10 12l16 12l21 -2l12 -16l-2 -21l-12 -16l-15 -15l-19 -12l-18 -7l-21 -4l-24 -2l-13 1l-3 -19l-2 -19l-2 -20v-39l2 -20l2 -19
l4 -18l6 -23l7 -22l10 -19l11 -17l13 -14l15 -10l17 -7l19 -3h2l19 2l18 6l16 9l15 13l13 16l11 18l8 15l6 16l6 17l5 18l5 19l3 19l3 20l2 20zM382 536l-8 -4l2 -3l10 -15l8 -17l9 -17l7 -19l7 -20l5 -22l5 -22l4 -24l2 -25l2 -27v-28l-1 -7l-1 -21l-1 -21l-3 -20l-3 -20
l-4 -20l-5 -19l-6 -18l-6 -18l-8 -17l-8 -16l-11 -18l-12 -16l-13 -14l-14 -13l-16 -10l-17 -9l-17 -6l-20 -4l-20 -1h-3l-20 2l-19 5l-17 7l-16 9l-14 11l-13 13l-12 15l-10 16l-9 18l-7 19l-7 21l-5 21l-4 18l-2 18l-2 18l-1 19v38l2 17l1 18l3 18l3 17l-20 12l-16 14
l-12 15l-11 16l-8 17l-5 18l-4 19l-1 19l2 22l4 21l7 20l10 18l12 16l14 14l15 13l18 11l19 9l20 7l21 4l22 2h22l18 -2l17 -3l18 -5l17 -7l18 -8l13 -8l12 -8l13 -10l11 -11l1 -1l10 3l15 9l11 11l8 12l4 16l9 13l16 4l14 -9l4 -16l-4 -16l-6 -15l-8 -13l-10 -12l-11 -9z
" />
    <glyph glyph-name="ohorn" unicode="&#x1a1;" 
d="M192 220v3l-1 20l-2 20l-3 19l-4 19l-6 17l-7 15l-11 17l-13 11l-14 5l-14 -4l-13 -10l-11 -16l-9 -17l-7 -20l-5 -21l-4 -23l-3 -32v-20l1 -21l2 -20l4 -20l4 -20l6 -18l12 -25l14 -17l17 -8h1l17 7l15 16l13 25l6 18l6 19l4 20l3 20l1 21zM233 356l-12 -6l4 -8l6 -18
l5 -19l5 -20l3 -20l1 -21l1 -21v-23l-2 -21l-2 -20l-4 -21l-5 -20l-5 -19l-7 -18l-9 -19l-11 -18l-12 -15l-13 -12l-15 -9l-17 -6l-18 -2h-4l-18 3l-16 7l-15 10l-12 13l-12 15l-10 18l-8 19l-6 18l-5 19l-3 21l-3 20l-2 21l-1 21v20l1 10l1 20l3 21l4 19l5 19l6 18l7 16
l8 15l13 19l15 16l18 12l19 7l21 2l18 -2l17 -6l15 -9l13 -12l2 -2l8 3l15 8l11 11l8 13l4 15l9 13l16 4l14 -8l4 -16l-4 -16l-6 -16l-8 -12l-10 -12l-11 -10z" />
    <glyph glyph-name="Uhorn" unicode="&#x1af;" horiz-adv-x="672" 
d="M674 639l-7 -3l-2 -6l-18 -10l-22 -12l-3 -14l-1 -19v-210l1 -21v-141l-1 -19v-51l-2 -24l-3 -23l-6 -20l-7 -19l-8 -16l-10 -15l-11 -13l-13 -12l-13 -9l-14 -8l-20 -8l-20 -5l-21 -1l-21 3l-20 5l-20 9l-15 9l-14 12l-13 14l-11 15l-10 18l-7 19l-6 22l-3 24v104l-1 20
v386l-24 1l-21 -1l-21 -3l-20 -4l-20 -5l-20 -6l-18 -8l-18 -10l-17 -10l-16 -12l-15 -13l-13 -13l-12 -15l-10 -16l-8 -17l-7 -18l-4 -19l-2 -23l2 -24l6 -22l11 -18l13 -13l17 -9l24 -4l17 2l15 7l10 12l1 13l-15 20l-10 18l5 20l18 9l20 -5l16 -15l11 -16l7 -17l3 -25
l-6 -23l-12 -19l-17 -16l-19 -10l-22 -7l-27 -2l-23 3l-21 6l-18 10l-16 13l-14 15l-11 17l-8 18l-7 20l-3 21l-1 28l2 20l4 20l5 19l7 19l9 17l10 17l12 16l13 15l14 14l15 13l15 11l17 11l17 9l18 9l19 7l19 7l19 5l20 4l20 3l21 2l20 1h28l26 -3l17 -10l6 -19v-144l1 -21
v-244l1 -19v-81l1 -26l4 -23l8 -20l11 -17l12 -13l15 -10l17 -7l19 -3l19 2l18 6l13 8l11 10l11 13l8 16l7 19l4 21l2 25v51l1 19v251l-1 27v92l1 20l2 18l5 16l10 17l14 14l18 9l24 5l2 -1l3 1l15 9l11 11l8 12l4 16l9 13l16 4l14 -9l4 -16l-4 -16l-6 -15l-8 -13l-10 -12
l-11 -9z" />
    <glyph glyph-name="uhorn" unicode="&#x1b0;" horiz-adv-x="311" 
d="M268 349l-5 -2v-256l1 -17l3 -12l16 -8l18 -10l6 -20l-10 -18l-20 -6l-21 5l-16 7l-13 11l-21 -14l-21 -7l-18 -2l-22 1l-20 4l-17 7l-14 11l-11 13l-10 16l-6 14l-4 15l-4 17l-2 19l-2 20l-1 23v201l-1 17l-3 12l-16 8l-18 10l-6 20l10 18l20 6l22 -5l17 -9l13 -12
l9 -16l4 -15l2 -16l1 -19v-205l2 -25l2 -22l4 -18l5 -14l10 -12l15 -8l21 -2l12 3l15 9l9 12l6 18v275l8 19l19 8l18 -7h1l15 8l11 11l8 13l4 15l9 13l16 4l14 -8l4 -16l-4 -16l-6 -16l-8 -12l-10 -12l-11 -10l-14 -9z" />
    <glyph glyph-name="circumflex" unicode="&#x2c6;" horiz-adv-x="400" 
d="M168 524l10 18l17 12l20 -2l10 -11l11 -18l11 -17l11 -18l11 -18l11 -17l11 -18l3 -20l-12 -17l-20 -3l-17 12l-11 17l-10 17l-11 17l-10 17l-10 -17l-10 -17l-9 -16l-10 -17l-16 -13l-20 3l-13 16l2 20l10 18l10 18l10 18l11 18z" />
    <glyph glyph-name="breve" unicode="&#x2d8;" horiz-adv-x="273" 
d="M200 475l18 -4l6 -14l-2 -12l-4 -10l-6 -9l-7 -8l-8 -7l-11 -6l-11 -5l-12 -4l-14 -2h-13l-13 1l-12 3l-11 4l-11 5l-9 7l-9 7l-7 9l-6 9l-6 10l-3 12l9 15l21 2l17 -4l7 -13l8 -10l5 -8l7 -4l7 -3l8 -2l11 2l10 5l5 4l4 7l3 10l9 11z" />
    <glyph glyph-name="tilde" unicode="&#x2dc;" horiz-adv-x="400" 
d="M284 491l9 18l20 7l18 -9l7 -20l-4 -25l-6 -14l-10 -12l-15 -11l-16 -6l-18 -2l-18 1l-19 5l-20 6l-20 7l-21 7l-19 6l-16 3l-12 -2l-9 -13l-12 -16l-20 -4l-17 11l-3 21l4 16l8 13l11 12l14 9l17 6l18 1l18 -2l19 -4l19 -6l19 -7l23 -8l20 -6l17 -2l10 3z" />
    <glyph glyph-name="gravecomb" unicode="&#x300;" horiz-adv-x="0" 
d="M-183 464l11 -18l-5 -20l-18 -11l-20 5l-17 12l-15 13l-17 12l-17 12l-17 12l-16 13l-17 12l-11 18l6 19l17 12l20 -5l17 -12l15 -13l17 -12l17 -12l17 -12l16 -13z" />
    <glyph glyph-name="acutecomb" unicode="&#x301;" horiz-adv-x="0" 
d="M-317 459l16 13l15 14l16 13l16 13l16 14l15 13l16 13l19 7l18 -10l7 -20l-10 -18l-16 -13l-15 -14l-16 -13l-16 -13l-16 -14l-15 -13l-16 -13l-19 -7l-19 10l-6 20z" />
    <glyph glyph-name="tildecomb" unicode="&#x303;" horiz-adv-x="0" 
d="M-150 491l9 18l20 7l18 -9l7 -20l-4 -25l-6 -14l-10 -12l-15 -11l-16 -6l-18 -2l-18 1l-19 5l-20 6l-20 7l-21 7l-19 6l-16 3l-12 -2l-9 -13l-12 -16l-20 -4l-17 11l-3 21l4 16l8 13l11 12l14 9l17 6l18 1l18 -2l19 -4l19 -6l19 -7l23 -8l20 -6l17 -2l10 3z" />
    <glyph glyph-name="hookabovecomb" unicode="&#x309;" horiz-adv-x="278" 
d="M150 398l-14 -5l-14 2l-10 13l10 15l9 10l13 13l7 8l5 8l2 7l-2 11l-7 6l-9 3l-10 -2l-8 -4l-6 -7l-4 -12l-5 -12l-14 -4l-13 6l-4 14l2 14l5 12l7 10l9 9l10 5l10 5l12 2l12 1l12 -2l11 -4l9 -6l7 -7l7 -8l4 -10l2 -11v-12l-2 -11l-4 -11l-5 -8l-6 -8l-11 -14z" />
    <glyph glyph-name="uni031B" unicode="&#x31b;" horiz-adv-x="346" 
d="M336 431l-4 -16l-6 -16l-8 -12l-10 -12l-11 -10l-14 -9l-15 -7l-15 -5l-17 -3l2 44l17 6l15 8l11 11l8 13l4 15l9 13l16 4l14 -8z" />
    <glyph glyph-name="dotbelowcomb" unicode="&#x323;" horiz-adv-x="0" 
d="M38 -84l-3 -19l-13 -13l-18 -7l-19 4l-14 11l-7 18l3 19l12 13l19 7l19 -3l14 -12z" />
    <glyph glyph-name="uni1EA0" unicode="&#x1ea0;" horiz-adv-x="750" 
d="M736 604l-18 -9l-20 -4l-19 -5l-18 -8v-20v-19v-20v-19v-20v-20v-19l-1 -20v-19v-20v-20v-19v-20v-19v-20l16 2l17 3l21 -3l12 -17l-4 -21l-17 -11l-23 -5l-22 -2v-20v-20v-20v-20v-20v-20v-21l1 -17l3 -12l16 -8l18 -10l6 -20l-10 -18l-20 -6l-22 5l-17 8l-12 13l-9 16
l-5 15l-2 17l-1 18v20v20v20v20v20v20v20l-21 2l-21 4l-20 4l-20 5l-20 5l-20 5l-5 -19l-5 -18l-4 -19l-5 -18l-4 -19l-5 -19l-5 -20l-5 -19l-4 -18l-5 -18l-5 -18l-7 -22l-7 -21l-8 -20l-9 -19l-9 -17l-9 -17l-11 -15l-10 -14l-11 -13l-12 -12l-16 -15l-16 -13l-17 -11
l-17 -9l-18 -7l-17 -6l-18 -4l-18 -3l-17 -1h-13l-22 2l-21 5l-20 7l-19 9l-17 10l-16 13l-14 15l-12 17l-10 18l-8 19l-5 22l-2 22v12l2 20l5 19l7 19l9 17l12 16l13 14l15 12l16 9l18 8l19 4l20 -5l11 -17l-5 -20l-18 -11l-18 -5l-16 -10l-13 -13l-12 -18l-8 -20l-3 -30
l3 -22l6 -20l11 -17l14 -15l17 -13l19 -9l22 -7l32 -3l17 1l17 4l17 5l17 7l17 10l16 12l16 14l12 13l12 14l11 16l10 17l10 19l9 21l8 23l7 24l5 17l5 18l4 18l5 19l4 19l5 19l5 19l5 19l4 18l5 19l5 19l-20 5l-20 5l-19 4l-19 2l-18 1l-20 -2l-20 -5l-19 -7l-17 -11
l-15 -15l-11 -18l-4 -21l1 -18l5 -16l10 -16l14 -13l19 -11l23 -9l17 -13l2 -20l-12 -17l-21 -2l-21 7l-19 9l-16 10l-15 12l-12 13l-12 16l-8 17l-6 18l-3 18v19l4 22l7 21l11 18l13 17l16 14l16 11l17 9l18 7l19 5l19 4l20 1l18 -1l18 -2l18 -3l19 -4l18 -4l19 -5l6 21
l7 22l7 20l7 21l8 20l8 20l8 19l9 18l10 18l10 17l10 17l11 15l12 15l12 13l13 13l14 12l14 10l18 11l18 9l21 7l21 6l23 3l19 -6l10 -18zM589 287l18 -2v19v20v19v19v20v19v19v19v20v19v19v20v19l-11 -13l-11 -14l-9 -15l-10 -16l-9 -16l-9 -18l-8 -18l-8 -18l-7 -20
l-7 -19l-7 -21l-7 -20l-6 -21l18 -5l18 -4l18 -5l18 -3zM564 -57l-3 -19l-13 -13l-18 -7l-19 4l-14 11l-7 18l3 19l12 13l19 7l19 -3l14 -12z" />
    <glyph glyph-name="uni1EA1" unicode="&#x1ea1;" horiz-adv-x="268" 
d="M220 62l17 -8l18 -10l6 -20l-10 -18l-20 -6l-21 4l-16 8l-12 11l-21 -14l-21 -7l-20 -2l-20 2l-20 6l-17 11l-16 16l-14 20l-6 14l-6 15l-4 16l-4 19l-3 20l-1 21l-1 24v18l1 18l3 20l3 20l4 20l6 19l7 19l9 18l11 17l14 15l15 12l18 10l21 6l23 2h17l18 -3l21 -8l16 -9
l15 -13l15 -17l13 -22l2 -21l-13 -16l-16 -3l-14 4v-20v-20v-19v-20v-20v-20v-19v-20v-20v-21l1 -17zM171 309l19 8l11 -2l-13 14l-13 9l-17 6l-15 1l-23 -5l-19 -13l-13 -18l-9 -19l-7 -21l-5 -21l-3 -22l-2 -22v-20l1 -27l2 -24l4 -20l5 -17l7 -15l18 -20l21 -7l14 2l14 9
l9 12l6 19v16v20v20v19v20v20v20v19v20v20zM172 -84l-3 -19l-13 -13l-18 -7l-19 4l-14 11l-7 18l3 19l12 13l19 7l19 -3l14 -12z" />
    <glyph glyph-name="uni1EA2" unicode="&#x1ea2;" horiz-adv-x="750" 
d="M736 604l-18 -9l-20 -4l-19 -5l-18 -8v-20v-19v-20v-19v-20v-20v-19l-1 -20v-19v-20v-20v-19v-20v-19v-20l16 2l17 3l21 -3l12 -17l-4 -21l-17 -11l-23 -5l-22 -2v-20v-20v-20v-20v-20v-20v-21l1 -17l3 -12l16 -8l18 -10l6 -20l-10 -18l-20 -6l-22 5l-17 8l-12 13l-9 16
l-5 15l-2 17l-1 18v20v20v20v20v20v20v20l-21 2l-21 4l-20 4l-20 5l-20 5l-20 5l-5 -19l-5 -18l-4 -19l-5 -18l-4 -19l-5 -19l-5 -20l-5 -19l-4 -18l-5 -18l-5 -18l-7 -22l-7 -21l-8 -20l-9 -19l-9 -17l-9 -17l-11 -15l-10 -14l-11 -13l-12 -12l-16 -15l-16 -13l-17 -11
l-17 -9l-18 -7l-17 -6l-18 -4l-18 -3l-17 -1h-13l-22 2l-21 5l-20 7l-19 9l-17 10l-16 13l-14 15l-12 17l-10 18l-8 19l-5 22l-2 22v12l2 20l5 19l7 19l9 17l12 16l13 14l15 12l16 9l18 8l19 4l20 -5l11 -17l-5 -20l-18 -11l-18 -5l-16 -10l-13 -13l-12 -18l-8 -20l-3 -30
l3 -22l6 -20l11 -17l14 -15l17 -13l19 -9l22 -7l32 -3l17 1l17 4l17 5l17 7l17 10l16 12l16 14l12 13l12 14l11 16l10 17l10 19l9 21l8 23l7 24l5 17l5 18l4 18l5 19l4 19l5 19l5 19l5 19l4 18l5 19l5 19l-20 5l-20 5l-19 4l-19 2l-18 1l-20 -2l-20 -5l-19 -7l-17 -11
l-15 -15l-11 -18l-4 -21l1 -18l5 -16l10 -16l14 -13l19 -11l23 -9l17 -13l2 -20l-12 -17l-21 -2l-21 7l-19 9l-16 10l-15 12l-12 13l-12 16l-8 17l-6 18l-3 18v19l4 22l7 21l11 18l13 17l16 14l16 11l17 9l18 7l19 5l19 4l20 1l18 -1l18 -2l18 -3l19 -4l18 -4l19 -5l6 21
l7 22l7 20l7 21l8 20l8 20l8 19l9 18l10 18l10 17l10 17l11 15l12 15l12 13l13 13l14 12l14 10l18 11l18 9l21 7l21 6l23 3l19 -6l10 -18zM589 287l18 -2v19v20v19v19v20v19v19v19v20v19v19v20v19l-11 -13l-11 -14l-9 -15l-10 -16l-9 -16l-9 -18l-8 -18l-8 -18l-7 -20
l-7 -19l-7 -21l-7 -20l-6 -21l18 -5l18 -4l18 -5l18 -3zM668 685l-14 -5l-14 2l-10 13l10 15l9 10l13 13l7 8l5 8l2 7l-2 11l-7 6l-9 3l-10 -2l-8 -4l-6 -7l-4 -12l-5 -12l-14 -4l-13 6l-4 14l2 14l5 12l7 10l9 9l10 5l10 5l12 2l12 1l12 -2l11 -4l9 -6l7 -7l7 -8l4 -10
l2 -11v-12l-2 -11l-4 -11l-5 -8l-6 -8l-11 -14z" />
    <glyph glyph-name="uni1EA3" unicode="&#x1ea3;" horiz-adv-x="268" 
d="M220 62l17 -8l18 -10l6 -20l-10 -18l-20 -6l-21 4l-16 8l-12 11l-21 -14l-21 -7l-20 -2l-20 2l-20 6l-17 11l-16 16l-14 20l-6 14l-6 15l-4 16l-4 19l-3 20l-1 21l-1 24v18l1 18l3 20l3 20l4 20l6 19l7 19l9 18l11 17l14 15l15 12l18 10l21 6l23 2h17l18 -3l21 -8l16 -9
l15 -13l15 -17l13 -22l2 -21l-13 -16l-16 -3l-14 4v-20v-20v-19v-20v-20v-20v-19v-20v-20v-21l1 -17zM171 309l19 8l11 -2l-13 14l-13 9l-17 6l-15 1l-23 -5l-19 -13l-13 -18l-9 -19l-7 -21l-5 -21l-3 -22l-2 -22v-20l1 -27l2 -24l4 -20l5 -17l7 -15l18 -20l21 -7l14 2l14 9
l9 12l6 19v16v20v20v19v20v20v20v19v20v20zM162 449l-14 -5l-14 2l-10 13l10 15l9 10l13 13l7 8l5 8l2 7l-2 11l-7 6l-9 3l-10 -2l-8 -4l-6 -7l-4 -12l-5 -12l-14 -4l-13 6l-4 14l2 14l5 12l7 10l9 9l10 5l10 5l12 2l12 1l12 -2l11 -4l9 -6l7 -7l7 -8l4 -10l2 -11v-12
l-2 -11l-4 -11l-5 -8l-6 -8l-11 -14z" />
    <glyph glyph-name="uni1EA4" unicode="&#x1ea4;" horiz-adv-x="750" 
d="M598 823l-10 -18l-10 -18l-11 -18l-10 -18l-10 -18l-10 -18l-2 -20l13 -16l20 -3l16 13l10 17l9 16l10 17l10 17l10 -17l11 -17l10 -17l11 -17l17 -12l20 3l12 17l-3 20l-11 18l-11 17l-11 18l-11 18l-11 17l-11 18l-10 11l-20 2zM718 595l-20 -4l-19 -5l-18 -8v-20v-19
v-20v-19v-20v-20v-19l-1 -20v-19v-20v-20v-19v-20v-19v-20l16 2l17 3l21 -3l12 -17l-4 -21l-17 -11l-23 -5l-22 -2v-20v-20v-20v-20v-20v-20v-21l1 -17l3 -12l16 -8l18 -10l6 -20l-10 -18l-20 -6l-22 5l-17 8l-12 13l-9 16l-5 15l-2 17l-1 18v20v20v20v20v20v20v20l-21 2
l-21 4l-20 4l-20 5l-20 5l-20 5l-5 -19l-5 -18l-4 -19l-5 -18l-4 -19l-5 -19l-5 -20l-5 -19l-4 -18l-5 -18l-5 -18l-7 -22l-7 -21l-8 -20l-9 -19l-9 -17l-9 -17l-11 -15l-10 -14l-11 -13l-12 -12l-16 -15l-16 -13l-17 -11l-17 -9l-18 -7l-17 -6l-18 -4l-18 -3l-17 -1h-13
l-22 2l-21 5l-20 7l-19 9l-17 10l-16 13l-14 15l-12 17l-10 18l-8 19l-5 22l-2 22v12l2 20l5 19l7 19l9 17l12 16l13 14l15 12l16 9l18 8l19 4l20 -5l11 -17l-5 -20l-18 -11l-18 -5l-16 -10l-13 -13l-12 -18l-8 -20l-3 -30l3 -22l6 -20l11 -17l14 -15l17 -13l19 -9l22 -7
l32 -3l17 1l17 4l17 5l17 7l17 10l16 12l16 14l12 13l12 14l11 16l10 17l10 19l9 21l8 23l7 24l5 17l5 18l4 18l5 19l4 19l5 19l5 19l5 19l4 18l5 19l5 19l-20 5l-20 5l-19 4l-19 2l-18 1l-20 -2l-20 -5l-19 -7l-17 -11l-15 -15l-11 -18l-4 -21l1 -18l5 -16l10 -16l14 -13
l19 -11l23 -9l17 -13l2 -20l-12 -17l-21 -2l-21 7l-19 9l-16 10l-15 12l-12 13l-12 16l-8 17l-6 18l-3 18v19l4 22l7 21l11 18l13 17l16 14l16 11l17 9l18 7l19 5l19 4l20 1l18 -1l18 -2l18 -3l19 -4l18 -4l19 -5l6 21l7 22l7 20l7 21l8 20l8 20l8 19l9 18l10 18l10 17
l10 17l11 15l12 15l12 13l13 13l14 12l14 10l19 12l19 8l19 7l21 6l23 3l19 -6l10 -18l-6 -20zM607 285v19v20v19v19v20v19v19v19v20v19v19v20v19l-11 -13l-11 -14l-9 -15l-10 -16l-9 -16l-9 -18l-8 -18l-8 -18l-7 -20l-7 -19l-7 -21l-7 -20l-6 -21l18 -5l18 -4l18 -5l18 -3
l19 -3zM729 832l-10 -18l6 -20l19 -10l19 7l16 13l15 13l16 14l16 13l16 13l15 14l16 13l10 18l-7 20l-18 10l-19 -7l-16 -13l-15 -13l-16 -14l-16 -13l-16 -13l-15 -14z" />
    <glyph glyph-name="uni1EA5" unicode="&#x1ea5;" horiz-adv-x="268" 
d="M220 62l17 -8l18 -10l6 -20l-10 -18l-20 -6l-21 4l-16 8l-12 11l-21 -14l-21 -7l-20 -2l-20 2l-20 6l-17 11l-16 16l-14 20l-6 14l-6 15l-4 16l-4 19l-3 20l-1 21l-1 24v18l1 18l3 20l3 20l4 20l6 19l7 19l9 18l11 17l14 15l15 12l18 10l21 6l23 2h17l18 -3l21 -8l16 -9
l15 -13l15 -17l13 -22l2 -21l-13 -16l-16 -3l-14 4v-20v-20v-19v-20v-20v-20v-19v-20v-20v-21l1 -17zM171 309l19 8l11 -2l-13 14l-13 9l-17 6l-15 1l-23 -5l-19 -13l-13 -18l-9 -19l-7 -21l-5 -21l-3 -22l-2 -22v-20l1 -27l2 -24l4 -20l5 -17l7 -15l18 -20l21 -7l14 2l14 9
l9 12l6 19v16v20v20v19v20v20v20v19v20v20zM104 540l10 18l17 12l20 -2l10 -11l11 -18l11 -17l11 -18l11 -18l11 -17l11 -18l3 -20l-12 -17l-20 -3l-17 12l-11 17l-10 17l-11 17l-10 17l-10 -17l-10 -17l-9 -16l-10 -17l-16 -13l-20 3l-13 16l2 20l10 18l10 18l10 18l11 18z
M218 575l16 13l15 14l16 13l16 13l16 14l15 13l16 13l19 7l18 -10l7 -20l-10 -18l-16 -13l-15 -14l-16 -13l-16 -13l-16 -14l-15 -13l-16 -13l-19 -7l-19 10l-6 20z" />
    <glyph glyph-name="uni1EA6" unicode="&#x1ea6;" horiz-adv-x="750" 
d="M598 823l-10 -18l-10 -18l-11 -18l-10 -18l-10 -18l-10 -18l-2 -20l13 -16l20 -3l16 13l10 17l9 16l10 17l10 17l10 -17l11 -17l10 -17l11 -17l17 -12l20 3l12 17l-3 20l-11 18l-11 17l-11 18l-11 18l-11 17l-11 18l-10 11l-20 2zM718 595l-20 -4l-19 -5l-18 -8v-20v-19
v-20v-19v-20v-20v-19l-1 -20v-19v-20v-20v-19v-20v-19v-20l16 2l17 3l21 -3l12 -17l-4 -21l-17 -11l-23 -5l-22 -2v-20v-20v-20v-20v-20v-20v-21l1 -17l3 -12l16 -8l18 -10l6 -20l-10 -18l-20 -6l-22 5l-17 8l-12 13l-9 16l-5 15l-2 17l-1 18v20v20v20v20v20v20v20l-21 2
l-21 4l-20 4l-20 5l-20 5l-20 5l-5 -19l-5 -18l-4 -19l-5 -18l-4 -19l-5 -19l-5 -20l-5 -19l-4 -18l-5 -18l-5 -18l-7 -22l-7 -21l-8 -20l-9 -19l-9 -17l-9 -17l-11 -15l-10 -14l-11 -13l-12 -12l-16 -15l-16 -13l-17 -11l-17 -9l-18 -7l-17 -6l-18 -4l-18 -3l-17 -1h-13
l-22 2l-21 5l-20 7l-19 9l-17 10l-16 13l-14 15l-12 17l-10 18l-8 19l-5 22l-2 22v12l2 20l5 19l7 19l9 17l12 16l13 14l15 12l16 9l18 8l19 4l20 -5l11 -17l-5 -20l-18 -11l-18 -5l-16 -10l-13 -13l-12 -18l-8 -20l-3 -30l3 -22l6 -20l11 -17l14 -15l17 -13l19 -9l22 -7
l32 -3l17 1l17 4l17 5l17 7l17 10l16 12l16 14l12 13l12 14l11 16l10 17l10 19l9 21l8 23l7 24l5 17l5 18l4 18l5 19l4 19l5 19l5 19l5 19l4 18l5 19l5 19l-20 5l-20 5l-19 4l-19 2l-18 1l-20 -2l-20 -5l-19 -7l-17 -11l-15 -15l-11 -18l-4 -21l1 -18l5 -16l10 -16l14 -13
l19 -11l23 -9l17 -13l2 -20l-12 -17l-21 -2l-21 7l-19 9l-16 10l-15 12l-12 13l-12 16l-8 17l-6 18l-3 18v19l4 22l7 21l11 18l13 17l16 14l16 11l17 9l18 7l19 5l19 4l20 1l18 -1l18 -2l18 -3l19 -4l18 -4l19 -5l6 21l7 22l7 20l7 21l8 20l8 20l8 19l9 18l10 18l10 17
l10 17l11 15l12 15l12 13l13 13l14 12l14 10l19 12l19 8l19 7l21 6l23 3l19 -6l10 -18l-6 -20zM607 285v19v20v19v19v20v19v19v19v20v19v19v20v19l-11 -13l-11 -14l-9 -15l-10 -16l-9 -16l-9 -18l-8 -18l-8 -18l-7 -20l-7 -19l-7 -21l-7 -20l-6 -21l18 -5l18 -4l18 -5l18 -3
l19 -3zM764 849l-17 12l-16 13l-17 12l-17 12l-17 12l-15 13l-17 12l-20 5l-17 -12l-6 -19l11 -18l17 -12l16 -13l17 -12l17 -12l17 -12l15 -13l17 -12l20 -5l18 11l5 20z" />
    <glyph glyph-name="uni1EA7" unicode="&#x1ea7;" horiz-adv-x="268" 
d="M220 62l17 -8l18 -10l6 -20l-10 -18l-20 -6l-21 4l-16 8l-12 11l-21 -14l-21 -7l-20 -2l-20 2l-20 6l-17 11l-16 16l-14 20l-6 14l-6 15l-4 16l-4 19l-3 20l-1 21l-1 24v18l1 18l3 20l3 20l4 20l6 19l7 19l9 18l11 17l14 15l15 12l18 10l21 6l23 2h17l18 -3l21 -8l16 -9
l15 -13l15 -17l13 -22l2 -21l-13 -16l-16 -3l-14 4v-20v-20v-19v-20v-20v-20v-19v-20v-20v-21l1 -17zM171 309l19 8l11 -2l-13 14l-13 9l-17 6l-15 1l-23 -5l-19 -13l-13 -18l-9 -19l-7 -21l-5 -21l-3 -22l-2 -22v-20l1 -27l2 -24l4 -20l5 -17l7 -15l18 -20l21 -7l14 2l14 9
l9 12l6 19v16v20v20v19v20v20v20v19v20v20zM104 545l10 18l17 12l20 -2l10 -11l11 -18l11 -17l11 -18l11 -18l11 -17l11 -18l3 -20l-12 -17l-20 -3l-17 12l-11 17l-10 17l-11 17l-10 17l-10 -17l-10 -17l-9 -16l-10 -17l-16 -13l-20 3l-13 16l2 20l10 18l10 18l10 18l11 18z
M245 620l11 -18l-5 -20l-18 -11l-20 5l-17 12l-15 13l-17 12l-17 12l-17 12l-16 13l-17 12l-11 18l6 19l17 12l20 -5l17 -12l15 -13l17 -12l17 -12l17 -12l16 -13z" />
    <glyph glyph-name="uni1EA8" unicode="&#x1ea8;" horiz-adv-x="750" 
d="M598 823l-10 -18l-10 -18l-11 -18l-10 -18l-10 -18l-10 -18l-2 -20l13 -16l20 -3l16 13l10 17l9 16l10 17l10 17l10 -17l11 -17l10 -17l11 -17l17 -12l20 3l12 17l-3 20l-11 18l-11 17l-11 18l-11 18l-11 17l-11 18l-10 11l-20 2zM718 595l-20 -4l-19 -5l-18 -8v-20v-19
v-20v-19v-20v-20v-19l-1 -20v-19v-20v-20v-19v-20v-19v-20l16 2l17 3l21 -3l12 -17l-4 -21l-17 -11l-23 -5l-22 -2v-20v-20v-20v-20v-20v-20v-21l1 -17l3 -12l16 -8l18 -10l6 -20l-10 -18l-20 -6l-22 5l-17 8l-12 13l-9 16l-5 15l-2 17l-1 18v20v20v20v20v20v20v20l-21 2
l-21 4l-20 4l-20 5l-20 5l-20 5l-5 -19l-5 -18l-4 -19l-5 -18l-4 -19l-5 -19l-5 -20l-5 -19l-4 -18l-5 -18l-5 -18l-7 -22l-7 -21l-8 -20l-9 -19l-9 -17l-9 -17l-11 -15l-10 -14l-11 -13l-12 -12l-16 -15l-16 -13l-17 -11l-17 -9l-18 -7l-17 -6l-18 -4l-18 -3l-17 -1h-13
l-22 2l-21 5l-20 7l-19 9l-17 10l-16 13l-14 15l-12 17l-10 18l-8 19l-5 22l-2 22v12l2 20l5 19l7 19l9 17l12 16l13 14l15 12l16 9l18 8l19 4l20 -5l11 -17l-5 -20l-18 -11l-18 -5l-16 -10l-13 -13l-12 -18l-8 -20l-3 -30l3 -22l6 -20l11 -17l14 -15l17 -13l19 -9l22 -7
l32 -3l17 1l17 4l17 5l17 7l17 10l16 12l16 14l12 13l12 14l11 16l10 17l10 19l9 21l8 23l7 24l5 17l5 18l4 18l5 19l4 19l5 19l5 19l5 19l4 18l5 19l5 19l-20 5l-20 5l-19 4l-19 2l-18 1l-20 -2l-20 -5l-19 -7l-17 -11l-15 -15l-11 -18l-4 -21l1 -18l5 -16l10 -16l14 -13
l19 -11l23 -9l17 -13l2 -20l-12 -17l-21 -2l-21 7l-19 9l-16 10l-15 12l-12 13l-12 16l-8 17l-6 18l-3 18v19l4 22l7 21l11 18l13 17l16 14l16 11l17 9l18 7l19 5l19 4l20 1l18 -1l18 -2l18 -3l19 -4l18 -4l19 -5l6 21l7 22l7 20l7 21l8 20l8 20l8 19l9 18l10 18l10 17
l10 17l11 15l12 15l12 13l13 13l14 12l14 10l19 12l19 8l19 7l21 6l23 3l19 -6l10 -18l-6 -20zM607 285v19v20v19v19v20v19v19v19v20v19v19v20v19l-11 -13l-11 -14l-9 -15l-10 -16l-9 -16l-9 -18l-8 -18l-8 -18l-7 -20l-7 -19l-7 -21l-7 -20l-6 -21l18 -5l18 -4l18 -5l18 -3
l19 -3zM732 763l14 5l17 16l11 14l6 8l5 8l4 11l2 11v12l-2 11l-4 10l-7 8l-7 7l-9 6l-11 4l-12 2l-12 -1l-12 -2l-10 -5l-10 -5l-9 -9l-7 -10l-5 -12l-2 -14l4 -14l13 -6l14 4l5 12l4 12l6 7l8 4l10 2l9 -3l7 -6l2 -11l-2 -7l-5 -8l-7 -8l-13 -13l-9 -10l-10 -15l10 -13z
" />
    <glyph glyph-name="uni1EA9" unicode="&#x1ea9;" horiz-adv-x="268" 
d="M220 62l17 -8l18 -10l6 -20l-10 -18l-20 -6l-21 4l-16 8l-12 11l-21 -14l-21 -7l-20 -2l-20 2l-20 6l-17 11l-16 16l-14 20l-6 14l-6 15l-4 16l-4 19l-3 20l-1 21l-1 24v18l1 18l3 20l3 20l4 20l6 19l7 19l9 18l11 17l14 15l15 12l18 10l21 6l23 2h17l18 -3l21 -8l16 -9
l15 -13l15 -17l13 -22l2 -21l-13 -16l-16 -3l-14 4v-20v-20v-19v-20v-20v-20v-19v-20v-20v-21l1 -17zM171 309l19 8l11 -2l-13 14l-13 9l-17 6l-15 1l-23 -5l-19 -13l-13 -18l-9 -19l-7 -21l-5 -21l-3 -22l-2 -22v-20l1 -27l2 -24l4 -20l5 -17l7 -15l18 -20l21 -7l14 2l14 9
l9 12l6 19v16v20v20v19v20v20v20v19v20v20zM98 542l10 18l17 12l20 -2l10 -11l11 -18l11 -17l11 -18l11 -18l11 -17l11 -18l3 -20l-12 -17l-20 -3l-17 12l-11 17l-10 17l-11 17l-10 17l-10 -17l-10 -17l-9 -16l-10 -17l-16 -13l-20 3l-13 16l2 20l10 18l10 18l10 18l11 18z
M245 541l-14 -5l-14 2l-10 13l10 15l9 10l13 13l7 8l5 8l2 7l-2 11l-7 6l-9 3l-10 -2l-8 -4l-6 -7l-4 -12l-5 -12l-14 -4l-13 6l-4 14l2 14l5 12l7 10l9 9l10 5l10 5l12 2l12 1l12 -2l11 -4l9 -6l7 -7l7 -8l4 -10l2 -11v-12l-2 -11l-4 -11l-5 -8l-6 -8l-11 -14z" />
    <glyph glyph-name="uni1EAA" unicode="&#x1eaa;" horiz-adv-x="750" 
d="M598 823l-10 -18l-10 -18l-11 -18l-10 -18l-10 -18l-10 -18l-2 -20l13 -16l20 -3l16 13l10 17l9 16l10 17l10 17l10 -17l11 -17l10 -17l11 -17l17 -12l20 3l12 17l-3 20l-11 18l-11 17l-11 18l-11 18l-11 17l-11 18l-10 11l-20 2zM718 595l-20 -4l-19 -5l-18 -8v-20v-19
v-20v-19v-20v-20v-19l-1 -20v-19v-20v-20v-19v-20v-19v-20l16 2l17 3l21 -3l12 -17l-4 -21l-17 -11l-23 -5l-22 -2v-20v-20v-20v-20v-20v-20v-21l1 -17l3 -12l16 -8l18 -10l6 -20l-10 -18l-20 -6l-22 5l-17 8l-12 13l-9 16l-5 15l-2 17l-1 18v20v20v20v20v20v20v20l-21 2
l-21 4l-20 4l-20 5l-20 5l-20 5l-5 -19l-5 -18l-4 -19l-5 -18l-4 -19l-5 -19l-5 -20l-5 -19l-4 -18l-5 -18l-5 -18l-7 -22l-7 -21l-8 -20l-9 -19l-9 -17l-9 -17l-11 -15l-10 -14l-11 -13l-12 -12l-16 -15l-16 -13l-17 -11l-17 -9l-18 -7l-17 -6l-18 -4l-18 -3l-17 -1h-13
l-22 2l-21 5l-20 7l-19 9l-17 10l-16 13l-14 15l-12 17l-10 18l-8 19l-5 22l-2 22v12l2 20l5 19l7 19l9 17l12 16l13 14l15 12l16 9l18 8l19 4l20 -5l11 -17l-5 -20l-18 -11l-18 -5l-16 -10l-13 -13l-12 -18l-8 -20l-3 -30l3 -22l6 -20l11 -17l14 -15l17 -13l19 -9l22 -7
l32 -3l17 1l17 4l17 5l17 7l17 10l16 12l16 14l12 13l12 14l11 16l10 17l10 19l9 21l8 23l7 24l5 17l5 18l4 18l5 19l4 19l5 19l5 19l5 19l4 18l5 19l5 19l-20 5l-20 5l-19 4l-19 2l-18 1l-20 -2l-20 -5l-19 -7l-17 -11l-15 -15l-11 -18l-4 -21l1 -18l5 -16l10 -16l14 -13
l19 -11l23 -9l17 -13l2 -20l-12 -17l-21 -2l-21 7l-19 9l-16 10l-15 12l-12 13l-12 16l-8 17l-6 18l-3 18v19l4 22l7 21l11 18l13 17l16 14l16 11l17 9l18 7l19 5l19 4l20 1l18 -1l18 -2l18 -3l19 -4l18 -4l19 -5l6 21l7 22l7 20l7 21l8 20l8 20l8 19l9 18l10 18l10 17
l10 17l11 15l12 15l12 13l13 13l14 12l14 10l19 12l19 8l19 7l21 6l23 3l19 -6l10 -18l-6 -20zM607 285v19v20v19v19v20v19v19v19v20v19v19v20v19l-11 -13l-11 -14l-9 -15l-10 -16l-9 -16l-9 -18l-8 -18l-8 -18l-7 -20l-7 -19l-7 -21l-7 -20l-6 -21l18 -5l18 -4l18 -5l18 -3
l19 -3zM749 925l-4 -17l-10 -3l-17 2l-20 6l-23 8l-19 7l-19 6l-19 4l-18 2l-18 -1l-17 -6l-14 -9l-11 -12l-8 -13l-4 -16l3 -21l17 -11l20 4l12 16l9 13l12 2l16 -3l19 -6l21 -7l20 -7l20 -6l19 -5l18 -1l18 2l16 6l15 11l10 12l6 14l4 25l-7 20l-18 9l-20 -7z" />
    <glyph glyph-name="uni1EAB" unicode="&#x1eab;" horiz-adv-x="268" 
d="M220 62l17 -8l18 -10l6 -20l-10 -18l-20 -6l-21 4l-16 8l-12 11l-21 -14l-21 -7l-20 -2l-20 2l-20 6l-17 11l-16 16l-14 20l-6 14l-6 15l-4 16l-4 19l-3 20l-1 21l-1 24v18l1 18l3 20l3 20l4 20l6 19l7 19l9 18l11 17l14 15l15 12l18 10l21 6l23 2h17l18 -3l21 -8l16 -9
l15 -13l15 -17l13 -22l2 -21l-13 -16l-16 -3l-14 4v-20v-20v-19v-20v-20v-20v-19v-20v-20v-21l1 -17zM171 309l19 8l11 -2l-13 14l-13 9l-17 6l-15 1l-23 -5l-19 -13l-13 -18l-9 -19l-7 -21l-5 -21l-3 -22l-2 -22v-20l1 -27l2 -24l4 -20l5 -17l7 -15l18 -20l21 -7l14 2l14 9
l9 12l6 19v16v20v20v19v20v20v20v19v20v20zM98 524l10 18l17 12l20 -2l10 -11l11 -18l11 -17l11 -18l11 -18l11 -17l11 -18l3 -20l-12 -17l-20 -3l-17 12l-11 17l-10 17l-11 17l-10 17l-10 -17l-10 -17l-9 -16l-10 -17l-16 -13l-20 3l-13 16l2 20l10 18l10 18l10 18l11 18z
M218 653l9 18l20 7l18 -9l7 -20l-4 -25l-6 -14l-10 -12l-15 -11l-16 -6l-18 -2l-18 1l-19 5l-20 6l-20 7l-21 7l-19 6l-16 3l-12 -2l-9 -13l-12 -16l-20 -4l-17 11l-3 21l4 16l8 13l11 12l14 9l17 6l18 1l18 -2l19 -4l19 -6l19 -7l23 -8l20 -6l17 -2l10 3z" />
    <glyph glyph-name="uni1EAC" unicode="&#x1eac;" horiz-adv-x="750" 
d="M598 823l-10 -18l-10 -18l-11 -18l-10 -18l-10 -18l-10 -18l-2 -20l13 -16l20 -3l16 13l10 17l9 16l10 17l10 17l10 -17l11 -17l10 -17l11 -17l17 -12l20 3l12 17l-3 20l-11 18l-11 17l-11 18l-11 18l-11 17l-11 18l-10 11l-20 2zM718 595l-20 -4l-19 -5l-18 -8v-20v-19
v-20v-19v-20v-20v-19l-1 -20v-19v-20v-20v-19v-20v-19v-20l16 2l17 3l21 -3l12 -17l-4 -21l-17 -11l-23 -5l-22 -2v-20v-20v-20v-20v-20v-20v-21l1 -17l3 -12l16 -8l18 -10l6 -20l-10 -18l-20 -6l-22 5l-17 8l-12 13l-9 16l-5 15l-2 17l-1 18v20v20v20v20v20v20v20l-21 2
l-21 4l-20 4l-20 5l-20 5l-20 5l-5 -19l-5 -18l-4 -19l-5 -18l-4 -19l-5 -19l-5 -20l-5 -19l-4 -18l-5 -18l-5 -18l-7 -22l-7 -21l-8 -20l-9 -19l-9 -17l-9 -17l-11 -15l-10 -14l-11 -13l-12 -12l-16 -15l-16 -13l-17 -11l-17 -9l-18 -7l-17 -6l-18 -4l-18 -3l-17 -1h-13
l-22 2l-21 5l-20 7l-19 9l-17 10l-16 13l-14 15l-12 17l-10 18l-8 19l-5 22l-2 22v12l2 20l5 19l7 19l9 17l12 16l13 14l15 12l16 9l18 8l19 4l20 -5l11 -17l-5 -20l-18 -11l-18 -5l-16 -10l-13 -13l-12 -18l-8 -20l-3 -30l3 -22l6 -20l11 -17l14 -15l17 -13l19 -9l22 -7
l32 -3l17 1l17 4l17 5l17 7l17 10l16 12l16 14l12 13l12 14l11 16l10 17l10 19l9 21l8 23l7 24l5 17l5 18l4 18l5 19l4 19l5 19l5 19l5 19l4 18l5 19l5 19l-20 5l-20 5l-19 4l-19 2l-18 1l-20 -2l-20 -5l-19 -7l-17 -11l-15 -15l-11 -18l-4 -21l1 -18l5 -16l10 -16l14 -13
l19 -11l23 -9l17 -13l2 -20l-12 -17l-21 -2l-21 7l-19 9l-16 10l-15 12l-12 13l-12 16l-8 17l-6 18l-3 18v19l4 22l7 21l11 18l13 17l16 14l16 11l17 9l18 7l19 5l19 4l20 1l18 -1l18 -2l18 -3l19 -4l18 -4l19 -5l6 21l7 22l7 20l7 21l8 20l8 20l8 19l9 18l10 18l10 17
l10 17l11 15l12 15l12 13l13 13l14 12l14 10l19 12l19 8l19 7l21 6l23 3l19 -6l10 -18l-6 -20zM607 285v19v20v19v19v20v19v19v19v20v19v19v20v19l-11 -13l-11 -14l-9 -15l-10 -16l-9 -16l-9 -18l-8 -18l-8 -18l-7 -20l-7 -19l-7 -21l-7 -20l-6 -21l18 -5l18 -4l18 -5l18 -3
l19 -3zM555 -84l-7 18l-14 12l-19 3l-19 -7l-12 -13l-3 -19l7 -18l14 -11l19 -4l18 7l13 13z" />
    </font>
</defs>
</svg>
